M48
;Layer_Color=9474304
;FILE_FORMAT=2:5
INCH,LZ
;TYPE=PLATED
T1F00S00C0.00169
T2F00S00C0.01575
T3F00S00C0.03543
T4F00S00C0.04724
T5F00S00C0.05900
T6F00S00C0.10630
T7F00S00C0.12598
T8F00S00C0.18110
%
T01
X0Y0000787
T02
X-0056693Y-0005512
Y0022047
X-0041732
X-0042126Y0006693
X-0041732Y-0005512
X-0042126Y-0020866
X-0056299
Y0006693
X0042126
X0041732Y-0005512
X0056693
X0056299Y0006693
X0056693Y0022047
X0041732
X0079134Y0018012
X0086024Y0011024
X0079134Y0004134
Y-0001673
Y-0015551
X0072244Y-000876
X0086024Y-0008661
X0072244Y0010925
X0056299Y-0020866
X0042126
T03
X-0073622Y-0021417
Y-0011417
Y-0001417
T04
X-0095276Y-002126
Y-0011417
Y-0001575
T05
X-0015Y0010787
X001Y0020787
T06
X0079134Y-0008661
Y0011024
T07
X015748Y-0059055
X-015748
T08
X-0049213Y-0012992
Y0014567
X0049213
Y-0012992
M30
