G04*
G04 #@! TF.GenerationSoftware,Altium Limited,Altium Designer,20.0.9 (164)*
G04*
G04 Layer_Physical_Order=2*
G04 Layer_Color=16711680*
%FSLAX25Y25*%
%MOIN*%
G70*
G01*
G75*
%ADD24C,0.15700*%
%ADD25C,0.06700*%
%ADD26C,0.09055*%
%ADD27R,0.09055X0.09055*%
%ADD28C,0.00315*%
%ADD34C,0.03937*%
%ADD36C,0.24410*%
%ADD37R,0.07480X0.07087*%
%ADD38C,0.07480*%
%ADD39R,0.05906X0.05906*%
%ADD40C,0.05906*%
%ADD41C,0.16535*%
%ADD42C,0.01575*%
%ADD43C,0.22441*%
%ADD44R,0.05906X0.05512*%
%ADD45R,0.07874X0.01968*%
%ADD46R,0.11811X0.05906*%
%ADD47C,0.01968*%
G36*
X-20000Y-11317D02*
X20179D01*
X29823Y-1673D01*
X82677D01*
Y-29528D01*
X-49213D01*
Y-1317D01*
X-30000D01*
X-20000Y-11317D01*
D02*
G37*
D24*
X0Y787D02*
D03*
D25*
X-20000D02*
D03*
X20000D02*
D03*
D26*
X10000Y20787D02*
D03*
D27*
X-15000Y10787D02*
D03*
D28*
X0Y787D02*
D03*
D34*
X-95472Y-21063D02*
X-95276Y-21260D01*
X-112795Y-21063D02*
X-95472D01*
X-112992Y-20866D02*
X-112795Y-21063D01*
X-111221Y-11417D02*
X-95276D01*
X-112795Y-12992D02*
X-111221Y-11417D01*
X-112992Y-12992D02*
X-112795D01*
D36*
X49213Y-12992D02*
D03*
Y14567D02*
D03*
X-49213D02*
D03*
Y-12992D02*
D03*
D37*
X-95276Y-1575D02*
D03*
D38*
Y-11417D02*
D03*
Y-21260D02*
D03*
D39*
X-73622Y-1417D02*
D03*
D40*
Y-11417D02*
D03*
Y-21417D02*
D03*
D41*
X79134Y11024D02*
D03*
Y-8661D02*
D03*
D42*
X41732Y-5512D02*
D03*
X42126Y-20866D02*
D03*
X56299D02*
D03*
X56693Y-5512D02*
D03*
Y22047D02*
D03*
X56299Y6693D02*
D03*
X42126D02*
D03*
X41732Y22047D02*
D03*
X-56693D02*
D03*
X-56299Y6693D02*
D03*
X-42126D02*
D03*
X-41732Y22047D02*
D03*
Y-5512D02*
D03*
X-42126Y-20866D02*
D03*
X-56299D02*
D03*
X-56693Y-5512D02*
D03*
X79134Y-15551D02*
D03*
Y-1673D02*
D03*
X72244Y-8760D02*
D03*
X86024Y-8661D02*
D03*
Y11024D02*
D03*
X72244Y10925D02*
D03*
X79134Y18012D02*
D03*
Y4134D02*
D03*
D43*
X-157480Y-59055D02*
D03*
X157480D02*
D03*
D44*
X-112992Y-12992D02*
D03*
Y-20866D02*
D03*
D45*
X146063Y-13385D02*
D03*
Y-9448D02*
D03*
D46*
X158661Y-18898D02*
D03*
Y-3937D02*
D03*
D47*
X11614Y37402D02*
X81496D01*
X-15000Y10787D02*
X11614Y37402D01*
X79865Y33465D02*
X126715Y-13385D01*
X10000Y20787D02*
X22677Y33465D01*
X79865D01*
X126715Y-13385D02*
X146063D01*
X81496Y37402D02*
X128346Y-9448D01*
X146063D01*
M02*
