G04*
G04 #@! TF.GenerationSoftware,Altium Limited,Altium Designer,20.0.9 (164)*
G04*
G04 Layer_Color=65535*
%FSLAX25Y25*%
%MOIN*%
G70*
G01*
G75*
%ADD10C,0.00984*%
%ADD11C,0.00394*%
%ADD12C,0.00591*%
%ADD13C,0.00035*%
%ADD14C,0.00787*%
%ADD15C,0.01000*%
%ADD16R,0.03740X0.01083*%
G36*
X-108052Y-38841D02*
X-107967Y-38856D01*
X-107868Y-38886D01*
X-107768Y-38925D01*
X-107661Y-38986D01*
X-107562Y-39062D01*
X-107554Y-39070D01*
X-107524Y-39101D01*
X-107478Y-39154D01*
X-107432Y-39223D01*
X-107386Y-39307D01*
X-107340Y-39407D01*
X-107309Y-39521D01*
X-107302Y-39652D01*
Y-39659D01*
Y-39667D01*
Y-39713D01*
X-107317Y-39774D01*
X-107332Y-39858D01*
X-107363Y-39957D01*
X-107409Y-40057D01*
X-107478Y-40156D01*
X-107562Y-40248D01*
X-107570Y-40256D01*
X-107608Y-40286D01*
X-107661Y-40317D01*
X-107730Y-40363D01*
X-107822Y-40401D01*
X-107929Y-40439D01*
X-108052Y-40470D01*
X-108182Y-40478D01*
X-108197D01*
X-108243Y-40470D01*
X-108312Y-40462D01*
X-108403Y-40447D01*
X-108503Y-40416D01*
X-108602Y-40378D01*
X-108709Y-40317D01*
X-108809Y-40241D01*
X-108817Y-40233D01*
X-108847Y-40195D01*
X-108885Y-40149D01*
X-108931Y-40080D01*
X-108977Y-39996D01*
X-109015Y-39889D01*
X-109046Y-39774D01*
X-109054Y-39652D01*
Y-39644D01*
Y-39636D01*
X-109046Y-39590D01*
X-109038Y-39529D01*
X-109023Y-39445D01*
X-108993Y-39353D01*
X-108947Y-39254D01*
X-108893Y-39154D01*
X-108809Y-39062D01*
X-108794Y-39055D01*
X-108763Y-39024D01*
X-108709Y-38986D01*
X-108633Y-38940D01*
X-108541Y-38902D01*
X-108434Y-38864D01*
X-108319Y-38833D01*
X-108182Y-38825D01*
X-108120D01*
X-108052Y-38841D01*
D02*
G37*
G36*
X-66841Y-49543D02*
Y-49551D01*
X-66849Y-49566D01*
X-66864Y-49597D01*
X-66879Y-49642D01*
X-66902Y-49688D01*
X-66933Y-49749D01*
X-66963Y-49818D01*
X-67002Y-49895D01*
X-67093Y-50071D01*
X-67208Y-50262D01*
X-67338Y-50469D01*
X-67491Y-50675D01*
X-67659Y-50889D01*
X-67851Y-51096D01*
X-68057Y-51287D01*
X-68287Y-51463D01*
X-68409Y-51540D01*
X-68532Y-51609D01*
X-68662Y-51662D01*
X-68799Y-51715D01*
X-68937Y-51762D01*
X-69082Y-51792D01*
X-69235Y-51807D01*
X-69388Y-51815D01*
X-69526D01*
X-69580Y-51807D01*
X-69702Y-51800D01*
X-69840Y-51784D01*
X-69993Y-51769D01*
X-70138Y-51739D01*
X-70276Y-51700D01*
Y-50499D01*
X-70268D01*
X-70261Y-50507D01*
X-70215Y-50522D01*
X-70146Y-50545D01*
X-70054Y-50576D01*
X-69947Y-50606D01*
X-69817Y-50629D01*
X-69687Y-50644D01*
X-69549Y-50652D01*
X-69511D01*
X-69473Y-50644D01*
X-69419Y-50637D01*
X-69350Y-50622D01*
X-69274Y-50606D01*
X-69190Y-50576D01*
X-69098Y-50538D01*
X-69006Y-50492D01*
X-68906Y-50438D01*
X-68807Y-50362D01*
X-68708Y-50277D01*
X-68616Y-50178D01*
X-68524Y-50055D01*
X-68440Y-49918D01*
X-68363Y-49765D01*
X-67897Y-48656D01*
X-70551Y-41954D01*
X-68968D01*
X-67353Y-46743D01*
Y-46751D01*
X-67346Y-46774D01*
X-67331Y-46819D01*
X-67315Y-46881D01*
X-67292Y-46965D01*
X-67269Y-47080D01*
X-67239Y-47217D01*
X-67216Y-47294D01*
X-67200Y-47386D01*
X-67170D01*
Y-47378D01*
X-67162Y-47347D01*
X-67155Y-47302D01*
X-67139Y-47233D01*
X-67116Y-47148D01*
X-67086Y-47041D01*
X-67048Y-46911D01*
X-67002Y-46758D01*
X-65326Y-41954D01*
X-63888D01*
X-66841Y-49543D01*
D02*
G37*
G36*
X-52826Y-48663D02*
X-54310D01*
X-55565Y-44173D01*
Y-44157D01*
X-55580Y-44119D01*
X-55595Y-44058D01*
X-55611Y-43974D01*
X-55626Y-43867D01*
X-55641Y-43752D01*
X-55657Y-43614D01*
X-55664Y-43469D01*
X-55695D01*
Y-43484D01*
X-55703Y-43515D01*
Y-43576D01*
X-55718Y-43652D01*
X-55733Y-43752D01*
X-55756Y-43874D01*
X-55787Y-44004D01*
X-55825Y-44157D01*
X-57171Y-48663D01*
X-58632D01*
X-60614Y-41954D01*
X-59137D01*
X-57913Y-46766D01*
Y-46781D01*
X-57898Y-46819D01*
X-57890Y-46881D01*
X-57875Y-46957D01*
X-57860Y-47057D01*
X-57845Y-47171D01*
X-57829Y-47294D01*
X-57814Y-47424D01*
X-57776D01*
Y-47416D01*
Y-47409D01*
X-57768Y-47363D01*
X-57760Y-47302D01*
X-57753Y-47210D01*
X-57737Y-47110D01*
X-57714Y-46995D01*
X-57684Y-46873D01*
X-57653Y-46751D01*
X-56238Y-41954D01*
X-54915D01*
X-53652Y-46781D01*
Y-46789D01*
X-53645Y-46812D01*
X-53637Y-46858D01*
X-53622Y-46927D01*
X-53606Y-47011D01*
X-53591Y-47126D01*
X-53576Y-47271D01*
X-53561Y-47347D01*
X-53553Y-47439D01*
X-53507D01*
Y-47424D01*
X-53499Y-47386D01*
X-53492Y-47324D01*
X-53484Y-47240D01*
X-53469Y-47141D01*
X-53446Y-47034D01*
X-53423Y-46911D01*
X-53392Y-46781D01*
X-52199Y-41954D01*
X-50845D01*
X-52826Y-48663D01*
D02*
G37*
G36*
X-112030Y-48663D02*
X-113514D01*
X-114768Y-44173D01*
Y-44157D01*
X-114784Y-44119D01*
X-114799Y-44058D01*
X-114814Y-43974D01*
X-114829Y-43867D01*
X-114845Y-43752D01*
X-114860Y-43614D01*
X-114868Y-43469D01*
X-114898D01*
Y-43484D01*
X-114906Y-43515D01*
Y-43576D01*
X-114921Y-43652D01*
X-114936Y-43752D01*
X-114960Y-43874D01*
X-114990Y-44004D01*
X-115028Y-44157D01*
X-116375Y-48663D01*
X-117836D01*
X-119817Y-41954D01*
X-118341D01*
X-117117Y-46766D01*
Y-46781D01*
X-117102Y-46820D01*
X-117094Y-46881D01*
X-117078Y-46957D01*
X-117063Y-47057D01*
X-117048Y-47172D01*
X-117033Y-47294D01*
X-117017Y-47424D01*
X-116979D01*
Y-47416D01*
Y-47409D01*
X-116971Y-47363D01*
X-116964Y-47302D01*
X-116956Y-47210D01*
X-116941Y-47110D01*
X-116918Y-46995D01*
X-116887Y-46873D01*
X-116857Y-46751D01*
X-115441Y-41954D01*
X-114118D01*
X-112856Y-46781D01*
Y-46789D01*
X-112848Y-46812D01*
X-112840Y-46858D01*
X-112825Y-46927D01*
X-112810Y-47011D01*
X-112794Y-47126D01*
X-112779Y-47271D01*
X-112764Y-47347D01*
X-112756Y-47439D01*
X-112710D01*
Y-47424D01*
X-112703Y-47386D01*
X-112695Y-47324D01*
X-112687Y-47240D01*
X-112672Y-47141D01*
X-112649Y-47034D01*
X-112626Y-46911D01*
X-112596Y-46781D01*
X-111402Y-41954D01*
X-110048D01*
X-112030Y-48663D01*
D02*
G37*
G36*
X-44801Y-42513D02*
X-48496Y-47539D01*
X-44817D01*
Y-48663D01*
X-50501D01*
Y-48151D01*
X-46744Y-43086D01*
X-50149D01*
Y-41954D01*
X-44801D01*
Y-42513D01*
D02*
G37*
G36*
X-88452Y-41686D02*
X-88376D01*
X-88292Y-41702D01*
X-88192Y-41717D01*
X-88085Y-41732D01*
X-87978Y-41763D01*
X-87963D01*
X-87924Y-41778D01*
X-87871Y-41794D01*
X-87794Y-41824D01*
X-87703Y-41855D01*
X-87603Y-41901D01*
X-87496Y-41954D01*
X-87381Y-42015D01*
X-87366Y-42023D01*
X-87328Y-42046D01*
X-87274Y-42084D01*
X-87198Y-42130D01*
X-87106Y-42191D01*
X-87006Y-42260D01*
X-86899Y-42344D01*
X-86792Y-42436D01*
X-86777Y-42444D01*
X-86739Y-42482D01*
X-86685Y-42528D01*
X-86616Y-42597D01*
X-86540Y-42681D01*
X-86456Y-42773D01*
X-86371Y-42872D01*
X-86287Y-42987D01*
X-86280Y-42972D01*
X-86257Y-42941D01*
X-86218Y-42887D01*
X-86165Y-42819D01*
X-86104Y-42742D01*
X-86019Y-42658D01*
X-85928Y-42566D01*
X-85828Y-42474D01*
X-85813Y-42467D01*
X-85775Y-42436D01*
X-85721Y-42390D01*
X-85637Y-42329D01*
X-85553Y-42268D01*
X-85446Y-42199D01*
X-85339Y-42130D01*
X-85224Y-42069D01*
X-85209Y-42061D01*
X-85170Y-42038D01*
X-85109Y-42008D01*
X-85025Y-41977D01*
X-84933Y-41931D01*
X-84826Y-41893D01*
X-84711Y-41855D01*
X-84597Y-41816D01*
X-84581Y-41809D01*
X-84543Y-41801D01*
X-84482Y-41786D01*
X-84398Y-41770D01*
X-84306Y-41755D01*
X-84199Y-41740D01*
X-84092Y-41725D01*
X-83923D01*
X-83870Y-41732D01*
X-83793Y-41740D01*
X-83702Y-41748D01*
X-83610Y-41763D01*
X-83510Y-41794D01*
X-83411Y-41824D01*
X-83396Y-41832D01*
X-83365Y-41839D01*
X-83319Y-41862D01*
X-83258Y-41893D01*
X-83181Y-41931D01*
X-83105Y-41977D01*
X-82952Y-42092D01*
X-82944Y-42099D01*
X-82921Y-42122D01*
X-82883Y-42153D01*
X-82837Y-42199D01*
X-82784Y-42252D01*
X-82722Y-42314D01*
X-82608Y-42467D01*
X-82600Y-42474D01*
X-82585Y-42505D01*
X-82554Y-42543D01*
X-82524Y-42597D01*
X-82485Y-42666D01*
X-82447Y-42734D01*
X-82371Y-42895D01*
X-82363Y-42903D01*
X-82355Y-42933D01*
X-82340Y-42972D01*
X-82317Y-43033D01*
X-82294Y-43094D01*
X-82271Y-43170D01*
X-82233Y-43339D01*
Y-43346D01*
X-82225Y-43377D01*
X-82218Y-43423D01*
X-82210Y-43477D01*
X-82202Y-43538D01*
X-82195Y-43606D01*
X-82187Y-43752D01*
Y-43760D01*
Y-43767D01*
Y-43790D01*
Y-43821D01*
X-82195Y-43905D01*
X-82202Y-44012D01*
X-82225Y-44142D01*
X-82248Y-44287D01*
X-82286Y-44440D01*
X-82332Y-44601D01*
Y-44609D01*
X-82340Y-44616D01*
X-82348Y-44639D01*
X-82355Y-44670D01*
X-82393Y-44754D01*
X-82432Y-44861D01*
X-82493Y-44991D01*
X-82554Y-45129D01*
X-82638Y-45282D01*
X-82722Y-45435D01*
Y-45443D01*
X-82730Y-45450D01*
X-82745Y-45473D01*
X-82768Y-45504D01*
X-82814Y-45580D01*
X-82883Y-45687D01*
X-82967Y-45802D01*
X-83067Y-45940D01*
X-83174Y-46077D01*
X-83289Y-46223D01*
Y-46231D01*
X-83304Y-46238D01*
X-83342Y-46284D01*
X-83403Y-46361D01*
X-83487Y-46452D01*
X-83587Y-46559D01*
X-83694Y-46682D01*
X-83816Y-46804D01*
X-83939Y-46934D01*
X-83954Y-46950D01*
X-84000Y-46988D01*
X-84061Y-47057D01*
X-84153Y-47141D01*
X-84260Y-47240D01*
X-84375Y-47347D01*
X-84505Y-47455D01*
X-84635Y-47569D01*
X-84642D01*
X-84650Y-47585D01*
X-84696Y-47615D01*
X-84765Y-47669D01*
X-84849Y-47738D01*
X-84956Y-47822D01*
X-85063Y-47906D01*
X-85293Y-48074D01*
X-85308Y-48082D01*
X-85346Y-48112D01*
X-85400Y-48151D01*
X-85476Y-48204D01*
X-85561Y-48258D01*
X-85652Y-48319D01*
X-85851Y-48449D01*
X-85859Y-48457D01*
X-85897Y-48472D01*
X-85943Y-48503D01*
X-86004Y-48533D01*
X-86073Y-48571D01*
X-86150Y-48602D01*
X-86226Y-48633D01*
X-86295Y-48663D01*
X-86303D01*
X-86326Y-48648D01*
X-86364Y-48633D01*
X-86410Y-48617D01*
X-86471Y-48587D01*
X-86540Y-48548D01*
X-86616Y-48510D01*
X-86700Y-48457D01*
X-86708Y-48449D01*
X-86739Y-48426D01*
X-86792Y-48395D01*
X-86861Y-48349D01*
X-86937Y-48296D01*
X-87029Y-48235D01*
X-87136Y-48158D01*
X-87251Y-48082D01*
X-87266Y-48074D01*
X-87305Y-48044D01*
X-87366Y-47990D01*
X-87450Y-47929D01*
X-87550Y-47852D01*
X-87657Y-47768D01*
X-87779Y-47669D01*
X-87909Y-47562D01*
X-87924Y-47546D01*
X-87970Y-47508D01*
X-88039Y-47455D01*
X-88123Y-47370D01*
X-88230Y-47279D01*
X-88345Y-47171D01*
X-88475Y-47049D01*
X-88605Y-46927D01*
Y-46919D01*
X-88621Y-46911D01*
X-88666Y-46865D01*
X-88735Y-46797D01*
X-88819Y-46705D01*
X-88919Y-46598D01*
X-89034Y-46475D01*
X-89148Y-46345D01*
X-89271Y-46207D01*
Y-46200D01*
X-89286Y-46192D01*
X-89301Y-46169D01*
X-89324Y-46139D01*
X-89385Y-46070D01*
X-89462Y-45970D01*
X-89546Y-45848D01*
X-89638Y-45718D01*
X-89737Y-45573D01*
X-89837Y-45420D01*
Y-45412D01*
X-89845Y-45404D01*
X-89860Y-45381D01*
X-89875Y-45351D01*
X-89921Y-45267D01*
X-89975Y-45160D01*
X-90036Y-45037D01*
X-90105Y-44892D01*
X-90166Y-44739D01*
X-90227Y-44586D01*
Y-44578D01*
X-90235Y-44563D01*
X-90242Y-44540D01*
X-90250Y-44509D01*
X-90273Y-44425D01*
X-90296Y-44318D01*
X-90326Y-44188D01*
X-90349Y-44043D01*
X-90365Y-43890D01*
X-90372Y-43729D01*
Y-43721D01*
Y-43691D01*
Y-43652D01*
X-90365Y-43599D01*
Y-43538D01*
X-90349Y-43469D01*
X-90326Y-43308D01*
Y-43301D01*
X-90319Y-43270D01*
X-90303Y-43224D01*
X-90288Y-43163D01*
X-90273Y-43094D01*
X-90242Y-43018D01*
X-90181Y-42849D01*
X-90174Y-42842D01*
X-90166Y-42811D01*
X-90143Y-42765D01*
X-90112Y-42711D01*
X-90074Y-42643D01*
X-90036Y-42566D01*
X-89929Y-42413D01*
X-89921Y-42406D01*
X-89898Y-42375D01*
X-89868Y-42337D01*
X-89829Y-42283D01*
X-89776Y-42230D01*
X-89714Y-42161D01*
X-89577Y-42038D01*
X-89569Y-42031D01*
X-89539Y-42008D01*
X-89500Y-41985D01*
X-89439Y-41947D01*
X-89370Y-41901D01*
X-89294Y-41862D01*
X-89210Y-41816D01*
X-89118Y-41778D01*
X-89103Y-41770D01*
X-89072Y-41763D01*
X-89018Y-41748D01*
X-88950Y-41725D01*
X-88865Y-41709D01*
X-88766Y-41694D01*
X-88666Y-41686D01*
X-88552Y-41679D01*
X-88506D01*
X-88452Y-41686D01*
D02*
G37*
G36*
X-99269Y-43033D02*
X-99239D01*
X-99231Y-43018D01*
X-99200Y-42979D01*
X-99162Y-42918D01*
X-99093Y-42842D01*
X-99017Y-42750D01*
X-98925Y-42643D01*
X-98810Y-42528D01*
X-98680Y-42413D01*
X-98535Y-42298D01*
X-98374Y-42191D01*
X-98198Y-42084D01*
X-98007Y-41992D01*
X-97800Y-41916D01*
X-97571Y-41855D01*
X-97334Y-41816D01*
X-97081Y-41801D01*
X-97028D01*
X-96982Y-41809D01*
X-96928D01*
X-96875Y-41816D01*
X-96806Y-41832D01*
X-96729Y-41847D01*
X-96554Y-41885D01*
X-96362Y-41947D01*
X-96156Y-42031D01*
X-96049Y-42084D01*
X-95942Y-42145D01*
X-95842Y-42214D01*
X-95735Y-42291D01*
X-95628Y-42375D01*
X-95529Y-42467D01*
X-95429Y-42574D01*
X-95337Y-42689D01*
X-95245Y-42819D01*
X-95161Y-42956D01*
X-95085Y-43109D01*
X-95016Y-43270D01*
X-94955Y-43446D01*
X-94909Y-43637D01*
X-94863Y-43836D01*
X-94832Y-44058D01*
X-94817Y-44287D01*
X-94809Y-44540D01*
Y-48663D01*
X-96240D01*
Y-44823D01*
Y-44815D01*
Y-44800D01*
Y-44777D01*
Y-44739D01*
X-96248Y-44701D01*
Y-44647D01*
X-96263Y-44532D01*
X-96278Y-44387D01*
X-96316Y-44226D01*
X-96355Y-44058D01*
X-96416Y-43882D01*
X-96485Y-43706D01*
X-96576Y-43538D01*
X-96691Y-43377D01*
X-96821Y-43232D01*
X-96982Y-43117D01*
X-97074Y-43063D01*
X-97166Y-43025D01*
X-97273Y-42987D01*
X-97380Y-42964D01*
X-97502Y-42949D01*
X-97625Y-42941D01*
X-97693D01*
X-97739Y-42949D01*
X-97800Y-42956D01*
X-97869Y-42972D01*
X-97953Y-42987D01*
X-98038Y-43010D01*
X-98129Y-43040D01*
X-98221Y-43071D01*
X-98321Y-43117D01*
X-98420Y-43170D01*
X-98520Y-43232D01*
X-98619Y-43308D01*
X-98711Y-43385D01*
X-98803Y-43484D01*
X-98810Y-43492D01*
X-98826Y-43507D01*
X-98849Y-43538D01*
X-98871Y-43584D01*
X-98910Y-43637D01*
X-98948Y-43698D01*
X-98994Y-43775D01*
X-99032Y-43859D01*
X-99078Y-43951D01*
X-99124Y-44058D01*
X-99162Y-44165D01*
X-99193Y-44287D01*
X-99223Y-44425D01*
X-99246Y-44563D01*
X-99262Y-44708D01*
X-99269Y-44861D01*
Y-48663D01*
X-100692D01*
Y-38734D01*
X-99269D01*
Y-43033D01*
D02*
G37*
G36*
X-107485Y-48663D02*
X-108908D01*
Y-41954D01*
X-107485D01*
Y-48663D01*
D02*
G37*
G36*
X-103660Y-41954D02*
X-102031D01*
Y-43086D01*
X-103660D01*
Y-46498D01*
Y-46506D01*
Y-46529D01*
Y-46559D01*
Y-46598D01*
X-103653Y-46651D01*
X-103645Y-46712D01*
X-103630Y-46843D01*
X-103607Y-46988D01*
X-103569Y-47141D01*
X-103515Y-47279D01*
X-103477Y-47347D01*
X-103439Y-47401D01*
X-103431Y-47416D01*
X-103393Y-47447D01*
X-103339Y-47485D01*
X-103263Y-47539D01*
X-103171Y-47592D01*
X-103041Y-47631D01*
X-102895Y-47661D01*
X-102727Y-47676D01*
X-102666D01*
X-102589Y-47661D01*
X-102498Y-47646D01*
X-102391Y-47623D01*
X-102268Y-47585D01*
X-102153Y-47531D01*
X-102031Y-47462D01*
Y-48594D01*
X-102039D01*
X-102046Y-48602D01*
X-102069Y-48617D01*
X-102108Y-48625D01*
X-102146Y-48640D01*
X-102199Y-48663D01*
X-102253Y-48678D01*
X-102322Y-48701D01*
X-102398Y-48724D01*
X-102482Y-48740D01*
X-102574Y-48755D01*
X-102681Y-48778D01*
X-102788Y-48786D01*
X-102911Y-48801D01*
X-103033Y-48809D01*
X-103217D01*
X-103255Y-48801D01*
X-103293D01*
X-103347Y-48793D01*
X-103469Y-48778D01*
X-103614Y-48747D01*
X-103775Y-48701D01*
X-103951Y-48633D01*
X-104127Y-48548D01*
X-104303Y-48441D01*
X-104479Y-48304D01*
X-104563Y-48227D01*
X-104640Y-48135D01*
X-104716Y-48044D01*
X-104785Y-47936D01*
X-104846Y-47822D01*
X-104907Y-47699D01*
X-104961Y-47569D01*
X-104999Y-47424D01*
X-105037Y-47271D01*
X-105060Y-47103D01*
X-105076Y-46927D01*
X-105083Y-46743D01*
Y-43086D01*
X-106216D01*
Y-41954D01*
X-105083D01*
Y-40386D01*
X-103660Y-39957D01*
Y-41954D01*
D02*
G37*
G36*
X-76212Y-43071D02*
X-76182D01*
X-76174Y-43056D01*
X-76143Y-43018D01*
X-76098Y-42956D01*
X-76036Y-42872D01*
X-75952Y-42773D01*
X-75853Y-42666D01*
X-75738Y-42551D01*
X-75608Y-42436D01*
X-75455Y-42314D01*
X-75287Y-42199D01*
X-75095Y-42092D01*
X-74896Y-42000D01*
X-74675Y-41916D01*
X-74437Y-41855D01*
X-74177Y-41816D01*
X-73910Y-41801D01*
X-73856D01*
X-73787Y-41809D01*
X-73695Y-41816D01*
X-73588Y-41832D01*
X-73466Y-41847D01*
X-73328Y-41878D01*
X-73183Y-41916D01*
X-73022Y-41962D01*
X-72861Y-42023D01*
X-72693Y-42092D01*
X-72525Y-42176D01*
X-72357Y-42283D01*
X-72204Y-42398D01*
X-72051Y-42536D01*
X-71905Y-42696D01*
X-71898Y-42704D01*
X-71875Y-42734D01*
X-71836Y-42788D01*
X-71790Y-42857D01*
X-71737Y-42949D01*
X-71676Y-43063D01*
X-71607Y-43186D01*
X-71538Y-43331D01*
X-71469Y-43499D01*
X-71400Y-43683D01*
X-71339Y-43882D01*
X-71286Y-44096D01*
X-71240Y-44326D01*
X-71201Y-44578D01*
X-71179Y-44838D01*
X-71171Y-45121D01*
Y-45129D01*
Y-45136D01*
Y-45160D01*
Y-45198D01*
Y-45236D01*
X-71179Y-45282D01*
X-71186Y-45397D01*
X-71194Y-45542D01*
X-71217Y-45703D01*
X-71240Y-45886D01*
X-71278Y-46085D01*
X-71316Y-46292D01*
X-71377Y-46506D01*
X-71439Y-46735D01*
X-71523Y-46957D01*
X-71615Y-47179D01*
X-71729Y-47401D01*
X-71859Y-47607D01*
X-72005Y-47806D01*
X-72012Y-47814D01*
X-72043Y-47852D01*
X-72089Y-47898D01*
X-72158Y-47967D01*
X-72242Y-48044D01*
X-72341Y-48128D01*
X-72456Y-48219D01*
X-72594Y-48311D01*
X-72739Y-48403D01*
X-72907Y-48495D01*
X-73091Y-48579D01*
X-73282Y-48656D01*
X-73497Y-48724D01*
X-73726Y-48770D01*
X-73963Y-48801D01*
X-74216Y-48816D01*
X-74269D01*
X-74338Y-48809D01*
X-74430Y-48801D01*
X-74537Y-48786D01*
X-74659Y-48763D01*
X-74797Y-48724D01*
X-74950Y-48686D01*
X-75103Y-48625D01*
X-75264Y-48556D01*
X-75432Y-48472D01*
X-75593Y-48373D01*
X-75753Y-48250D01*
X-75906Y-48112D01*
X-76052Y-47944D01*
X-76182Y-47760D01*
X-76212D01*
Y-48663D01*
X-77635D01*
Y-38734D01*
X-76212D01*
Y-43071D01*
D02*
G37*
G36*
X-43325Y-54750D02*
X-46905D01*
Y-53694D01*
X-43325D01*
Y-54750D01*
D02*
G37*
G36*
X-48718D02*
X-52298D01*
Y-53694D01*
X-48718D01*
Y-54750D01*
D02*
G37*
G36*
X-54111Y-54750D02*
X-57692D01*
Y-53694D01*
X-54111D01*
Y-54750D01*
D02*
G37*
G36*
X-59505D02*
X-63085D01*
Y-53694D01*
X-59505D01*
Y-54750D01*
D02*
G37*
G36*
X-64898D02*
X-68478D01*
Y-53694D01*
X-64898D01*
Y-54750D01*
D02*
G37*
G36*
X-70291D02*
X-73871D01*
Y-53694D01*
X-70291D01*
Y-54750D01*
D02*
G37*
G36*
X-75684D02*
X-79265D01*
Y-53694D01*
X-75684D01*
Y-54750D01*
D02*
G37*
G36*
X-81078D02*
X-84658D01*
Y-53694D01*
X-81078D01*
Y-54750D01*
D02*
G37*
G36*
X-86471D02*
X-90051D01*
Y-53694D01*
X-86471D01*
Y-54750D01*
D02*
G37*
G36*
X-91864D02*
X-95444D01*
Y-53694D01*
X-91864D01*
Y-54750D01*
D02*
G37*
G36*
X-97257D02*
X-100838D01*
Y-53694D01*
X-97257D01*
Y-54750D01*
D02*
G37*
G36*
X-102651D02*
X-106231D01*
Y-53694D01*
X-102651D01*
Y-54750D01*
D02*
G37*
G36*
X-108044D02*
X-111624Y-54750D01*
Y-53694D01*
X-108044Y-53694D01*
Y-54750D01*
D02*
G37*
G36*
X-113437Y-54750D02*
X-117017D01*
Y-53694D01*
X-113437D01*
Y-54750D01*
D02*
G37*
G36*
X-118830D02*
X-122411D01*
Y-53694D01*
X-118830D01*
Y-54750D01*
D02*
G37*
G36*
X-124224D02*
X-127804D01*
Y-53694D01*
X-124224D01*
Y-54750D01*
D02*
G37*
G36*
X-129617D02*
X-133197D01*
Y-53694D01*
X-129617D01*
Y-54750D01*
D02*
G37*
G36*
X-135010D02*
X-138590D01*
Y-53694D01*
X-135010D01*
Y-54750D01*
D02*
G37*
G36*
X-134949Y-59818D02*
X-134827D01*
X-134689Y-59826D01*
X-134544Y-59841D01*
X-134383Y-59857D01*
X-134207Y-59872D01*
X-134039Y-59895D01*
X-133679Y-59956D01*
X-133511Y-59994D01*
X-133342Y-60040D01*
X-133189Y-60094D01*
X-133044Y-60155D01*
Y-61647D01*
X-133052Y-61639D01*
X-133082Y-61624D01*
X-133136Y-61593D01*
X-133197Y-61555D01*
X-133281Y-61509D01*
X-133388Y-61456D01*
X-133503Y-61402D01*
X-133641Y-61341D01*
X-133786Y-61287D01*
X-133954Y-61234D01*
X-134130Y-61180D01*
X-134322Y-61134D01*
X-134528Y-61096D01*
X-134742Y-61065D01*
X-134972Y-61050D01*
X-135209Y-61042D01*
X-135285D01*
X-135347Y-61050D01*
X-135416D01*
X-135500Y-61058D01*
X-135591Y-61073D01*
X-135683Y-61081D01*
X-135898Y-61127D01*
X-136119Y-61188D01*
X-136341Y-61264D01*
X-136448Y-61318D01*
X-136548Y-61379D01*
X-136555D01*
X-136571Y-61394D01*
X-136594Y-61417D01*
X-136624Y-61440D01*
X-136708Y-61517D01*
X-136800Y-61616D01*
X-136900Y-61754D01*
X-136976Y-61907D01*
X-137014Y-61999D01*
X-137037Y-62090D01*
X-137053Y-62190D01*
X-137060Y-62297D01*
Y-62305D01*
Y-62320D01*
Y-62351D01*
X-137053Y-62381D01*
X-137045Y-62427D01*
X-137037Y-62481D01*
X-137014Y-62603D01*
X-136969Y-62741D01*
X-136900Y-62886D01*
X-136861Y-62955D01*
X-136808Y-63024D01*
X-136754Y-63093D01*
X-136686Y-63161D01*
X-136678D01*
X-136670Y-63177D01*
X-136640Y-63200D01*
X-136609Y-63223D01*
X-136563Y-63253D01*
X-136502Y-63299D01*
X-136433Y-63345D01*
X-136349Y-63399D01*
X-136249Y-63460D01*
X-136135Y-63529D01*
X-136005Y-63605D01*
X-135859Y-63689D01*
X-135699Y-63774D01*
X-135523Y-63865D01*
X-135324Y-63965D01*
X-135110Y-64072D01*
X-135102D01*
X-135094Y-64079D01*
X-135048Y-64102D01*
X-134979Y-64133D01*
X-134880Y-64187D01*
X-134765Y-64248D01*
X-134635Y-64317D01*
X-134498Y-64393D01*
X-134345Y-64485D01*
X-134184Y-64577D01*
X-134023Y-64684D01*
X-133702Y-64906D01*
X-133549Y-65020D01*
X-133411Y-65143D01*
X-133281Y-65265D01*
X-133174Y-65388D01*
X-133167Y-65395D01*
X-133151Y-65418D01*
X-133128Y-65456D01*
X-133090Y-65502D01*
X-133052Y-65564D01*
X-133006Y-65640D01*
X-132952Y-65724D01*
X-132906Y-65824D01*
X-132853Y-65931D01*
X-132807Y-66045D01*
X-132761Y-66168D01*
X-132723Y-66306D01*
X-132685Y-66443D01*
X-132662Y-66589D01*
X-132646Y-66742D01*
X-132639Y-66902D01*
Y-66918D01*
Y-66956D01*
X-132646Y-67025D01*
X-132654Y-67109D01*
X-132669Y-67216D01*
X-132685Y-67338D01*
X-132715Y-67476D01*
X-132753Y-67621D01*
X-132807Y-67774D01*
X-132868Y-67935D01*
X-132937Y-68096D01*
X-133029Y-68256D01*
X-133136Y-68417D01*
X-133258Y-68570D01*
X-133404Y-68715D01*
X-133564Y-68845D01*
X-133572Y-68853D01*
X-133610Y-68876D01*
X-133656Y-68907D01*
X-133733Y-68953D01*
X-133824Y-68998D01*
X-133939Y-69052D01*
X-134077Y-69113D01*
X-134230Y-69174D01*
X-134398Y-69243D01*
X-134589Y-69297D01*
X-134804Y-69358D01*
X-135025Y-69404D01*
X-135278Y-69450D01*
X-135538Y-69480D01*
X-135821Y-69503D01*
X-136119Y-69511D01*
X-136226D01*
X-136280Y-69503D01*
X-136349D01*
X-136425Y-69496D01*
X-136510D01*
X-136601Y-69488D01*
X-136708Y-69473D01*
X-136930Y-69450D01*
X-137183Y-69411D01*
X-137451Y-69366D01*
X-137458D01*
X-137481Y-69358D01*
X-137519Y-69350D01*
X-137573Y-69343D01*
X-137634Y-69327D01*
X-137703Y-69312D01*
X-137779Y-69289D01*
X-137864Y-69266D01*
X-138047Y-69213D01*
X-138238Y-69144D01*
X-138422Y-69067D01*
X-138506Y-69029D01*
X-138583Y-68983D01*
Y-67415D01*
X-138567Y-67422D01*
X-138537Y-67453D01*
X-138476Y-67499D01*
X-138391Y-67553D01*
X-138284Y-67621D01*
X-138162Y-67690D01*
X-138024Y-67774D01*
X-137856Y-67851D01*
X-137680Y-67935D01*
X-137489Y-68019D01*
X-137275Y-68088D01*
X-137053Y-68157D01*
X-136816Y-68211D01*
X-136563Y-68256D01*
X-136303Y-68287D01*
X-136035Y-68295D01*
X-135951D01*
X-135913Y-68287D01*
X-135859D01*
X-135745Y-68272D01*
X-135599Y-68256D01*
X-135446Y-68226D01*
X-135278Y-68187D01*
X-135102Y-68134D01*
X-134926Y-68065D01*
X-134758Y-67981D01*
X-134605Y-67882D01*
X-134459Y-67759D01*
X-134337Y-67606D01*
X-134291Y-67530D01*
X-134245Y-67438D01*
X-134214Y-67346D01*
X-134192Y-67239D01*
X-134176Y-67132D01*
X-134169Y-67017D01*
Y-67009D01*
Y-67002D01*
Y-66956D01*
X-134176Y-66879D01*
X-134192Y-66795D01*
X-134222Y-66688D01*
X-134253Y-66581D01*
X-134306Y-66466D01*
X-134375Y-66351D01*
X-134383Y-66336D01*
X-134413Y-66298D01*
X-134459Y-66244D01*
X-134520Y-66176D01*
X-134605Y-66091D01*
X-134696Y-66007D01*
X-134811Y-65916D01*
X-134934Y-65831D01*
X-134941D01*
X-134949Y-65824D01*
X-134972Y-65808D01*
X-135003Y-65785D01*
X-135048Y-65763D01*
X-135094Y-65732D01*
X-135163Y-65701D01*
X-135232Y-65655D01*
X-135324Y-65610D01*
X-135423Y-65556D01*
X-135530Y-65502D01*
X-135660Y-65434D01*
X-135798Y-65365D01*
X-135951Y-65288D01*
X-136127Y-65204D01*
X-136311Y-65112D01*
X-136326Y-65105D01*
X-136364Y-65082D01*
X-136433Y-65051D01*
X-136517Y-65005D01*
X-136617Y-64952D01*
X-136739Y-64890D01*
X-136869Y-64814D01*
X-137007Y-64730D01*
X-137305Y-64546D01*
X-137596Y-64340D01*
X-137733Y-64232D01*
X-137864Y-64118D01*
X-137978Y-64003D01*
X-138085Y-63888D01*
X-138093Y-63881D01*
X-138108Y-63858D01*
X-138131Y-63827D01*
X-138162Y-63774D01*
X-138200Y-63720D01*
X-138246Y-63643D01*
X-138292Y-63559D01*
X-138338Y-63468D01*
X-138384Y-63368D01*
X-138430Y-63253D01*
X-138476Y-63131D01*
X-138514Y-63001D01*
X-138544Y-62871D01*
X-138567Y-62725D01*
X-138583Y-62572D01*
X-138590Y-62419D01*
Y-62404D01*
Y-62366D01*
X-138583Y-62305D01*
X-138575Y-62221D01*
X-138560Y-62113D01*
X-138537Y-61999D01*
X-138514Y-61869D01*
X-138468Y-61723D01*
X-138422Y-61570D01*
X-138353Y-61417D01*
X-138277Y-61257D01*
X-138185Y-61096D01*
X-138078Y-60943D01*
X-137948Y-60790D01*
X-137802Y-60645D01*
X-137634Y-60507D01*
X-137626Y-60499D01*
X-137588Y-60476D01*
X-137535Y-60446D01*
X-137458Y-60400D01*
X-137366Y-60346D01*
X-137252Y-60285D01*
X-137114Y-60224D01*
X-136969Y-60155D01*
X-136800Y-60094D01*
X-136609Y-60033D01*
X-136410Y-59971D01*
X-136188Y-59918D01*
X-135959Y-59872D01*
X-135714Y-59841D01*
X-135454Y-59818D01*
X-135178Y-59811D01*
X-135041D01*
X-134949Y-59818D01*
D02*
G37*
G36*
X-120116Y-62504D02*
X-120024Y-62511D01*
X-119917Y-62527D01*
X-119794Y-62542D01*
X-119657Y-62572D01*
X-119504Y-62611D01*
X-119343Y-62657D01*
X-119182Y-62718D01*
X-119014Y-62787D01*
X-118846Y-62871D01*
X-118677Y-62978D01*
X-118517Y-63093D01*
X-118364Y-63230D01*
X-118218Y-63391D01*
X-118211Y-63399D01*
X-118188Y-63429D01*
X-118149Y-63483D01*
X-118104Y-63552D01*
X-118050Y-63643D01*
X-117989Y-63758D01*
X-117920Y-63881D01*
X-117851Y-64026D01*
X-117782Y-64194D01*
X-117713Y-64378D01*
X-117652Y-64577D01*
X-117599Y-64791D01*
X-117553Y-65020D01*
X-117515Y-65273D01*
X-117492Y-65533D01*
X-117484Y-65816D01*
Y-65824D01*
Y-65831D01*
Y-65854D01*
Y-65892D01*
Y-65931D01*
X-117492Y-65977D01*
X-117499Y-66091D01*
X-117507Y-66237D01*
X-117530Y-66397D01*
X-117553Y-66581D01*
X-117591Y-66780D01*
X-117629Y-66987D01*
X-117691Y-67208D01*
X-117752Y-67430D01*
X-117836Y-67652D01*
X-117928Y-67882D01*
X-118042Y-68096D01*
X-118173Y-68302D01*
X-118318Y-68501D01*
X-118325Y-68509D01*
X-118356Y-68547D01*
X-118402Y-68593D01*
X-118471Y-68662D01*
X-118555Y-68738D01*
X-118654Y-68822D01*
X-118777Y-68914D01*
X-118907Y-69006D01*
X-119060Y-69098D01*
X-119228Y-69190D01*
X-119412Y-69274D01*
X-119611Y-69350D01*
X-119825Y-69419D01*
X-120047Y-69465D01*
X-120291Y-69496D01*
X-120544Y-69511D01*
X-120598D01*
X-120666Y-69503D01*
X-120750Y-69496D01*
X-120858Y-69480D01*
X-120980Y-69457D01*
X-121118Y-69419D01*
X-121263Y-69381D01*
X-121424Y-69320D01*
X-121584Y-69251D01*
X-121745Y-69167D01*
X-121906Y-69067D01*
X-122066Y-68945D01*
X-122219Y-68807D01*
X-122365Y-68639D01*
X-122495Y-68455D01*
X-122525D01*
Y-72441D01*
X-123948D01*
Y-62649D01*
X-122525D01*
Y-63766D01*
X-122495D01*
X-122487Y-63750D01*
X-122457Y-63712D01*
X-122411Y-63651D01*
X-122349Y-63567D01*
X-122265Y-63468D01*
X-122173Y-63360D01*
X-122051Y-63246D01*
X-121921Y-63131D01*
X-121768Y-63008D01*
X-121600Y-62894D01*
X-121416Y-62787D01*
X-121210Y-62695D01*
X-120995Y-62611D01*
X-120758Y-62550D01*
X-120506Y-62511D01*
X-120238Y-62496D01*
X-120184D01*
X-120116Y-62504D01*
D02*
G37*
G36*
X-71699Y-68172D02*
X-69648D01*
Y-69358D01*
X-75179D01*
Y-68172D01*
X-73129D01*
Y-61387D01*
X-75241Y-61953D01*
Y-60706D01*
X-71699Y-59780D01*
Y-68172D01*
D02*
G37*
G36*
X-79831Y-59818D02*
X-79739D01*
X-79632Y-59834D01*
X-79502Y-59849D01*
X-79364Y-59872D01*
X-79211Y-59895D01*
X-79050Y-59933D01*
X-78882Y-59979D01*
X-78714Y-60033D01*
X-78538Y-60101D01*
X-78369Y-60178D01*
X-78201Y-60270D01*
X-78041Y-60377D01*
X-77895Y-60499D01*
X-77888Y-60507D01*
X-77865Y-60530D01*
X-77826Y-60568D01*
X-77773Y-60622D01*
X-77719Y-60698D01*
X-77650Y-60782D01*
X-77582Y-60882D01*
X-77513Y-60989D01*
X-77444Y-61119D01*
X-77375Y-61264D01*
X-77306Y-61417D01*
X-77253Y-61586D01*
X-77199Y-61761D01*
X-77161Y-61960D01*
X-77138Y-62159D01*
X-77130Y-62381D01*
Y-62389D01*
Y-62419D01*
Y-62465D01*
X-77138Y-62527D01*
X-77145Y-62603D01*
X-77153Y-62695D01*
X-77169Y-62802D01*
X-77191Y-62917D01*
X-77214Y-63039D01*
X-77245Y-63177D01*
X-77283Y-63314D01*
X-77337Y-63468D01*
X-77390Y-63621D01*
X-77451Y-63774D01*
X-77528Y-63934D01*
X-77612Y-64095D01*
X-77620Y-64102D01*
X-77635Y-64133D01*
X-77666Y-64179D01*
X-77704Y-64248D01*
X-77758Y-64324D01*
X-77826Y-64424D01*
X-77911Y-64539D01*
X-78002Y-64661D01*
X-78109Y-64806D01*
X-78240Y-64959D01*
X-78377Y-65127D01*
X-78530Y-65303D01*
X-78698Y-65487D01*
X-78882Y-65686D01*
X-79081Y-65892D01*
X-79303Y-66107D01*
X-81391Y-68103D01*
Y-68134D01*
X-77214D01*
Y-69358D01*
X-83059D01*
Y-68172D01*
X-80336Y-65495D01*
X-80328Y-65487D01*
X-80297Y-65456D01*
X-80251Y-65411D01*
X-80183Y-65342D01*
X-80114Y-65265D01*
X-80022Y-65173D01*
X-79930Y-65074D01*
X-79823Y-64967D01*
X-79609Y-64722D01*
X-79387Y-64462D01*
X-79180Y-64202D01*
X-79081Y-64072D01*
X-78997Y-63949D01*
X-78989Y-63942D01*
X-78982Y-63919D01*
X-78959Y-63881D01*
X-78928Y-63835D01*
X-78897Y-63774D01*
X-78859Y-63705D01*
X-78821Y-63621D01*
X-78775Y-63529D01*
X-78737Y-63429D01*
X-78698Y-63314D01*
X-78630Y-63077D01*
X-78599Y-62947D01*
X-78576Y-62817D01*
X-78568Y-62679D01*
X-78561Y-62534D01*
Y-62527D01*
Y-62519D01*
Y-62496D01*
Y-62465D01*
X-78568Y-62389D01*
X-78584Y-62289D01*
X-78614Y-62175D01*
X-78645Y-62045D01*
X-78698Y-61899D01*
X-78767Y-61754D01*
X-78851Y-61616D01*
X-78959Y-61471D01*
X-79096Y-61341D01*
X-79257Y-61226D01*
X-79341Y-61172D01*
X-79440Y-61127D01*
X-79548Y-61081D01*
X-79662Y-61050D01*
X-79785Y-61019D01*
X-79915Y-60997D01*
X-80053Y-60989D01*
X-80206Y-60981D01*
X-80259D01*
X-80328Y-60989D01*
X-80420Y-60997D01*
X-80527Y-61012D01*
X-80657Y-61035D01*
X-80802Y-61065D01*
X-80971Y-61111D01*
X-81147Y-61165D01*
X-81330Y-61234D01*
X-81529Y-61318D01*
X-81735Y-61417D01*
X-81942Y-61532D01*
X-82156Y-61670D01*
X-82371Y-61830D01*
X-82585Y-62014D01*
Y-60645D01*
X-82569Y-60637D01*
X-82531Y-60606D01*
X-82470Y-60568D01*
X-82378Y-60515D01*
X-82271Y-60453D01*
X-82141Y-60377D01*
X-81996Y-60308D01*
X-81827Y-60224D01*
X-81636Y-60147D01*
X-81437Y-60071D01*
X-81223Y-60002D01*
X-80993Y-59941D01*
X-80749Y-59887D01*
X-80489Y-59849D01*
X-80229Y-59818D01*
X-79953Y-59811D01*
X-79900D01*
X-79831Y-59818D01*
D02*
G37*
G36*
X-94626D02*
X-94534D01*
X-94427Y-59834D01*
X-94297Y-59849D01*
X-94159Y-59872D01*
X-94006Y-59895D01*
X-93845Y-59933D01*
X-93677Y-59979D01*
X-93509Y-60033D01*
X-93333Y-60101D01*
X-93165Y-60178D01*
X-92996Y-60270D01*
X-92836Y-60377D01*
X-92690Y-60499D01*
X-92683Y-60507D01*
X-92660Y-60530D01*
X-92621Y-60568D01*
X-92568Y-60622D01*
X-92514Y-60698D01*
X-92445Y-60782D01*
X-92377Y-60882D01*
X-92308Y-60989D01*
X-92239Y-61119D01*
X-92170Y-61264D01*
X-92101Y-61417D01*
X-92048Y-61586D01*
X-91994Y-61761D01*
X-91956Y-61960D01*
X-91933Y-62159D01*
X-91925Y-62381D01*
Y-62389D01*
Y-62419D01*
Y-62465D01*
X-91933Y-62527D01*
X-91941Y-62603D01*
X-91948Y-62695D01*
X-91964Y-62802D01*
X-91987Y-62917D01*
X-92010Y-63039D01*
X-92040Y-63177D01*
X-92078Y-63314D01*
X-92132Y-63468D01*
X-92185Y-63621D01*
X-92247Y-63774D01*
X-92323Y-63934D01*
X-92407Y-64095D01*
X-92415Y-64102D01*
X-92430Y-64133D01*
X-92461Y-64179D01*
X-92499Y-64248D01*
X-92553Y-64324D01*
X-92621Y-64424D01*
X-92706Y-64539D01*
X-92797Y-64661D01*
X-92905Y-64806D01*
X-93035Y-64959D01*
X-93172Y-65127D01*
X-93325Y-65303D01*
X-93494Y-65487D01*
X-93677Y-65686D01*
X-93876Y-65892D01*
X-94098Y-66107D01*
X-96186Y-68103D01*
Y-68134D01*
X-92010D01*
Y-69358D01*
X-97854D01*
Y-68172D01*
X-95131Y-65495D01*
X-95123Y-65487D01*
X-95092Y-65456D01*
X-95047Y-65411D01*
X-94978Y-65342D01*
X-94909Y-65265D01*
X-94817Y-65173D01*
X-94725Y-65074D01*
X-94618Y-64967D01*
X-94404Y-64722D01*
X-94182Y-64462D01*
X-93976Y-64202D01*
X-93876Y-64072D01*
X-93792Y-63949D01*
X-93784Y-63942D01*
X-93777Y-63919D01*
X-93754Y-63881D01*
X-93723Y-63835D01*
X-93692Y-63774D01*
X-93654Y-63705D01*
X-93616Y-63621D01*
X-93570Y-63529D01*
X-93532Y-63429D01*
X-93494Y-63314D01*
X-93425Y-63077D01*
X-93394Y-62947D01*
X-93371Y-62817D01*
X-93363Y-62679D01*
X-93356Y-62534D01*
Y-62527D01*
Y-62519D01*
Y-62496D01*
Y-62465D01*
X-93363Y-62389D01*
X-93379Y-62289D01*
X-93409Y-62175D01*
X-93440Y-62045D01*
X-93494Y-61899D01*
X-93562Y-61754D01*
X-93647Y-61616D01*
X-93754Y-61471D01*
X-93891Y-61341D01*
X-94052Y-61226D01*
X-94136Y-61172D01*
X-94236Y-61127D01*
X-94343Y-61081D01*
X-94458Y-61050D01*
X-94580Y-61019D01*
X-94710Y-60997D01*
X-94848Y-60989D01*
X-95001Y-60981D01*
X-95054D01*
X-95123Y-60989D01*
X-95215Y-60997D01*
X-95322Y-61012D01*
X-95452Y-61035D01*
X-95597Y-61065D01*
X-95766Y-61111D01*
X-95942Y-61165D01*
X-96125Y-61234D01*
X-96324Y-61318D01*
X-96531Y-61417D01*
X-96737Y-61532D01*
X-96951Y-61670D01*
X-97166Y-61830D01*
X-97380Y-62014D01*
Y-60645D01*
X-97364Y-60637D01*
X-97326Y-60606D01*
X-97265Y-60568D01*
X-97173Y-60515D01*
X-97066Y-60453D01*
X-96936Y-60377D01*
X-96791Y-60308D01*
X-96622Y-60224D01*
X-96431Y-60147D01*
X-96232Y-60071D01*
X-96018Y-60002D01*
X-95789Y-59941D01*
X-95544Y-59887D01*
X-95284Y-59849D01*
X-95024Y-59818D01*
X-94748Y-59811D01*
X-94695D01*
X-94626Y-59818D01*
D02*
G37*
G36*
X-103217Y-65961D02*
X-102039D01*
Y-67048D01*
X-103217D01*
Y-69358D01*
X-104563D01*
Y-67048D01*
X-108870D01*
Y-66122D01*
X-104770Y-59964D01*
X-103217D01*
Y-65961D01*
D02*
G37*
G36*
X-114087Y-62649D02*
X-112458D01*
Y-63781D01*
X-114087D01*
Y-67193D01*
Y-67201D01*
Y-67224D01*
Y-67254D01*
Y-67292D01*
X-114080Y-67346D01*
X-114072Y-67407D01*
X-114057Y-67537D01*
X-114034Y-67683D01*
X-113996Y-67836D01*
X-113942Y-67973D01*
X-113904Y-68042D01*
X-113865Y-68096D01*
X-113858Y-68111D01*
X-113820Y-68142D01*
X-113766Y-68180D01*
X-113690Y-68233D01*
X-113598Y-68287D01*
X-113468Y-68325D01*
X-113322Y-68356D01*
X-113154Y-68371D01*
X-113093D01*
X-113016Y-68356D01*
X-112925Y-68340D01*
X-112818Y-68318D01*
X-112695Y-68279D01*
X-112580Y-68226D01*
X-112458Y-68157D01*
Y-69289D01*
X-112466D01*
X-112473Y-69297D01*
X-112496Y-69312D01*
X-112534Y-69320D01*
X-112573Y-69335D01*
X-112626Y-69358D01*
X-112680Y-69373D01*
X-112749Y-69396D01*
X-112825Y-69419D01*
X-112909Y-69434D01*
X-113001Y-69450D01*
X-113108Y-69473D01*
X-113215Y-69480D01*
X-113338Y-69496D01*
X-113460Y-69503D01*
X-113644D01*
X-113682Y-69496D01*
X-113720D01*
X-113774Y-69488D01*
X-113896Y-69473D01*
X-114041Y-69442D01*
X-114202Y-69396D01*
X-114378Y-69327D01*
X-114554Y-69243D01*
X-114730Y-69136D01*
X-114906Y-68998D01*
X-114990Y-68922D01*
X-115067Y-68830D01*
X-115143Y-68738D01*
X-115212Y-68631D01*
X-115273Y-68516D01*
X-115334Y-68394D01*
X-115388Y-68264D01*
X-115426Y-68119D01*
X-115464Y-67966D01*
X-115487Y-67797D01*
X-115503Y-67621D01*
X-115510Y-67438D01*
Y-63781D01*
X-116642D01*
Y-62649D01*
X-115510D01*
Y-61081D01*
X-114087Y-60652D01*
Y-62649D01*
D02*
G37*
G36*
X-87159Y-59818D02*
X-87090Y-59826D01*
X-87006Y-59841D01*
X-86915Y-59864D01*
X-86808Y-59887D01*
X-86700Y-59918D01*
X-86578Y-59956D01*
X-86456Y-60002D01*
X-86318Y-60063D01*
X-86188Y-60132D01*
X-86042Y-60216D01*
X-85905Y-60308D01*
X-85759Y-60408D01*
X-85614Y-60530D01*
X-85476Y-60668D01*
X-85331Y-60813D01*
X-85201Y-60981D01*
X-85063Y-61165D01*
X-84941Y-61371D01*
X-84819Y-61593D01*
X-84704Y-61838D01*
X-84604Y-62098D01*
X-84513Y-62389D01*
X-84428Y-62695D01*
X-84360Y-63031D01*
X-84306Y-63383D01*
X-84260Y-63766D01*
X-84237Y-64179D01*
X-84229Y-64615D01*
Y-64623D01*
Y-64638D01*
Y-64676D01*
Y-64722D01*
Y-64776D01*
X-84237Y-64837D01*
Y-64913D01*
X-84245Y-65005D01*
Y-65097D01*
X-84252Y-65196D01*
X-84275Y-65426D01*
X-84298Y-65678D01*
X-84337Y-65954D01*
X-84382Y-66237D01*
X-84436Y-66535D01*
X-84505Y-66834D01*
X-84581Y-67140D01*
X-84681Y-67438D01*
X-84795Y-67721D01*
X-84926Y-67989D01*
X-85071Y-68241D01*
X-85079Y-68256D01*
X-85109Y-68295D01*
X-85155Y-68356D01*
X-85224Y-68440D01*
X-85316Y-68532D01*
X-85415Y-68639D01*
X-85545Y-68754D01*
X-85683Y-68876D01*
X-85844Y-68991D01*
X-86027Y-69105D01*
X-86226Y-69213D01*
X-86440Y-69312D01*
X-86677Y-69396D01*
X-86930Y-69457D01*
X-87198Y-69496D01*
X-87488Y-69511D01*
X-87557D01*
X-87634Y-69503D01*
X-87741Y-69496D01*
X-87871Y-69473D01*
X-88016Y-69450D01*
X-88177Y-69411D01*
X-88353Y-69358D01*
X-88544Y-69297D01*
X-88735Y-69220D01*
X-88927Y-69121D01*
X-89118Y-69006D01*
X-89309Y-68868D01*
X-89485Y-68708D01*
X-89661Y-68524D01*
X-89814Y-68318D01*
X-89822Y-68302D01*
X-89845Y-68264D01*
X-89883Y-68195D01*
X-89936Y-68096D01*
X-89998Y-67966D01*
X-90059Y-67820D01*
X-90128Y-67637D01*
X-90204Y-67430D01*
X-90273Y-67201D01*
X-90349Y-66941D01*
X-90411Y-66658D01*
X-90472Y-66344D01*
X-90525Y-66007D01*
X-90564Y-65648D01*
X-90587Y-65258D01*
X-90594Y-64845D01*
Y-64837D01*
Y-64814D01*
Y-64783D01*
Y-64737D01*
Y-64676D01*
X-90587Y-64607D01*
Y-64523D01*
X-90579Y-64439D01*
X-90571Y-64340D01*
Y-64232D01*
X-90556Y-64118D01*
X-90548Y-63995D01*
X-90525Y-63728D01*
X-90487Y-63445D01*
X-90441Y-63146D01*
X-90388Y-62840D01*
X-90319Y-62527D01*
X-90235Y-62213D01*
X-90135Y-61907D01*
X-90028Y-61616D01*
X-89898Y-61341D01*
X-89745Y-61088D01*
X-89737Y-61073D01*
X-89707Y-61035D01*
X-89653Y-60974D01*
X-89584Y-60889D01*
X-89500Y-60790D01*
X-89393Y-60683D01*
X-89263Y-60568D01*
X-89118Y-60446D01*
X-88957Y-60331D01*
X-88774Y-60216D01*
X-88567Y-60109D01*
X-88353Y-60010D01*
X-88116Y-59926D01*
X-87855Y-59864D01*
X-87580Y-59826D01*
X-87289Y-59811D01*
X-87213D01*
X-87159Y-59818D01*
D02*
G37*
G36*
X-128179Y-62504D02*
X-128087Y-62511D01*
X-127972Y-62519D01*
X-127834Y-62542D01*
X-127689Y-62565D01*
X-127536Y-62603D01*
X-127368Y-62649D01*
X-127192Y-62703D01*
X-127016Y-62771D01*
X-126840Y-62855D01*
X-126672Y-62955D01*
X-126503Y-63070D01*
X-126343Y-63200D01*
X-126197Y-63353D01*
X-126190Y-63360D01*
X-126167Y-63391D01*
X-126128Y-63445D01*
X-126075Y-63513D01*
X-126021Y-63598D01*
X-125960Y-63705D01*
X-125891Y-63827D01*
X-125815Y-63972D01*
X-125746Y-64125D01*
X-125677Y-64309D01*
X-125616Y-64500D01*
X-125555Y-64714D01*
X-125509Y-64936D01*
X-125471Y-65181D01*
X-125448Y-65441D01*
X-125440Y-65717D01*
Y-66390D01*
X-130045D01*
Y-66397D01*
Y-66413D01*
X-130038Y-66443D01*
Y-66474D01*
X-130030Y-66520D01*
X-130022Y-66581D01*
X-129999Y-66711D01*
X-129961Y-66864D01*
X-129915Y-67032D01*
X-129839Y-67216D01*
X-129755Y-67407D01*
X-129640Y-67598D01*
X-129502Y-67782D01*
X-129418Y-67866D01*
X-129334Y-67950D01*
X-129234Y-68034D01*
X-129135Y-68103D01*
X-129020Y-68172D01*
X-128905Y-68233D01*
X-128775Y-68295D01*
X-128638Y-68340D01*
X-128485Y-68371D01*
X-128332Y-68402D01*
X-128156Y-68417D01*
X-127980Y-68425D01*
X-127926D01*
X-127873Y-68417D01*
X-127788D01*
X-127689Y-68402D01*
X-127574Y-68386D01*
X-127452Y-68371D01*
X-127307Y-68340D01*
X-127154Y-68302D01*
X-126993Y-68256D01*
X-126825Y-68203D01*
X-126649Y-68142D01*
X-126473Y-68065D01*
X-126297Y-67973D01*
X-126121Y-67866D01*
X-125945Y-67751D01*
Y-68930D01*
X-125952Y-68937D01*
X-125983Y-68953D01*
X-126037Y-68983D01*
X-126105Y-69021D01*
X-126197Y-69067D01*
X-126304Y-69113D01*
X-126435Y-69167D01*
X-126580Y-69220D01*
X-126741Y-69274D01*
X-126916Y-69327D01*
X-127115Y-69373D01*
X-127322Y-69419D01*
X-127551Y-69457D01*
X-127788Y-69488D01*
X-128041Y-69503D01*
X-128309Y-69511D01*
X-128378D01*
X-128454Y-69503D01*
X-128553Y-69496D01*
X-128684Y-69480D01*
X-128821Y-69465D01*
X-128982Y-69434D01*
X-129158Y-69396D01*
X-129341Y-69350D01*
X-129533Y-69289D01*
X-129724Y-69220D01*
X-129923Y-69129D01*
X-130114Y-69029D01*
X-130298Y-68907D01*
X-130474Y-68769D01*
X-130642Y-68608D01*
X-130650Y-68601D01*
X-130680Y-68562D01*
X-130719Y-68516D01*
X-130772Y-68440D01*
X-130833Y-68348D01*
X-130910Y-68233D01*
X-130986Y-68103D01*
X-131063Y-67950D01*
X-131139Y-67774D01*
X-131216Y-67583D01*
X-131285Y-67377D01*
X-131353Y-67147D01*
X-131407Y-66902D01*
X-131445Y-66642D01*
X-131476Y-66359D01*
X-131483Y-66061D01*
Y-66053D01*
Y-66045D01*
Y-66023D01*
Y-65992D01*
X-131476Y-65908D01*
X-131468Y-65801D01*
X-131453Y-65671D01*
X-131438Y-65518D01*
X-131407Y-65342D01*
X-131369Y-65158D01*
X-131323Y-64959D01*
X-131262Y-64753D01*
X-131193Y-64539D01*
X-131101Y-64324D01*
X-131001Y-64110D01*
X-130879Y-63903D01*
X-130741Y-63697D01*
X-130581Y-63506D01*
X-130573Y-63490D01*
X-130543Y-63460D01*
X-130489Y-63414D01*
X-130420Y-63345D01*
X-130328Y-63269D01*
X-130221Y-63184D01*
X-130099Y-63093D01*
X-129954Y-63001D01*
X-129800Y-62909D01*
X-129624Y-62817D01*
X-129441Y-62733D01*
X-129234Y-62657D01*
X-129020Y-62588D01*
X-128798Y-62542D01*
X-128561Y-62504D01*
X-128309Y-62496D01*
X-128247D01*
X-128179Y-62504D01*
D02*
G37*
%LPC*%
G36*
X-74361Y-42941D02*
X-74437D01*
X-74491Y-42949D01*
X-74560Y-42956D01*
X-74644Y-42972D01*
X-74728Y-42987D01*
X-74828Y-43010D01*
X-74935Y-43040D01*
X-75042Y-43086D01*
X-75149Y-43132D01*
X-75264Y-43186D01*
X-75371Y-43255D01*
X-75485Y-43331D01*
X-75593Y-43423D01*
X-75692Y-43522D01*
X-75700Y-43530D01*
X-75715Y-43545D01*
X-75738Y-43584D01*
X-75776Y-43630D01*
X-75814Y-43683D01*
X-75860Y-43752D01*
X-75906Y-43836D01*
X-75952Y-43920D01*
X-76006Y-44027D01*
X-76052Y-44142D01*
X-76098Y-44264D01*
X-76136Y-44394D01*
X-76174Y-44532D01*
X-76197Y-44685D01*
X-76212Y-44846D01*
X-76220Y-45014D01*
Y-45863D01*
Y-45871D01*
Y-45894D01*
Y-45940D01*
X-76212Y-45993D01*
X-76205Y-46055D01*
X-76197Y-46131D01*
X-76182Y-46215D01*
X-76159Y-46315D01*
X-76098Y-46514D01*
X-76059Y-46621D01*
X-76013Y-46728D01*
X-75960Y-46843D01*
X-75891Y-46950D01*
X-75814Y-47057D01*
X-75730Y-47156D01*
X-75723Y-47164D01*
X-75707Y-47179D01*
X-75677Y-47202D01*
X-75639Y-47240D01*
X-75593Y-47279D01*
X-75539Y-47324D01*
X-75470Y-47370D01*
X-75394Y-47416D01*
X-75309Y-47470D01*
X-75218Y-47516D01*
X-75118Y-47562D01*
X-75003Y-47600D01*
X-74889Y-47638D01*
X-74766Y-47661D01*
X-74644Y-47676D01*
X-74506Y-47684D01*
X-74468D01*
X-74422Y-47676D01*
X-74361D01*
X-74284Y-47661D01*
X-74200Y-47646D01*
X-74101Y-47631D01*
X-74001Y-47600D01*
X-73894Y-47562D01*
X-73779Y-47516D01*
X-73665Y-47462D01*
X-73550Y-47393D01*
X-73435Y-47317D01*
X-73328Y-47225D01*
X-73229Y-47126D01*
X-73129Y-47003D01*
X-73122Y-46995D01*
X-73106Y-46973D01*
X-73083Y-46934D01*
X-73053Y-46881D01*
X-73014Y-46812D01*
X-72969Y-46720D01*
X-72930Y-46628D01*
X-72877Y-46514D01*
X-72831Y-46384D01*
X-72793Y-46246D01*
X-72747Y-46085D01*
X-72708Y-45917D01*
X-72678Y-45733D01*
X-72655Y-45542D01*
X-72640Y-45335D01*
X-72632Y-45114D01*
Y-45098D01*
Y-45068D01*
Y-45014D01*
X-72640Y-44945D01*
X-72647Y-44861D01*
X-72655Y-44762D01*
X-72670Y-44655D01*
X-72693Y-44532D01*
X-72747Y-44280D01*
X-72785Y-44142D01*
X-72831Y-44012D01*
X-72885Y-43882D01*
X-72946Y-43752D01*
X-73014Y-43637D01*
X-73099Y-43522D01*
X-73106Y-43515D01*
X-73122Y-43499D01*
X-73145Y-43469D01*
X-73183Y-43431D01*
X-73229Y-43385D01*
X-73290Y-43339D01*
X-73351Y-43285D01*
X-73428Y-43232D01*
X-73519Y-43178D01*
X-73611Y-43125D01*
X-73718Y-43079D01*
X-73825Y-43033D01*
X-73948Y-42994D01*
X-74078Y-42964D01*
X-74216Y-42949D01*
X-74361Y-42941D01*
D02*
G37*
G36*
X-120674Y-63636D02*
X-120750D01*
X-120812Y-63643D01*
X-120881Y-63651D01*
X-120957Y-63666D01*
X-121049Y-63689D01*
X-121148Y-63712D01*
X-121255Y-63743D01*
X-121362Y-63781D01*
X-121470Y-63827D01*
X-121584Y-63888D01*
X-121699Y-63957D01*
X-121806Y-64034D01*
X-121913Y-64125D01*
X-122013Y-64232D01*
X-122020Y-64240D01*
X-122036Y-64263D01*
X-122059Y-64294D01*
X-122097Y-64340D01*
X-122135Y-64393D01*
X-122173Y-64470D01*
X-122227Y-64546D01*
X-122273Y-64638D01*
X-122319Y-64745D01*
X-122365Y-64860D01*
X-122411Y-64982D01*
X-122449Y-65112D01*
X-122487Y-65258D01*
X-122510Y-65403D01*
X-122525Y-65564D01*
X-122533Y-65732D01*
Y-66535D01*
Y-66543D01*
Y-66566D01*
Y-66612D01*
X-122525Y-66665D01*
X-122518Y-66734D01*
X-122510Y-66811D01*
X-122495Y-66895D01*
X-122472Y-66994D01*
X-122418Y-67201D01*
X-122372Y-67308D01*
X-122326Y-67422D01*
X-122273Y-67530D01*
X-122212Y-67637D01*
X-122135Y-67751D01*
X-122051Y-67851D01*
X-122043Y-67859D01*
X-122028Y-67874D01*
X-121997Y-67897D01*
X-121959Y-67935D01*
X-121913Y-67973D01*
X-121860Y-68019D01*
X-121791Y-68065D01*
X-121714Y-68111D01*
X-121630Y-68165D01*
X-121538Y-68211D01*
X-121431Y-68256D01*
X-121324Y-68295D01*
X-121210Y-68333D01*
X-121087Y-68356D01*
X-120957Y-68371D01*
X-120819Y-68379D01*
X-120781D01*
X-120735Y-68371D01*
X-120674D01*
X-120598Y-68356D01*
X-120513Y-68340D01*
X-120414Y-68325D01*
X-120315Y-68295D01*
X-120207Y-68256D01*
X-120093Y-68211D01*
X-119978Y-68157D01*
X-119863Y-68088D01*
X-119748Y-68012D01*
X-119641Y-67920D01*
X-119542Y-67820D01*
X-119442Y-67698D01*
X-119435Y-67690D01*
X-119419Y-67667D01*
X-119396Y-67629D01*
X-119366Y-67576D01*
X-119328Y-67507D01*
X-119282Y-67415D01*
X-119244Y-67323D01*
X-119190Y-67208D01*
X-119144Y-67078D01*
X-119106Y-66941D01*
X-119060Y-66780D01*
X-119022Y-66612D01*
X-118991Y-66428D01*
X-118968Y-66237D01*
X-118953Y-66030D01*
X-118945Y-65808D01*
Y-65793D01*
Y-65763D01*
Y-65709D01*
X-118953Y-65640D01*
X-118960Y-65548D01*
X-118968Y-65449D01*
X-118983Y-65334D01*
X-118999Y-65219D01*
X-119060Y-64959D01*
X-119090Y-64821D01*
X-119136Y-64692D01*
X-119190Y-64561D01*
X-119251Y-64431D01*
X-119320Y-64317D01*
X-119404Y-64202D01*
X-119412Y-64194D01*
X-119427Y-64179D01*
X-119450Y-64148D01*
X-119488Y-64110D01*
X-119534Y-64072D01*
X-119588Y-64026D01*
X-119657Y-63972D01*
X-119733Y-63919D01*
X-119817Y-63865D01*
X-119909Y-63812D01*
X-120016Y-63766D01*
X-120131Y-63728D01*
X-120253Y-63689D01*
X-120383Y-63659D01*
X-120521Y-63643D01*
X-120674Y-63636D01*
D02*
G37*
G36*
X-104540Y-61333D02*
X-104563D01*
Y-61341D01*
X-104571Y-61348D01*
X-104578Y-61371D01*
X-104594Y-61394D01*
X-104624Y-61471D01*
X-104663Y-61570D01*
X-104716Y-61677D01*
X-104777Y-61807D01*
X-104923Y-62068D01*
X-107508Y-65961D01*
X-104563D01*
Y-62282D01*
Y-62274D01*
Y-62266D01*
Y-62243D01*
Y-62205D01*
Y-62167D01*
Y-62121D01*
Y-62006D01*
X-104555Y-61869D01*
Y-61708D01*
X-104548Y-61524D01*
X-104540Y-61333D01*
D02*
G37*
G36*
X-87366Y-60951D02*
X-87412D01*
X-87442Y-60958D01*
X-87481Y-60966D01*
X-87527Y-60974D01*
X-87641Y-61012D01*
X-87779Y-61065D01*
X-87848Y-61104D01*
X-87924Y-61150D01*
X-88008Y-61211D01*
X-88085Y-61272D01*
X-88169Y-61348D01*
X-88253Y-61433D01*
X-88337Y-61524D01*
X-88422Y-61632D01*
X-88498Y-61754D01*
X-88582Y-61892D01*
X-88659Y-62037D01*
X-88728Y-62198D01*
X-88797Y-62374D01*
X-88865Y-62572D01*
X-88927Y-62779D01*
X-88980Y-63008D01*
X-89026Y-63261D01*
X-89064Y-63521D01*
X-89095Y-63812D01*
X-89118Y-64118D01*
X-89133Y-64439D01*
X-89141Y-64791D01*
Y-64799D01*
Y-64829D01*
Y-64883D01*
Y-64944D01*
X-89133Y-65028D01*
X-89125Y-65120D01*
Y-65227D01*
X-89110Y-65349D01*
X-89103Y-65479D01*
X-89087Y-65625D01*
X-89072Y-65770D01*
X-89049Y-65923D01*
X-88995Y-66252D01*
X-88919Y-66581D01*
X-88827Y-66918D01*
X-88712Y-67247D01*
X-88651Y-67400D01*
X-88575Y-67545D01*
X-88490Y-67690D01*
X-88406Y-67820D01*
X-88307Y-67935D01*
X-88207Y-68050D01*
X-88093Y-68142D01*
X-87970Y-68226D01*
X-87840Y-68287D01*
X-87703Y-68340D01*
X-87557Y-68371D01*
X-87397Y-68379D01*
X-87351D01*
X-87320Y-68371D01*
X-87236Y-68356D01*
X-87129Y-68318D01*
X-86999Y-68264D01*
X-86930Y-68233D01*
X-86853Y-68187D01*
X-86777Y-68134D01*
X-86700Y-68073D01*
X-86616Y-68004D01*
X-86540Y-67920D01*
X-86456Y-67828D01*
X-86379Y-67729D01*
X-86303Y-67614D01*
X-86226Y-67484D01*
X-86150Y-67346D01*
X-86081Y-67185D01*
X-86012Y-67017D01*
X-85951Y-66834D01*
X-85890Y-66635D01*
X-85844Y-66413D01*
X-85798Y-66176D01*
X-85759Y-65923D01*
X-85729Y-65648D01*
X-85698Y-65357D01*
X-85691Y-65043D01*
X-85683Y-64714D01*
Y-64707D01*
Y-64669D01*
Y-64623D01*
Y-64554D01*
X-85691Y-64470D01*
Y-64370D01*
X-85698Y-64255D01*
X-85706Y-64125D01*
X-85721Y-63988D01*
X-85737Y-63842D01*
X-85752Y-63689D01*
X-85775Y-63521D01*
X-85821Y-63184D01*
X-85890Y-62832D01*
X-85981Y-62481D01*
X-86096Y-62144D01*
X-86157Y-61976D01*
X-86226Y-61823D01*
X-86310Y-61677D01*
X-86394Y-61540D01*
X-86486Y-61410D01*
X-86586Y-61295D01*
X-86693Y-61195D01*
X-86808Y-61111D01*
X-86937Y-61042D01*
X-87068Y-60989D01*
X-87213Y-60958D01*
X-87366Y-60951D01*
D02*
G37*
G36*
X-128316Y-63567D02*
X-128378D01*
X-128424Y-63575D01*
X-128485Y-63582D01*
X-128546Y-63590D01*
X-128622Y-63605D01*
X-128699Y-63628D01*
X-128875Y-63689D01*
X-128974Y-63728D01*
X-129066Y-63774D01*
X-129165Y-63827D01*
X-129265Y-63896D01*
X-129357Y-63972D01*
X-129449Y-64056D01*
X-129456Y-64064D01*
X-129472Y-64079D01*
X-129495Y-64110D01*
X-129525Y-64148D01*
X-129563Y-64194D01*
X-129602Y-64255D01*
X-129648Y-64324D01*
X-129701Y-64401D01*
X-129747Y-64493D01*
X-129800Y-64584D01*
X-129846Y-64692D01*
X-129900Y-64806D01*
X-129938Y-64929D01*
X-129976Y-65066D01*
X-130015Y-65204D01*
X-130038Y-65349D01*
X-126817D01*
Y-65342D01*
Y-65311D01*
Y-65265D01*
X-126825Y-65212D01*
X-126832Y-65135D01*
X-126840Y-65051D01*
X-126855Y-64959D01*
X-126871Y-64860D01*
X-126916Y-64653D01*
X-126985Y-64431D01*
X-127031Y-64324D01*
X-127085Y-64225D01*
X-127146Y-64125D01*
X-127215Y-64034D01*
X-127222Y-64026D01*
X-127230Y-64011D01*
X-127253Y-63988D01*
X-127284Y-63957D01*
X-127330Y-63927D01*
X-127375Y-63888D01*
X-127437Y-63842D01*
X-127498Y-63796D01*
X-127574Y-63758D01*
X-127658Y-63712D01*
X-127743Y-63674D01*
X-127842Y-63636D01*
X-127949Y-63613D01*
X-128064Y-63590D01*
X-128186Y-63575D01*
X-128316Y-63567D01*
D02*
G37*
%LPD*%
D10*
X-32972Y10787D02*
X-33711Y11214D01*
Y10361D01*
X-32972Y10787D01*
D11*
X111918Y-6757D02*
X111734Y-5774D01*
X111530Y-4796D01*
X111304Y-3822D01*
X111058Y-2854D01*
X110792Y-1890D01*
X110505Y-933D01*
X110199Y18D01*
X109872Y963D01*
X109525Y1900D01*
X109158Y2830D01*
X108772Y3752D01*
X108367Y4665D01*
X107942Y5570D01*
X107498Y6465D01*
X107036Y7351D01*
X106554Y8227D01*
X106054Y9093D01*
X105536Y9948D01*
X105001Y10791D01*
X104447Y11623D01*
X103876Y12444D01*
X103288Y13252D01*
X102682Y14047D01*
X102060Y14829D01*
X101422Y15598D01*
X100768Y16354D01*
X100097Y17095D01*
X99411Y17822D01*
X98710Y18534D01*
X97994Y19231D01*
X97264Y19914D01*
X96519Y20580D01*
X95760Y21230D01*
X94988Y21865D01*
X94202Y22482D01*
X93403Y23084D01*
X92592Y23668D01*
X91769Y24234D01*
X90934Y24784D01*
X90088Y25315D01*
X89230Y25828D01*
X88362Y26324D01*
X87484Y26800D01*
X86595Y27258D01*
X85697Y27697D01*
X84790Y28117D01*
X83875Y28518D01*
X82951Y28899D01*
X82019Y29261D01*
X81080Y29603D01*
X80134Y29925D01*
X79181Y30226D01*
X78222Y30508D01*
X77257Y30769D01*
X76287Y31010D01*
X75312Y31230D01*
X74333Y31430D01*
X73350Y31608D01*
X72363Y31766D01*
X71373Y31903D01*
X70380Y32019D01*
X69385Y32114D01*
X68388Y32188D01*
X67390Y32241D01*
X66391Y32273D01*
X65392Y32283D01*
X-65392D02*
X-66391Y32273D01*
X-67390Y32241D01*
X-68388Y32188D01*
X-69385Y32114D01*
X-70380Y32019D01*
X-71373Y31903D01*
X-72363Y31766D01*
X-73350Y31608D01*
X-74333Y31430D01*
X-75312Y31230D01*
X-76287Y31010D01*
X-77257Y30769D01*
X-78222Y30508D01*
X-79181Y30226D01*
X-80134Y29925D01*
X-81080Y29603D01*
X-82019Y29261D01*
X-82951Y28899D01*
X-83875Y28518D01*
X-84790Y28117D01*
X-85697Y27697D01*
X-86595Y27258D01*
X-87484Y26800D01*
X-88362Y26324D01*
X-89230Y25828D01*
X-90088Y25315D01*
X-90934Y24784D01*
X-91769Y24234D01*
X-92592Y23668D01*
X-93403Y23084D01*
X-94202Y22483D01*
X-94987Y21865D01*
X-95760Y21230D01*
X-96519Y20580D01*
X-97264Y19914D01*
X-97994Y19231D01*
X-98710Y18534D01*
X-99411Y17822D01*
X-100097Y17095D01*
X-100768Y16354D01*
X-101422Y15598D01*
X-102060Y14829D01*
X-102682Y14047D01*
X-103288Y13251D01*
X-103876Y12444D01*
X-104447Y11623D01*
X-105001Y10791D01*
X-105537Y9948D01*
X-106054Y9093D01*
X-106554Y8227D01*
X-107036Y7351D01*
X-107498Y6465D01*
X-107942Y5570D01*
X-108367Y4665D01*
X-108772Y3752D01*
X-109159Y2830D01*
X-109525Y1900D01*
X-109872Y963D01*
X-110199Y18D01*
X-110505Y-933D01*
X-110792Y-1891D01*
X-111058Y-2854D01*
X-111304Y-3823D01*
X-111530Y-4796D01*
X-111734Y-5775D01*
X-111918Y-6757D01*
X111918Y-6757D02*
X116142Y-30709D01*
X-65392Y32283D02*
X65392D01*
X-116142Y-30709D02*
X116142D01*
X-116142D02*
X-111918Y-6757D01*
D12*
X90158Y10630D02*
X90113Y11618D01*
X89980Y12598D01*
X89760Y13563D01*
X89455Y14503D01*
X89066Y15413D01*
X88597Y16284D01*
X88052Y17109D01*
X87435Y17883D01*
X86752Y18598D01*
X86007Y19249D01*
X85207Y19830D01*
X84358Y20337D01*
X83466Y20766D01*
X82540Y21114D01*
X81587Y21377D01*
X80614Y21554D01*
X79628Y21642D01*
X78639D01*
X77654Y21554D01*
X76681Y21377D01*
X75727Y21114D01*
X74801Y20766D01*
X73910Y20337D01*
X73061Y19830D01*
X72261Y19249D01*
X71516Y18598D01*
X70832Y17883D01*
X70216Y17109D01*
X69671Y16284D01*
X69202Y15413D01*
X68813Y14503D01*
X68507Y13563D01*
X68287Y12598D01*
X68155Y11618D01*
X68110Y10630D01*
X33465Y787D02*
Y22441D01*
X43307Y32283D01*
X55118D01*
X64961Y22441D01*
Y787D02*
Y22441D01*
Y-30709D02*
Y787D01*
X33465Y-30709D02*
X64961D01*
X33465D02*
Y-14961D01*
Y787D01*
X-64961Y-14961D02*
Y787D01*
Y-30709D02*
Y-14961D01*
Y-30709D02*
X-33465D01*
Y787D01*
Y22441D01*
X-43307Y32283D02*
X-33465Y22441D01*
X-55118Y32283D02*
X-43307D01*
X-64961Y22441D02*
X-55118Y32283D01*
X-64961Y787D02*
Y22441D01*
X90158Y-19291D02*
Y10630D01*
X68110Y-19291D02*
X90158D01*
X68110D02*
Y10630D01*
D13*
X-135701Y-41387D02*
X-125971D01*
X-135876Y-40512D02*
X-125796D01*
X-135911Y-40547D02*
X-125761D01*
X-135946Y-40582D02*
X-125726D01*
X-135981Y-40617D02*
X-125691D01*
X-136016Y-40652D02*
X-125656D01*
X-136051Y-40687D02*
X-125621D01*
X-136086Y-40722D02*
X-125586D01*
X-136086Y-40757D02*
X-125586D01*
X-136086Y-40792D02*
X-125586D01*
X-136086Y-40827D02*
X-125586D01*
X-136051Y-40862D02*
X-125621D01*
X-136051Y-40897D02*
X-125621D01*
X-136016Y-40932D02*
X-125656D01*
X-135981Y-40967D02*
X-125691D01*
X-135946Y-41002D02*
X-125691D01*
X-135946Y-41037D02*
X-125726D01*
X-135911Y-41072D02*
X-125761D01*
X-135876Y-41107D02*
X-125761D01*
X-135876Y-41142D02*
X-125796D01*
X-135841Y-41177D02*
X-125831D01*
X-135806Y-41212D02*
X-125866D01*
X-135806Y-41247D02*
X-125866D01*
X-135771Y-41282D02*
X-125901D01*
X-135736Y-41317D02*
X-125901D01*
X-135736Y-41352D02*
X-125936D01*
X-135666Y-41422D02*
X-125971D01*
X-135666Y-41457D02*
X-126006D01*
X-135631Y-41492D02*
X-126041D01*
X-135596Y-41527D02*
X-126076D01*
X-135561Y-41562D02*
X-126076D01*
X-135561Y-41597D02*
X-126111D01*
X-135526Y-41632D02*
X-126146D01*
X-135491Y-41667D02*
X-126146D01*
X-135491Y-41702D02*
X-126181D01*
X-135456Y-41737D02*
X-126216D01*
X-135421Y-41772D02*
X-126216D01*
X-135421Y-41807D02*
X-126251D01*
X-135386Y-41842D02*
X-126286D01*
X-135351Y-41877D02*
X-126286D01*
X-135351Y-41912D02*
X-126321D01*
X-135316Y-41947D02*
X-126356D01*
X-135281Y-41982D02*
X-126391D01*
X-135281Y-42017D02*
X-126391D01*
X-135246Y-42052D02*
X-126426D01*
X-135211Y-42087D02*
X-126461D01*
X-135211Y-42122D02*
X-126461D01*
X-135176Y-42157D02*
X-126496D01*
X-135141Y-42227D02*
X-126531D01*
X-135141Y-42262D02*
X-126531D01*
X-135141Y-42297D02*
X-126531D01*
X-135141Y-42332D02*
X-126531D01*
X-135176Y-42367D02*
X-126496D01*
X-135176Y-42402D02*
X-126496D01*
X-135176Y-42437D02*
X-126461D01*
X-135211Y-42472D02*
X-126461D01*
X-135211Y-42507D02*
X-126461D01*
X-135246Y-42542D02*
X-126426D01*
X-135246Y-42577D02*
X-126426D01*
X-135246Y-42612D02*
X-126391D01*
X-135281Y-42647D02*
X-126391D01*
X-135281Y-42682D02*
X-126356D01*
X-135316Y-42717D02*
X-126356D01*
X-135316Y-42752D02*
X-126321D01*
X-135351Y-42787D02*
X-126321D01*
X-135351Y-42822D02*
X-126321D01*
X-135386Y-42857D02*
X-126286D01*
X-135386Y-42892D02*
X-126286D01*
X-135386Y-42927D02*
X-126251D01*
X-135421Y-42962D02*
X-131081D01*
X-135421Y-42997D02*
X-131256D01*
X-135456Y-43032D02*
X-131396D01*
X-131483Y-42148D02*
X-126618D01*
X-127791Y-49402D02*
X-126146D01*
X-135526D02*
X-133881D01*
X-127441Y-39917D02*
X-126391D01*
X-127511Y-39952D02*
X-126356D01*
X-127546Y-39987D02*
X-126321D01*
X-127616Y-40022D02*
X-126286D01*
X-127651Y-40057D02*
X-126251D01*
X-127721Y-40092D02*
X-126216D01*
X-127756Y-40127D02*
X-126181D01*
X-127826Y-40162D02*
X-126146D01*
X-127861Y-40197D02*
X-126111D01*
X-127931Y-40232D02*
X-126076D01*
X-127966Y-40267D02*
X-126041D01*
X-128036Y-40302D02*
X-126006D01*
X-128071Y-40337D02*
X-125971D01*
X-128106Y-40372D02*
X-125936D01*
X-128176Y-40407D02*
X-125901D01*
X-128211Y-40442D02*
X-125866D01*
X-128281Y-40477D02*
X-125831D01*
X-130591Y-42962D02*
X-126251D01*
X-130416Y-42997D02*
X-126251D01*
X-130276Y-43032D02*
X-126216D01*
X-130171Y-43067D02*
X-126216D01*
X-130101Y-43102D02*
X-126181D01*
X-130031Y-43137D02*
X-126181D01*
X-129961Y-43172D02*
X-126146D01*
X-129891Y-43207D02*
X-126146D01*
X-129821Y-43242D02*
X-126146D01*
X-129786Y-43277D02*
X-126111D01*
X-129716Y-43312D02*
X-126111D01*
X-129681Y-43347D02*
X-126076D01*
X-129646Y-43382D02*
X-126076D01*
X-129611Y-43417D02*
X-126041D01*
X-129576Y-43452D02*
X-126041D01*
X-129541Y-43487D02*
X-126006D01*
X-129506Y-43522D02*
X-126006D01*
X-129471Y-43557D02*
X-125936D01*
X-129436Y-43592D02*
X-125726D01*
X-129401Y-43627D02*
X-125551D01*
X-129366Y-43662D02*
X-125341D01*
X-129366Y-43697D02*
X-125166D01*
X-129331Y-43732D02*
X-124991D01*
X-129296Y-43767D02*
X-124781D01*
X-129261Y-43802D02*
X-124606D01*
X-129261Y-43837D02*
X-124431D01*
X-129226Y-43872D02*
X-124291D01*
X-129226Y-43907D02*
X-124256D01*
X-129191Y-43942D02*
X-124256D01*
X-129191Y-43977D02*
X-124256D01*
X-129156Y-44012D02*
X-124256D01*
X-129156Y-44047D02*
X-124256D01*
X-129121Y-44082D02*
X-124256D01*
X-129121Y-44117D02*
X-124256D01*
X-129121Y-44152D02*
X-124256D01*
X-129086Y-44187D02*
X-124256D01*
X-129086Y-44222D02*
X-124256D01*
X-129086Y-44257D02*
X-124256D01*
X-129051Y-44292D02*
X-124256D01*
X-129051Y-44327D02*
X-124256D01*
X-129051Y-44362D02*
X-124256D01*
X-129051Y-44397D02*
X-124256D01*
X-129016Y-44432D02*
X-124256D01*
X-129016Y-44467D02*
X-124256D01*
X-129016Y-44502D02*
X-124256D01*
X-129016Y-44537D02*
X-124256D01*
X-129016Y-44572D02*
X-124256D01*
X-129016Y-44607D02*
X-124256D01*
X-129016Y-44642D02*
X-124256D01*
X-128981Y-44677D02*
X-124256D01*
X-128981Y-44712D02*
X-124256D01*
X-128981Y-44747D02*
X-124256D01*
X-128981Y-44782D02*
X-124256D01*
X-128981Y-44817D02*
X-124256D01*
X-128981Y-44852D02*
X-124256D01*
X-129016Y-44887D02*
X-124256D01*
X-129016Y-44922D02*
X-124256D01*
X-129016Y-44957D02*
X-124256D01*
X-129016Y-44992D02*
X-124256D01*
X-129016Y-45027D02*
X-124256D01*
X-129016Y-45062D02*
X-124256D01*
X-129016Y-45097D02*
X-124256D01*
X-129016Y-45132D02*
X-124256D01*
X-129051Y-45167D02*
X-124256D01*
X-129051Y-45202D02*
X-124256D01*
X-129051Y-45237D02*
X-124256D01*
X-129051Y-45272D02*
X-124256D01*
X-129086Y-45307D02*
X-124256D01*
X-129086Y-45342D02*
X-124256D01*
X-129086Y-45377D02*
X-124256D01*
X-129121Y-45412D02*
X-124256D01*
X-129121Y-45447D02*
X-124256D01*
X-129121Y-45482D02*
X-124256D01*
X-129156Y-45517D02*
X-124256D01*
X-129156Y-45552D02*
X-124256D01*
X-129191Y-45587D02*
X-124256D01*
X-129191Y-45622D02*
X-124256D01*
X-129226Y-45657D02*
X-124256D01*
X-129226Y-45692D02*
X-124326D01*
X-129261Y-45727D02*
X-124501D01*
X-129261Y-45762D02*
X-124676D01*
X-129296Y-45797D02*
X-124886D01*
X-129331Y-45832D02*
X-125096D01*
X-129331Y-45867D02*
X-125271D01*
X-129366Y-45902D02*
X-125446D01*
X-129401Y-45937D02*
X-125621D01*
X-129436Y-45972D02*
X-125831D01*
X-129471Y-46007D02*
X-125936D01*
X-129506Y-46042D02*
X-125971D01*
X-129541Y-46077D02*
X-125971D01*
X-129576Y-46112D02*
X-126006D01*
X-129611Y-46147D02*
X-126006D01*
X-129646Y-46182D02*
X-126041D01*
X-129681Y-46217D02*
X-126041D01*
X-129716Y-46252D02*
X-126076D01*
X-129786Y-46287D02*
X-126076D01*
X-129821Y-46322D02*
X-126076D01*
X-129856Y-46357D02*
X-126111D01*
X-129926Y-46392D02*
X-126111D01*
X-129961Y-46427D02*
X-126146D01*
X-130031Y-46462D02*
X-126146D01*
X-130066Y-46497D02*
X-126146D01*
X-130101Y-46532D02*
X-126181D01*
X-130101Y-46567D02*
X-126181D01*
X-130101Y-46602D02*
X-126216D01*
X-130101Y-46637D02*
X-126216D01*
X-130066Y-46672D02*
X-126216D01*
X-130066Y-46707D02*
X-126251D01*
X-130031Y-46742D02*
X-126251D01*
X-130031Y-46777D02*
X-126286D01*
X-130031Y-46812D02*
X-126286D01*
X-129996Y-46847D02*
X-126286D01*
X-129996Y-46882D02*
X-126321D01*
X-129961Y-46917D02*
X-126321D01*
X-129961Y-46952D02*
X-126356D01*
X-129961Y-46987D02*
X-126356D01*
X-129926Y-47022D02*
X-126356D01*
X-129926Y-47057D02*
X-126391D01*
X-129891Y-47092D02*
X-126391D01*
X-129891Y-47127D02*
X-126426D01*
X-129856Y-47162D02*
X-126426D01*
X-129856Y-47197D02*
X-126426D01*
X-129856Y-47232D02*
X-126461D01*
X-129821Y-47267D02*
X-126461D01*
X-129821Y-47302D02*
X-126496D01*
X-129786Y-47337D02*
X-126496D01*
X-129786Y-47372D02*
X-126496D01*
X-129751Y-47407D02*
X-126496D01*
X-129751Y-47442D02*
X-126461D01*
X-129751Y-47477D02*
X-126426D01*
X-129716Y-47512D02*
X-126426D01*
X-129716Y-47547D02*
X-126391D01*
X-129716Y-47582D02*
X-126356D01*
X-129681Y-47617D02*
X-126356D01*
X-129681Y-47652D02*
X-126321D01*
X-129646Y-47687D02*
X-126286D01*
X-129646Y-47722D02*
X-126251D01*
X-129611Y-47757D02*
X-126251D01*
X-129611Y-47792D02*
X-126216D01*
X-129611Y-47827D02*
X-126181D01*
X-129576Y-47862D02*
X-126181D01*
X-129576Y-47897D02*
X-126146D01*
X-129541Y-47932D02*
X-126111D01*
X-129541Y-47967D02*
X-126111D01*
X-129541Y-48002D02*
X-126076D01*
X-129506Y-48037D02*
X-126041D01*
X-129506Y-48072D02*
X-126041D01*
X-129471Y-48107D02*
X-126006D01*
X-129471Y-48142D02*
X-125971D01*
X-129436Y-48177D02*
X-125971D01*
X-129436Y-48212D02*
X-125936D01*
X-129436Y-48247D02*
X-125901D01*
X-129401Y-48282D02*
X-125901D01*
X-129401Y-48317D02*
X-125866D01*
X-129366Y-48352D02*
X-125831D01*
X-129366Y-48387D02*
X-125796D01*
X-129366Y-48422D02*
X-125796D01*
X-129331Y-48457D02*
X-125761D01*
X-129331Y-48492D02*
X-125726D01*
X-129296Y-48527D02*
X-125726D01*
X-129296Y-48562D02*
X-125691D01*
X-129261Y-48597D02*
X-125656D01*
X-129261Y-48632D02*
X-125656D01*
X-129261Y-48667D02*
X-125621D01*
X-129226Y-48702D02*
X-125586D01*
X-129226Y-48737D02*
X-125586D01*
X-129191Y-48772D02*
X-125586D01*
X-129191Y-48807D02*
X-125586D01*
X-129191Y-48842D02*
X-125586D01*
X-129156Y-48877D02*
X-125621D01*
X-129156Y-48912D02*
X-125656D01*
X-129121Y-48947D02*
X-125691D01*
X-129121Y-48982D02*
X-125726D01*
X-129121Y-49017D02*
X-125761D01*
X-129086Y-49052D02*
X-125796D01*
X-129086Y-49087D02*
X-125831D01*
X-129051Y-49122D02*
X-125866D01*
X-128141Y-49157D02*
X-125901D01*
X-128106Y-49192D02*
X-125936D01*
X-128036Y-49227D02*
X-125971D01*
X-128001Y-49262D02*
X-126006D01*
X-127931Y-49297D02*
X-126041D01*
X-127896Y-49332D02*
X-126076D01*
X-127826Y-49367D02*
X-126111D01*
X-127756Y-49437D02*
X-126181D01*
X-127686Y-49472D02*
X-126216D01*
X-127651Y-49507D02*
X-126251D01*
X-127581Y-49542D02*
X-126286D01*
X-127546Y-49577D02*
X-126321D01*
X-127476Y-49612D02*
X-126356D01*
X-127441Y-49647D02*
X-126391D01*
X-135421Y-40057D02*
X-134021D01*
X-135456Y-40092D02*
X-133951D01*
X-135491Y-40127D02*
X-133916D01*
X-135526Y-40162D02*
X-133846D01*
X-135561Y-40197D02*
X-133811D01*
X-135596Y-40232D02*
X-133741D01*
X-135631Y-40267D02*
X-133706D01*
X-135666Y-40302D02*
X-133636D01*
X-135701Y-40337D02*
X-133601D01*
X-135736Y-40372D02*
X-133531D01*
X-135771Y-40407D02*
X-133496D01*
X-135806Y-40442D02*
X-133461D01*
X-135841Y-40477D02*
X-133391D01*
X-135456Y-43067D02*
X-131501D01*
X-135491Y-43102D02*
X-131571D01*
X-135491Y-43137D02*
X-131641D01*
X-135491Y-43172D02*
X-131711D01*
X-135526Y-43207D02*
X-131781D01*
X-135526Y-43242D02*
X-131851D01*
X-135561Y-43277D02*
X-131886D01*
X-135561Y-43312D02*
X-131921D01*
X-135596Y-43347D02*
X-131991D01*
X-135596Y-43382D02*
X-132026D01*
X-135596Y-43417D02*
X-132061D01*
X-135631Y-43452D02*
X-132096D01*
X-135631Y-43487D02*
X-132131D01*
X-135666Y-43522D02*
X-132166D01*
X-135736Y-43557D02*
X-132201D01*
X-135946Y-43592D02*
X-132236D01*
X-136121Y-43627D02*
X-132271D01*
X-136296Y-43662D02*
X-132306D01*
X-136506Y-43697D02*
X-132306D01*
X-136681Y-43732D02*
X-132341D01*
X-136891Y-43767D02*
X-132376D01*
X-137066Y-43802D02*
X-132376D01*
X-137241Y-43837D02*
X-132411D01*
X-137381Y-43872D02*
X-132446D01*
X-137416Y-43907D02*
X-132446D01*
X-137416Y-43942D02*
X-132481D01*
X-137416Y-43977D02*
X-132481D01*
X-137416Y-44012D02*
X-132516D01*
X-137416Y-44047D02*
X-132516D01*
X-137416Y-44082D02*
X-132551D01*
X-137416Y-44117D02*
X-132551D01*
X-137416Y-44152D02*
X-132551D01*
X-137416Y-44187D02*
X-132586D01*
X-137416Y-44222D02*
X-132586D01*
X-137416Y-44257D02*
X-132586D01*
X-137416Y-44292D02*
X-132621D01*
X-137416Y-44327D02*
X-132621D01*
X-137416Y-44362D02*
X-132621D01*
X-137416Y-44397D02*
X-132621D01*
X-137416Y-44432D02*
X-132656D01*
X-137416Y-44467D02*
X-132656D01*
X-137416Y-44502D02*
X-132656D01*
X-137416Y-44537D02*
X-132656D01*
X-137416Y-44572D02*
X-132656D01*
X-137416Y-44607D02*
X-132656D01*
X-137416Y-44642D02*
X-132656D01*
X-137416Y-44677D02*
X-132656D01*
X-137416Y-44712D02*
X-132656D01*
X-137416Y-44747D02*
X-132656D01*
X-137416Y-44782D02*
X-132656D01*
X-137416Y-44817D02*
X-132656D01*
X-137416Y-44852D02*
X-132656D01*
X-137416Y-44887D02*
X-132656D01*
X-137416Y-44922D02*
X-132656D01*
X-137416Y-44957D02*
X-132656D01*
X-137416Y-44992D02*
X-132656D01*
X-137416Y-45027D02*
X-132656D01*
X-137416Y-45062D02*
X-132656D01*
X-137416Y-45097D02*
X-132656D01*
X-137416Y-45132D02*
X-132621D01*
X-137416Y-45167D02*
X-132621D01*
X-137416Y-45202D02*
X-132621D01*
X-137416Y-45237D02*
X-132621D01*
X-137416Y-45272D02*
X-132621D01*
X-137416Y-45307D02*
X-132586D01*
X-137416Y-45342D02*
X-132586D01*
X-137416Y-45377D02*
X-132586D01*
X-137416Y-45412D02*
X-132551D01*
X-137416Y-45447D02*
X-132551D01*
X-137416Y-45482D02*
X-132551D01*
X-137416Y-45517D02*
X-132516D01*
X-137416Y-45552D02*
X-132516D01*
X-137416Y-45587D02*
X-132481D01*
X-137416Y-45622D02*
X-132481D01*
X-137381Y-45657D02*
X-132446D01*
X-137346Y-45692D02*
X-132446D01*
X-137171Y-45727D02*
X-132411D01*
X-136996Y-45762D02*
X-132376D01*
X-136786Y-45797D02*
X-132376D01*
X-136576Y-45832D02*
X-132341D01*
X-136401Y-45867D02*
X-132306D01*
X-136226Y-45902D02*
X-132306D01*
X-136016Y-45937D02*
X-132271D01*
X-135841Y-45972D02*
X-132236D01*
X-135736Y-46007D02*
X-132201D01*
X-135701Y-46042D02*
X-132166D01*
X-135666Y-46077D02*
X-132131D01*
X-135666Y-46112D02*
X-132096D01*
X-135631Y-46147D02*
X-132061D01*
X-135631Y-46182D02*
X-132026D01*
X-135631Y-46217D02*
X-131991D01*
X-135596Y-46252D02*
X-131921D01*
X-135596Y-46287D02*
X-131886D01*
X-135561Y-46322D02*
X-131851D01*
X-135561Y-46357D02*
X-131781D01*
X-135561Y-46392D02*
X-131746D01*
X-135526Y-46427D02*
X-131711D01*
X-135526Y-46462D02*
X-131641D01*
X-135491Y-46497D02*
X-131606D01*
X-135491Y-46532D02*
X-131571D01*
X-135491Y-46567D02*
X-131571D01*
X-135456Y-46602D02*
X-131571D01*
X-135456Y-46637D02*
X-131571D01*
X-135421Y-46672D02*
X-131606D01*
X-135421Y-46707D02*
X-131606D01*
X-135421Y-46742D02*
X-131606D01*
X-135421Y-47757D02*
X-132026D01*
X-135456Y-47792D02*
X-132061D01*
X-135456Y-47827D02*
X-132061D01*
X-135491Y-47862D02*
X-132096D01*
X-135526Y-47897D02*
X-132096D01*
X-135526Y-47932D02*
X-132096D01*
X-135561Y-47967D02*
X-132131D01*
X-135596Y-48002D02*
X-132131D01*
X-135596Y-48037D02*
X-132166D01*
X-135631Y-48072D02*
X-132166D01*
X-135666Y-48107D02*
X-132201D01*
X-135701Y-48142D02*
X-132201D01*
X-135701Y-48177D02*
X-132201D01*
X-135736Y-48212D02*
X-132236D01*
X-135771Y-48247D02*
X-132236D01*
X-135771Y-48282D02*
X-132271D01*
X-135806Y-48317D02*
X-132271D01*
X-135841Y-48352D02*
X-132271D01*
X-135841Y-48387D02*
X-132306D01*
X-135876Y-48422D02*
X-132306D01*
X-135911Y-48457D02*
X-132341D01*
X-135911Y-48492D02*
X-132341D01*
X-135946Y-48527D02*
X-132341D01*
X-135981Y-48562D02*
X-132376D01*
X-136016Y-48597D02*
X-132376D01*
X-136016Y-48632D02*
X-132411D01*
X-136051Y-48667D02*
X-132411D01*
X-136086Y-48702D02*
X-132446D01*
X-136086Y-48737D02*
X-132446D01*
X-136086Y-48772D02*
X-132446D01*
X-136086Y-48807D02*
X-132481D01*
X-136086Y-48842D02*
X-132481D01*
X-136051Y-48877D02*
X-132516D01*
X-136016Y-48912D02*
X-132516D01*
X-135981Y-48947D02*
X-132551D01*
X-135946Y-48982D02*
X-132551D01*
X-135911Y-49017D02*
X-132551D01*
X-135876Y-49052D02*
X-132586D01*
X-135841Y-49087D02*
X-132586D01*
X-135806Y-49122D02*
X-132621D01*
X-135771Y-49157D02*
X-133531D01*
X-135736Y-49192D02*
X-133566D01*
X-135701Y-49227D02*
X-133601D01*
X-135666Y-49262D02*
X-133671D01*
X-135631Y-49297D02*
X-133706D01*
X-135596Y-49332D02*
X-133776D01*
X-135561Y-49367D02*
X-133811D01*
X-135491Y-49437D02*
X-133916D01*
X-135456Y-49472D02*
X-133986D01*
X-135421Y-49507D02*
X-134021D01*
X-132901Y-49402D02*
X-132726D01*
X-128946D02*
X-128771D01*
X-126881Y-39532D02*
X-126776D01*
X-126951Y-39567D02*
X-126741D01*
X-126986Y-39602D02*
X-126706D01*
X-127056Y-39637D02*
X-126671D01*
X-127091Y-39672D02*
X-126636D01*
X-127161Y-39707D02*
X-126601D01*
X-127196Y-39742D02*
X-126566D01*
X-127266Y-39777D02*
X-126531D01*
X-127301Y-39812D02*
X-126496D01*
X-127371Y-39847D02*
X-126461D01*
X-127406Y-39882D02*
X-126426D01*
X-127371Y-49682D02*
X-126426D01*
X-127336Y-49717D02*
X-126461D01*
X-127266Y-49752D02*
X-126496D01*
X-127231Y-49787D02*
X-126531D01*
X-127161Y-49822D02*
X-126566D01*
X-127126Y-49857D02*
X-126601D01*
X-127091Y-49892D02*
X-126636D01*
X-127021Y-49927D02*
X-126671D01*
X-126986Y-49962D02*
X-126706D01*
X-126916Y-49997D02*
X-126741D01*
X-126846Y-50032D02*
X-126811D01*
X-131711Y-38202D02*
X-129961D01*
X-131746Y-38237D02*
X-129926D01*
X-131746Y-38272D02*
X-129926D01*
X-131746Y-38307D02*
X-129891D01*
X-131781Y-38342D02*
X-129891D01*
X-131781Y-38377D02*
X-129891D01*
X-131781Y-38412D02*
X-129891D01*
X-131781Y-38447D02*
X-129891D01*
X-131781Y-38482D02*
X-129856D01*
X-131781Y-38517D02*
X-129856D01*
X-131816Y-38552D02*
X-129856D01*
X-131816Y-38587D02*
X-129856D01*
X-131816Y-38622D02*
X-129856D01*
X-131816Y-38657D02*
X-129856D01*
X-131816Y-38692D02*
X-129821D01*
X-131851Y-38727D02*
X-129821D01*
X-131851Y-38762D02*
X-129821D01*
X-131851Y-38797D02*
X-129821D01*
X-131851Y-38832D02*
X-129821D01*
X-131851Y-38867D02*
X-129786D01*
X-131886Y-38902D02*
X-129786D01*
X-131886Y-38937D02*
X-129786D01*
X-131886Y-38972D02*
X-129786D01*
X-131886Y-39007D02*
X-129786D01*
X-131886Y-39042D02*
X-129751D01*
X-131886Y-39077D02*
X-129751D01*
X-131921Y-39112D02*
X-129751D01*
X-131921Y-39147D02*
X-129751D01*
X-131921Y-39182D02*
X-129751D01*
X-131921Y-39217D02*
X-129751D01*
X-131921Y-39252D02*
X-129716D01*
X-131956Y-39287D02*
X-129716D01*
X-131956Y-39322D02*
X-129716D01*
X-131956Y-39357D02*
X-129716D01*
X-131956Y-39392D02*
X-129716D01*
X-131956Y-39427D02*
X-129681D01*
X-131991Y-39462D02*
X-129681D01*
X-131991Y-39497D02*
X-129681D01*
X-134896Y-39532D02*
X-134756D01*
X-131991D02*
X-129681D01*
X-134931Y-39567D02*
X-134721D01*
X-131991D02*
X-129681D01*
X-134966Y-39602D02*
X-134651D01*
X-131991D02*
X-129681D01*
X-135001Y-39637D02*
X-134616D01*
X-131991D02*
X-129646D01*
X-135036Y-39672D02*
X-134581D01*
X-132026D02*
X-129646D01*
X-135071Y-39707D02*
X-134511D01*
X-132026D02*
X-129646D01*
X-135106Y-39742D02*
X-134476D01*
X-132026D02*
X-129646D01*
X-135141Y-39777D02*
X-134406D01*
X-132026D02*
X-129646D01*
X-135176Y-39812D02*
X-134371D01*
X-132026D02*
X-129611D01*
X-135211Y-39847D02*
X-134301D01*
X-132061D02*
X-129611D01*
X-135246Y-39882D02*
X-134266D01*
X-132061D02*
X-129611D01*
X-135281Y-39917D02*
X-134196D01*
X-132061D02*
X-129611D01*
X-135316Y-39952D02*
X-134161D01*
X-132061D02*
X-129576D01*
X-135351Y-39987D02*
X-134091D01*
X-132096D02*
X-129576D01*
X-135386Y-40022D02*
X-134056D01*
X-132131D02*
X-129541D01*
X-132201Y-40057D02*
X-129436D01*
X-132306Y-40092D02*
X-129366D01*
X-132376Y-40127D02*
X-129261D01*
X-132481Y-40162D02*
X-129191D01*
X-132551Y-40197D02*
X-129121D01*
X-132656Y-40232D02*
X-129016D01*
X-132726Y-40267D02*
X-128946D01*
X-132831Y-40302D02*
X-128841D01*
X-132901Y-40337D02*
X-128771D01*
X-133006Y-40372D02*
X-128666D01*
X-133076Y-40407D02*
X-128596D01*
X-133146Y-40442D02*
X-128491D01*
X-133251Y-40477D02*
X-128421D01*
X-135141Y-42192D02*
X-129896D01*
X-135386Y-46777D02*
X-131641D01*
X-135386Y-46812D02*
X-131641D01*
X-135351Y-46847D02*
X-131676D01*
X-135351Y-46882D02*
X-131676D01*
X-135351Y-46917D02*
X-131711D01*
X-135316Y-46952D02*
X-131711D01*
X-135316Y-46987D02*
X-131711D01*
X-135281Y-47022D02*
X-131746D01*
X-135281Y-47057D02*
X-131746D01*
X-135281Y-47092D02*
X-131781D01*
X-135246Y-47127D02*
X-131781D01*
X-135246Y-47162D02*
X-131781D01*
X-135211Y-47197D02*
X-131816D01*
X-135211Y-47232D02*
X-131816D01*
X-135211Y-47267D02*
X-131851D01*
X-135176Y-47302D02*
X-131851D01*
X-135176Y-47337D02*
X-131851D01*
X-135176Y-47372D02*
X-131886D01*
X-135176Y-47407D02*
X-131886D01*
X-135211Y-47442D02*
X-131921D01*
X-135246Y-47477D02*
X-131921D01*
X-135246Y-47512D02*
X-131921D01*
X-135281Y-47547D02*
X-131956D01*
X-135316Y-47582D02*
X-131956D01*
X-135316Y-47617D02*
X-131991D01*
X-135351Y-47652D02*
X-131991D01*
X-135386Y-47687D02*
X-132026D01*
X-135386Y-47722D02*
X-132026D01*
X-133356Y-49157D02*
X-132621D01*
X-129051D02*
X-128316D01*
X-133286Y-49192D02*
X-132621D01*
X-129016D02*
X-128351D01*
X-133251Y-49227D02*
X-132656D01*
X-129016D02*
X-128421D01*
X-133181Y-49262D02*
X-132656D01*
X-129016D02*
X-128491D01*
X-133111Y-49297D02*
X-132691D01*
X-128981D02*
X-128561D01*
X-133041Y-49332D02*
X-132691D01*
X-128981D02*
X-128631D01*
X-132971Y-49367D02*
X-132691D01*
X-128946D02*
X-128701D01*
X-132831Y-49437D02*
X-132761D01*
X-128911D02*
X-128841D01*
X-135386Y-49542D02*
X-134091D01*
X-135351Y-49577D02*
X-134126D01*
X-135316Y-49612D02*
X-134196D01*
X-135281Y-49647D02*
X-134231D01*
X-135246Y-49682D02*
X-134301D01*
X-135211Y-49717D02*
X-134336D01*
X-135176Y-49752D02*
X-134406D01*
X-135141Y-49787D02*
X-134441D01*
X-135106Y-49822D02*
X-134476D01*
X-135071Y-49857D02*
X-134546D01*
X-135036Y-49892D02*
X-134581D01*
X-135001Y-49927D02*
X-134651D01*
X-134966Y-49962D02*
X-134686D01*
X-134931Y-49997D02*
X-134756D01*
X-134861Y-50032D02*
X-134791D01*
X-135701Y-41387D02*
X-125971D01*
X-135876Y-40512D02*
X-125796D01*
X-135911Y-40547D02*
X-125761D01*
X-135946Y-40582D02*
X-125726D01*
X-135981Y-40617D02*
X-125691D01*
X-136016Y-40652D02*
X-125656D01*
X-136051Y-40687D02*
X-125621D01*
X-136086Y-40722D02*
X-125586D01*
X-136086Y-40757D02*
X-125586D01*
X-136086Y-40792D02*
X-125586D01*
X-136086Y-40827D02*
X-125586D01*
X-136051Y-40862D02*
X-125621D01*
X-136051Y-40897D02*
X-125621D01*
X-136016Y-40932D02*
X-125656D01*
X-135981Y-40967D02*
X-125691D01*
X-135946Y-41002D02*
X-125691D01*
X-135946Y-41037D02*
X-125726D01*
X-135911Y-41072D02*
X-125761D01*
X-135876Y-41107D02*
X-125761D01*
X-135876Y-41142D02*
X-125796D01*
X-135841Y-41177D02*
X-125831D01*
X-135806Y-41212D02*
X-125866D01*
X-135806Y-41247D02*
X-125866D01*
X-135771Y-41282D02*
X-125901D01*
X-135736Y-41317D02*
X-125901D01*
X-135736Y-41352D02*
X-125936D01*
X-135666Y-41422D02*
X-125971D01*
X-135666Y-41457D02*
X-126006D01*
X-135631Y-41492D02*
X-126041D01*
X-135596Y-41527D02*
X-126076D01*
X-135561Y-41562D02*
X-126076D01*
X-135561Y-41597D02*
X-126111D01*
X-135526Y-41632D02*
X-126146D01*
X-135491Y-41667D02*
X-126146D01*
X-135491Y-41702D02*
X-126181D01*
X-135456Y-41737D02*
X-126216D01*
X-135421Y-41772D02*
X-126216D01*
X-135421Y-41807D02*
X-126251D01*
X-135386Y-41842D02*
X-126286D01*
X-135351Y-41877D02*
X-126286D01*
X-135351Y-41912D02*
X-126321D01*
X-135316Y-41947D02*
X-126356D01*
X-135281Y-41982D02*
X-126391D01*
X-135281Y-42017D02*
X-126391D01*
X-135246Y-42052D02*
X-126426D01*
X-135211Y-42087D02*
X-126461D01*
X-135211Y-42122D02*
X-126461D01*
X-135176Y-42157D02*
X-126496D01*
X-135141Y-42227D02*
X-126531D01*
X-135141Y-42262D02*
X-126531D01*
X-135141Y-42297D02*
X-126531D01*
X-135141Y-42332D02*
X-126531D01*
X-135176Y-42367D02*
X-126496D01*
X-135176Y-42402D02*
X-126496D01*
X-135176Y-42437D02*
X-126461D01*
X-135211Y-42472D02*
X-126461D01*
X-135211Y-42507D02*
X-126461D01*
X-135246Y-42542D02*
X-126426D01*
X-135246Y-42577D02*
X-126426D01*
X-135246Y-42612D02*
X-126391D01*
X-135281Y-42647D02*
X-126391D01*
X-135281Y-42682D02*
X-126356D01*
X-135316Y-42717D02*
X-126356D01*
X-135316Y-42752D02*
X-126321D01*
X-135351Y-42787D02*
X-126321D01*
X-135351Y-42822D02*
X-126321D01*
X-135386Y-42857D02*
X-126286D01*
X-135386Y-42892D02*
X-126286D01*
X-135386Y-42927D02*
X-126251D01*
X-135421Y-42962D02*
X-131081D01*
X-135421Y-42997D02*
X-131256D01*
X-135456Y-43032D02*
X-131396D01*
X-131483Y-42148D02*
X-126618D01*
X-127791Y-49402D02*
X-126146D01*
X-135526D02*
X-133881D01*
X-127441Y-39917D02*
X-126391D01*
X-127511Y-39952D02*
X-126356D01*
X-127546Y-39987D02*
X-126321D01*
X-127616Y-40022D02*
X-126286D01*
X-127651Y-40057D02*
X-126251D01*
X-127721Y-40092D02*
X-126216D01*
X-127756Y-40127D02*
X-126181D01*
X-127826Y-40162D02*
X-126146D01*
X-127861Y-40197D02*
X-126111D01*
X-127931Y-40232D02*
X-126076D01*
X-127966Y-40267D02*
X-126041D01*
X-128036Y-40302D02*
X-126006D01*
X-128071Y-40337D02*
X-125971D01*
X-128106Y-40372D02*
X-125936D01*
X-128176Y-40407D02*
X-125901D01*
X-128211Y-40442D02*
X-125866D01*
X-128281Y-40477D02*
X-125831D01*
X-130591Y-42962D02*
X-126251D01*
X-130416Y-42997D02*
X-126251D01*
X-130276Y-43032D02*
X-126216D01*
X-130171Y-43067D02*
X-126216D01*
X-130101Y-43102D02*
X-126181D01*
X-130031Y-43137D02*
X-126181D01*
X-129961Y-43172D02*
X-126146D01*
X-129891Y-43207D02*
X-126146D01*
X-129821Y-43242D02*
X-126146D01*
X-129786Y-43277D02*
X-126111D01*
X-129716Y-43312D02*
X-126111D01*
X-129681Y-43347D02*
X-126076D01*
X-129646Y-43382D02*
X-126076D01*
X-129611Y-43417D02*
X-126041D01*
X-129576Y-43452D02*
X-126041D01*
X-129541Y-43487D02*
X-126006D01*
X-129506Y-43522D02*
X-126006D01*
X-129471Y-43557D02*
X-125936D01*
X-129436Y-43592D02*
X-125726D01*
X-129401Y-43627D02*
X-125551D01*
X-129366Y-43662D02*
X-125341D01*
X-129366Y-43697D02*
X-125166D01*
X-129331Y-43732D02*
X-124991D01*
X-129296Y-43767D02*
X-124781D01*
X-129261Y-43802D02*
X-124606D01*
X-129261Y-43837D02*
X-124431D01*
X-129226Y-43872D02*
X-124291D01*
X-129226Y-43907D02*
X-124256D01*
X-129191Y-43942D02*
X-124256D01*
X-129191Y-43977D02*
X-124256D01*
X-129156Y-44012D02*
X-124256D01*
X-129156Y-44047D02*
X-124256D01*
X-129121Y-44082D02*
X-124256D01*
X-129121Y-44117D02*
X-124256D01*
X-129121Y-44152D02*
X-124256D01*
X-129086Y-44187D02*
X-124256D01*
X-129086Y-44222D02*
X-124256D01*
X-129086Y-44257D02*
X-124256D01*
X-129051Y-44292D02*
X-124256D01*
X-129051Y-44327D02*
X-124256D01*
X-129051Y-44362D02*
X-124256D01*
X-129051Y-44397D02*
X-124256D01*
X-129016Y-44432D02*
X-124256D01*
X-129016Y-44467D02*
X-124256D01*
X-129016Y-44502D02*
X-124256D01*
X-129016Y-44537D02*
X-124256D01*
X-129016Y-44572D02*
X-124256D01*
X-129016Y-44607D02*
X-124256D01*
X-129016Y-44642D02*
X-124256D01*
X-128981Y-44677D02*
X-124256D01*
X-128981Y-44712D02*
X-124256D01*
X-128981Y-44747D02*
X-124256D01*
X-128981Y-44782D02*
X-124256D01*
X-128981Y-44817D02*
X-124256D01*
X-128981Y-44852D02*
X-124256D01*
X-129016Y-44887D02*
X-124256D01*
X-129016Y-44922D02*
X-124256D01*
X-129016Y-44957D02*
X-124256D01*
X-129016Y-44992D02*
X-124256D01*
X-129016Y-45027D02*
X-124256D01*
X-129016Y-45062D02*
X-124256D01*
X-129016Y-45097D02*
X-124256D01*
X-129016Y-45132D02*
X-124256D01*
X-129051Y-45167D02*
X-124256D01*
X-129051Y-45202D02*
X-124256D01*
X-129051Y-45237D02*
X-124256D01*
X-129051Y-45272D02*
X-124256D01*
X-129086Y-45307D02*
X-124256D01*
X-129086Y-45342D02*
X-124256D01*
X-129086Y-45377D02*
X-124256D01*
X-129121Y-45412D02*
X-124256D01*
X-129121Y-45447D02*
X-124256D01*
X-129121Y-45482D02*
X-124256D01*
X-129156Y-45517D02*
X-124256D01*
X-129156Y-45552D02*
X-124256D01*
X-129191Y-45587D02*
X-124256D01*
X-129191Y-45622D02*
X-124256D01*
X-129226Y-45657D02*
X-124256D01*
X-129226Y-45692D02*
X-124326D01*
X-129261Y-45727D02*
X-124501D01*
X-129261Y-45762D02*
X-124676D01*
X-129296Y-45797D02*
X-124886D01*
X-129331Y-45832D02*
X-125096D01*
X-129331Y-45867D02*
X-125271D01*
X-129366Y-45902D02*
X-125446D01*
X-129401Y-45937D02*
X-125621D01*
X-129436Y-45972D02*
X-125831D01*
X-129471Y-46007D02*
X-125936D01*
X-129506Y-46042D02*
X-125971D01*
X-129541Y-46077D02*
X-125971D01*
X-129576Y-46112D02*
X-126006D01*
X-129611Y-46147D02*
X-126006D01*
X-129646Y-46182D02*
X-126041D01*
X-129681Y-46217D02*
X-126041D01*
X-129716Y-46252D02*
X-126076D01*
X-129786Y-46287D02*
X-126076D01*
X-129821Y-46322D02*
X-126076D01*
X-129856Y-46357D02*
X-126111D01*
X-129926Y-46392D02*
X-126111D01*
X-129961Y-46427D02*
X-126146D01*
X-130031Y-46462D02*
X-126146D01*
X-130066Y-46497D02*
X-126146D01*
X-130101Y-46532D02*
X-126181D01*
X-130101Y-46567D02*
X-126181D01*
X-130101Y-46602D02*
X-126216D01*
X-130101Y-46637D02*
X-126216D01*
X-130066Y-46672D02*
X-126216D01*
X-130066Y-46707D02*
X-126251D01*
X-130031Y-46742D02*
X-126251D01*
X-130031Y-46777D02*
X-126286D01*
X-130031Y-46812D02*
X-126286D01*
X-129996Y-46847D02*
X-126286D01*
X-129996Y-46882D02*
X-126321D01*
X-129961Y-46917D02*
X-126321D01*
X-129961Y-46952D02*
X-126356D01*
X-129961Y-46987D02*
X-126356D01*
X-129926Y-47022D02*
X-126356D01*
X-129926Y-47057D02*
X-126391D01*
X-129891Y-47092D02*
X-126391D01*
X-129891Y-47127D02*
X-126426D01*
X-129856Y-47162D02*
X-126426D01*
X-129856Y-47197D02*
X-126426D01*
X-129856Y-47232D02*
X-126461D01*
X-129821Y-47267D02*
X-126461D01*
X-129821Y-47302D02*
X-126496D01*
X-129786Y-47337D02*
X-126496D01*
X-129786Y-47372D02*
X-126496D01*
X-129751Y-47407D02*
X-126496D01*
X-129751Y-47442D02*
X-126461D01*
X-129751Y-47477D02*
X-126426D01*
X-129716Y-47512D02*
X-126426D01*
X-129716Y-47547D02*
X-126391D01*
X-129716Y-47582D02*
X-126356D01*
X-129681Y-47617D02*
X-126356D01*
X-129681Y-47652D02*
X-126321D01*
X-129646Y-47687D02*
X-126286D01*
X-129646Y-47722D02*
X-126251D01*
X-129611Y-47757D02*
X-126251D01*
X-129611Y-47792D02*
X-126216D01*
X-129611Y-47827D02*
X-126181D01*
X-129576Y-47862D02*
X-126181D01*
X-129576Y-47897D02*
X-126146D01*
X-129541Y-47932D02*
X-126111D01*
X-129541Y-47967D02*
X-126111D01*
X-129541Y-48002D02*
X-126076D01*
X-129506Y-48037D02*
X-126041D01*
X-129506Y-48072D02*
X-126041D01*
X-129471Y-48107D02*
X-126006D01*
X-129471Y-48142D02*
X-125971D01*
X-129436Y-48177D02*
X-125971D01*
X-129436Y-48212D02*
X-125936D01*
X-129436Y-48247D02*
X-125901D01*
X-129401Y-48282D02*
X-125901D01*
X-129401Y-48317D02*
X-125866D01*
X-129366Y-48352D02*
X-125831D01*
X-129366Y-48387D02*
X-125796D01*
X-129366Y-48422D02*
X-125796D01*
X-129331Y-48457D02*
X-125761D01*
X-129331Y-48492D02*
X-125726D01*
X-129296Y-48527D02*
X-125726D01*
X-129296Y-48562D02*
X-125691D01*
X-129261Y-48597D02*
X-125656D01*
X-129261Y-48632D02*
X-125656D01*
X-129261Y-48667D02*
X-125621D01*
X-129226Y-48702D02*
X-125586D01*
X-129226Y-48737D02*
X-125586D01*
X-129191Y-48772D02*
X-125586D01*
X-129191Y-48807D02*
X-125586D01*
X-129191Y-48842D02*
X-125586D01*
X-129156Y-48877D02*
X-125621D01*
X-129156Y-48912D02*
X-125656D01*
X-129121Y-48947D02*
X-125691D01*
X-129121Y-48982D02*
X-125726D01*
X-129121Y-49017D02*
X-125761D01*
X-129086Y-49052D02*
X-125796D01*
X-129086Y-49087D02*
X-125831D01*
X-129051Y-49122D02*
X-125866D01*
X-128141Y-49157D02*
X-125901D01*
X-128106Y-49192D02*
X-125936D01*
X-128036Y-49227D02*
X-125971D01*
X-128001Y-49262D02*
X-126006D01*
X-127931Y-49297D02*
X-126041D01*
X-127896Y-49332D02*
X-126076D01*
X-127826Y-49367D02*
X-126111D01*
X-127756Y-49437D02*
X-126181D01*
X-127686Y-49472D02*
X-126216D01*
X-127651Y-49507D02*
X-126251D01*
X-127581Y-49542D02*
X-126286D01*
X-127546Y-49577D02*
X-126321D01*
X-127476Y-49612D02*
X-126356D01*
X-127441Y-49647D02*
X-126391D01*
X-135421Y-40057D02*
X-134021D01*
X-135456Y-40092D02*
X-133951D01*
X-135491Y-40127D02*
X-133916D01*
X-135526Y-40162D02*
X-133846D01*
X-135561Y-40197D02*
X-133811D01*
X-135596Y-40232D02*
X-133741D01*
X-135631Y-40267D02*
X-133706D01*
X-135666Y-40302D02*
X-133636D01*
X-135701Y-40337D02*
X-133601D01*
X-135736Y-40372D02*
X-133531D01*
X-135771Y-40407D02*
X-133496D01*
X-135806Y-40442D02*
X-133461D01*
X-135841Y-40477D02*
X-133391D01*
X-135456Y-43067D02*
X-131501D01*
X-135491Y-43102D02*
X-131571D01*
X-135491Y-43137D02*
X-131641D01*
X-135491Y-43172D02*
X-131711D01*
X-135526Y-43207D02*
X-131781D01*
X-135526Y-43242D02*
X-131851D01*
X-135561Y-43277D02*
X-131886D01*
X-135561Y-43312D02*
X-131921D01*
X-135596Y-43347D02*
X-131991D01*
X-135596Y-43382D02*
X-132026D01*
X-135596Y-43417D02*
X-132061D01*
X-135631Y-43452D02*
X-132096D01*
X-135631Y-43487D02*
X-132131D01*
X-135666Y-43522D02*
X-132166D01*
X-135736Y-43557D02*
X-132201D01*
X-135946Y-43592D02*
X-132236D01*
X-136121Y-43627D02*
X-132271D01*
X-136296Y-43662D02*
X-132306D01*
X-136506Y-43697D02*
X-132306D01*
X-136681Y-43732D02*
X-132341D01*
X-136891Y-43767D02*
X-132376D01*
X-137066Y-43802D02*
X-132376D01*
X-137241Y-43837D02*
X-132411D01*
X-137381Y-43872D02*
X-132446D01*
X-137416Y-43907D02*
X-132446D01*
X-137416Y-43942D02*
X-132481D01*
X-137416Y-43977D02*
X-132481D01*
X-137416Y-44012D02*
X-132516D01*
X-137416Y-44047D02*
X-132516D01*
X-137416Y-44082D02*
X-132551D01*
X-137416Y-44117D02*
X-132551D01*
X-137416Y-44152D02*
X-132551D01*
X-137416Y-44187D02*
X-132586D01*
X-137416Y-44222D02*
X-132586D01*
X-137416Y-44257D02*
X-132586D01*
X-137416Y-44292D02*
X-132621D01*
X-137416Y-44327D02*
X-132621D01*
X-137416Y-44362D02*
X-132621D01*
X-137416Y-44397D02*
X-132621D01*
X-137416Y-44432D02*
X-132656D01*
X-137416Y-44467D02*
X-132656D01*
X-137416Y-44502D02*
X-132656D01*
X-137416Y-44537D02*
X-132656D01*
X-137416Y-44572D02*
X-132656D01*
X-137416Y-44607D02*
X-132656D01*
X-137416Y-44642D02*
X-132656D01*
X-137416Y-44677D02*
X-132656D01*
X-137416Y-44712D02*
X-132656D01*
X-137416Y-44747D02*
X-132656D01*
X-137416Y-44782D02*
X-132656D01*
X-137416Y-44817D02*
X-132656D01*
X-137416Y-44852D02*
X-132656D01*
X-137416Y-44887D02*
X-132656D01*
X-137416Y-44922D02*
X-132656D01*
X-137416Y-44957D02*
X-132656D01*
X-137416Y-44992D02*
X-132656D01*
X-137416Y-45027D02*
X-132656D01*
X-137416Y-45062D02*
X-132656D01*
X-137416Y-45097D02*
X-132656D01*
X-137416Y-45132D02*
X-132621D01*
X-137416Y-45167D02*
X-132621D01*
X-137416Y-45202D02*
X-132621D01*
X-137416Y-45237D02*
X-132621D01*
X-137416Y-45272D02*
X-132621D01*
X-137416Y-45307D02*
X-132586D01*
X-137416Y-45342D02*
X-132586D01*
X-137416Y-45377D02*
X-132586D01*
X-137416Y-45412D02*
X-132551D01*
X-137416Y-45447D02*
X-132551D01*
X-137416Y-45482D02*
X-132551D01*
X-137416Y-45517D02*
X-132516D01*
X-137416Y-45552D02*
X-132516D01*
X-137416Y-45587D02*
X-132481D01*
X-137416Y-45622D02*
X-132481D01*
X-137381Y-45657D02*
X-132446D01*
X-137346Y-45692D02*
X-132446D01*
X-137171Y-45727D02*
X-132411D01*
X-136996Y-45762D02*
X-132376D01*
X-136786Y-45797D02*
X-132376D01*
X-136576Y-45832D02*
X-132341D01*
X-136401Y-45867D02*
X-132306D01*
X-136226Y-45902D02*
X-132306D01*
X-136016Y-45937D02*
X-132271D01*
X-135841Y-45972D02*
X-132236D01*
X-135736Y-46007D02*
X-132201D01*
X-135701Y-46042D02*
X-132166D01*
X-135666Y-46077D02*
X-132131D01*
X-135666Y-46112D02*
X-132096D01*
X-135631Y-46147D02*
X-132061D01*
X-135631Y-46182D02*
X-132026D01*
X-135631Y-46217D02*
X-131991D01*
X-135596Y-46252D02*
X-131921D01*
X-135596Y-46287D02*
X-131886D01*
X-135561Y-46322D02*
X-131851D01*
X-135561Y-46357D02*
X-131781D01*
X-135561Y-46392D02*
X-131746D01*
X-135526Y-46427D02*
X-131711D01*
X-135526Y-46462D02*
X-131641D01*
X-135491Y-46497D02*
X-131606D01*
X-135491Y-46532D02*
X-131571D01*
X-135491Y-46567D02*
X-131571D01*
X-135456Y-46602D02*
X-131571D01*
X-135456Y-46637D02*
X-131571D01*
X-135421Y-46672D02*
X-131606D01*
X-135421Y-46707D02*
X-131606D01*
X-135421Y-46742D02*
X-131606D01*
X-135421Y-47757D02*
X-132026D01*
X-135456Y-47792D02*
X-132061D01*
X-135456Y-47827D02*
X-132061D01*
X-135491Y-47862D02*
X-132096D01*
X-135526Y-47897D02*
X-132096D01*
X-135526Y-47932D02*
X-132096D01*
X-135561Y-47967D02*
X-132131D01*
X-135596Y-48002D02*
X-132131D01*
X-135596Y-48037D02*
X-132166D01*
X-135631Y-48072D02*
X-132166D01*
X-135666Y-48107D02*
X-132201D01*
X-135701Y-48142D02*
X-132201D01*
X-135701Y-48177D02*
X-132201D01*
X-135736Y-48212D02*
X-132236D01*
X-135771Y-48247D02*
X-132236D01*
X-135771Y-48282D02*
X-132271D01*
X-135806Y-48317D02*
X-132271D01*
X-135841Y-48352D02*
X-132271D01*
X-135841Y-48387D02*
X-132306D01*
X-135876Y-48422D02*
X-132306D01*
X-135911Y-48457D02*
X-132341D01*
X-135911Y-48492D02*
X-132341D01*
X-135946Y-48527D02*
X-132341D01*
X-135981Y-48562D02*
X-132376D01*
X-136016Y-48597D02*
X-132376D01*
X-136016Y-48632D02*
X-132411D01*
X-136051Y-48667D02*
X-132411D01*
X-136086Y-48702D02*
X-132446D01*
X-136086Y-48737D02*
X-132446D01*
X-136086Y-48772D02*
X-132446D01*
X-136086Y-48807D02*
X-132481D01*
X-136086Y-48842D02*
X-132481D01*
X-136051Y-48877D02*
X-132516D01*
X-136016Y-48912D02*
X-132516D01*
X-135981Y-48947D02*
X-132551D01*
X-135946Y-48982D02*
X-132551D01*
X-135911Y-49017D02*
X-132551D01*
X-135876Y-49052D02*
X-132586D01*
X-135841Y-49087D02*
X-132586D01*
X-135806Y-49122D02*
X-132621D01*
X-135771Y-49157D02*
X-133531D01*
X-135736Y-49192D02*
X-133566D01*
X-135701Y-49227D02*
X-133601D01*
X-135666Y-49262D02*
X-133671D01*
X-135631Y-49297D02*
X-133706D01*
X-135596Y-49332D02*
X-133776D01*
X-135561Y-49367D02*
X-133811D01*
X-135491Y-49437D02*
X-133916D01*
X-135456Y-49472D02*
X-133986D01*
X-135421Y-49507D02*
X-134021D01*
X-132901Y-49402D02*
X-132726D01*
X-128946D02*
X-128771D01*
X-126881Y-39532D02*
X-126776D01*
X-126951Y-39567D02*
X-126741D01*
X-126986Y-39602D02*
X-126706D01*
X-127056Y-39637D02*
X-126671D01*
X-127091Y-39672D02*
X-126636D01*
X-127161Y-39707D02*
X-126601D01*
X-127196Y-39742D02*
X-126566D01*
X-127266Y-39777D02*
X-126531D01*
X-127301Y-39812D02*
X-126496D01*
X-127371Y-39847D02*
X-126461D01*
X-127406Y-39882D02*
X-126426D01*
X-127371Y-49682D02*
X-126426D01*
X-127336Y-49717D02*
X-126461D01*
X-127266Y-49752D02*
X-126496D01*
X-127231Y-49787D02*
X-126531D01*
X-127161Y-49822D02*
X-126566D01*
X-127126Y-49857D02*
X-126601D01*
X-127091Y-49892D02*
X-126636D01*
X-127021Y-49927D02*
X-126671D01*
X-126986Y-49962D02*
X-126706D01*
X-126916Y-49997D02*
X-126741D01*
X-126846Y-50032D02*
X-126811D01*
X-131711Y-38202D02*
X-129961D01*
X-131746Y-38237D02*
X-129926D01*
X-131746Y-38272D02*
X-129926D01*
X-131746Y-38307D02*
X-129891D01*
X-131781Y-38342D02*
X-129891D01*
X-131781Y-38377D02*
X-129891D01*
X-131781Y-38412D02*
X-129891D01*
X-131781Y-38447D02*
X-129891D01*
X-131781Y-38482D02*
X-129856D01*
X-131781Y-38517D02*
X-129856D01*
X-131816Y-38552D02*
X-129856D01*
X-131816Y-38587D02*
X-129856D01*
X-131816Y-38622D02*
X-129856D01*
X-131816Y-38657D02*
X-129856D01*
X-131816Y-38692D02*
X-129821D01*
X-131851Y-38727D02*
X-129821D01*
X-131851Y-38762D02*
X-129821D01*
X-131851Y-38797D02*
X-129821D01*
X-131851Y-38832D02*
X-129821D01*
X-131851Y-38867D02*
X-129786D01*
X-131886Y-38902D02*
X-129786D01*
X-131886Y-38937D02*
X-129786D01*
X-131886Y-38972D02*
X-129786D01*
X-131886Y-39007D02*
X-129786D01*
X-131886Y-39042D02*
X-129751D01*
X-131886Y-39077D02*
X-129751D01*
X-131921Y-39112D02*
X-129751D01*
X-131921Y-39147D02*
X-129751D01*
X-131921Y-39182D02*
X-129751D01*
X-131921Y-39217D02*
X-129751D01*
X-131921Y-39252D02*
X-129716D01*
X-131956Y-39287D02*
X-129716D01*
X-131956Y-39322D02*
X-129716D01*
X-131956Y-39357D02*
X-129716D01*
X-131956Y-39392D02*
X-129716D01*
X-131956Y-39427D02*
X-129681D01*
X-131991Y-39462D02*
X-129681D01*
X-131991Y-39497D02*
X-129681D01*
X-134896Y-39532D02*
X-134756D01*
X-131991D02*
X-129681D01*
X-134931Y-39567D02*
X-134721D01*
X-131991D02*
X-129681D01*
X-134966Y-39602D02*
X-134651D01*
X-131991D02*
X-129681D01*
X-135001Y-39637D02*
X-134616D01*
X-131991D02*
X-129646D01*
X-135036Y-39672D02*
X-134581D01*
X-132026D02*
X-129646D01*
X-135071Y-39707D02*
X-134511D01*
X-132026D02*
X-129646D01*
X-135106Y-39742D02*
X-134476D01*
X-132026D02*
X-129646D01*
X-135141Y-39777D02*
X-134406D01*
X-132026D02*
X-129646D01*
X-135176Y-39812D02*
X-134371D01*
X-132026D02*
X-129611D01*
X-135211Y-39847D02*
X-134301D01*
X-132061D02*
X-129611D01*
X-135246Y-39882D02*
X-134266D01*
X-132061D02*
X-129611D01*
X-135281Y-39917D02*
X-134196D01*
X-132061D02*
X-129611D01*
X-135316Y-39952D02*
X-134161D01*
X-132061D02*
X-129576D01*
X-135351Y-39987D02*
X-134091D01*
X-132096D02*
X-129576D01*
X-135386Y-40022D02*
X-134056D01*
X-132131D02*
X-129541D01*
X-132201Y-40057D02*
X-129436D01*
X-132306Y-40092D02*
X-129366D01*
X-132376Y-40127D02*
X-129261D01*
X-132481Y-40162D02*
X-129191D01*
X-132551Y-40197D02*
X-129121D01*
X-132656Y-40232D02*
X-129016D01*
X-132726Y-40267D02*
X-128946D01*
X-132831Y-40302D02*
X-128841D01*
X-132901Y-40337D02*
X-128771D01*
X-133006Y-40372D02*
X-128666D01*
X-133076Y-40407D02*
X-128596D01*
X-133146Y-40442D02*
X-128491D01*
X-133251Y-40477D02*
X-128421D01*
X-135141Y-42192D02*
X-129896D01*
X-135386Y-46777D02*
X-131641D01*
X-135386Y-46812D02*
X-131641D01*
X-135351Y-46847D02*
X-131676D01*
X-135351Y-46882D02*
X-131676D01*
X-135351Y-46917D02*
X-131711D01*
X-135316Y-46952D02*
X-131711D01*
X-135316Y-46987D02*
X-131711D01*
X-135281Y-47022D02*
X-131746D01*
X-135281Y-47057D02*
X-131746D01*
X-135281Y-47092D02*
X-131781D01*
X-135246Y-47127D02*
X-131781D01*
X-135246Y-47162D02*
X-131781D01*
X-135211Y-47197D02*
X-131816D01*
X-135211Y-47232D02*
X-131816D01*
X-135211Y-47267D02*
X-131851D01*
X-135176Y-47302D02*
X-131851D01*
X-135176Y-47337D02*
X-131851D01*
X-135176Y-47372D02*
X-131886D01*
X-135176Y-47407D02*
X-131886D01*
X-135211Y-47442D02*
X-131921D01*
X-135246Y-47477D02*
X-131921D01*
X-135246Y-47512D02*
X-131921D01*
X-135281Y-47547D02*
X-131956D01*
X-135316Y-47582D02*
X-131956D01*
X-135316Y-47617D02*
X-131991D01*
X-135351Y-47652D02*
X-131991D01*
X-135386Y-47687D02*
X-132026D01*
X-135386Y-47722D02*
X-132026D01*
X-133356Y-49157D02*
X-132621D01*
X-129051D02*
X-128316D01*
X-133286Y-49192D02*
X-132621D01*
X-129016D02*
X-128351D01*
X-133251Y-49227D02*
X-132656D01*
X-129016D02*
X-128421D01*
X-133181Y-49262D02*
X-132656D01*
X-129016D02*
X-128491D01*
X-133111Y-49297D02*
X-132691D01*
X-128981D02*
X-128561D01*
X-133041Y-49332D02*
X-132691D01*
X-128981D02*
X-128631D01*
X-132971Y-49367D02*
X-132691D01*
X-128946D02*
X-128701D01*
X-132831Y-49437D02*
X-132761D01*
X-128911D02*
X-128841D01*
X-135386Y-49542D02*
X-134091D01*
X-135351Y-49577D02*
X-134126D01*
X-135316Y-49612D02*
X-134196D01*
X-135281Y-49647D02*
X-134231D01*
X-135246Y-49682D02*
X-134301D01*
X-135211Y-49717D02*
X-134336D01*
X-135176Y-49752D02*
X-134406D01*
X-135141Y-49787D02*
X-134441D01*
X-135106Y-49822D02*
X-134476D01*
X-135071Y-49857D02*
X-134546D01*
X-135036Y-49892D02*
X-134581D01*
X-135001Y-49927D02*
X-134651D01*
X-134966Y-49962D02*
X-134686D01*
X-134931Y-49997D02*
X-134756D01*
X-134861Y-50032D02*
X-134791D01*
D14*
X-30709Y31496D02*
X30709D01*
Y-29921D02*
Y31496D01*
X-30709Y-29921D02*
X30709D01*
X-30709D02*
Y31496D01*
X-75394Y25591D02*
X-68701D01*
Y12205D02*
X-66732Y13780D01*
X-68701Y25591D02*
X-66732Y24016D01*
X-75394Y12205D02*
X-68701D01*
X-66732Y13780D02*
Y24016D01*
X-88779Y12205D02*
Y25591D01*
X-81299D01*
X-88779Y12205D02*
X-81299D01*
X-78622Y-26417D02*
Y3583D01*
Y-26417D02*
X-68622D01*
Y3583D01*
X-78622D02*
X-68622D01*
X108661Y-19094D02*
Y-11614D01*
X95276Y-19094D02*
Y-11614D01*
Y-19094D02*
X108661D01*
X96850Y2953D02*
X107087D01*
X108661Y-5709D02*
Y984D01*
X95276Y984D02*
X96850Y2953D01*
X107087Y2953D02*
X108661Y984D01*
X95276Y-5709D02*
Y984D01*
X-787Y38582D02*
X-1574Y39369D01*
X-3149D01*
X-3936Y38582D01*
Y37795D01*
X-3149Y37008D01*
X-1574D01*
X-787Y36221D01*
Y35434D01*
X-1574Y34646D01*
X-3149D01*
X-3936Y35434D01*
X787Y39369D02*
Y34646D01*
X2361Y36221D01*
X3936Y34646D01*
Y39369D01*
X-79919Y9742D02*
X-80707Y10529D01*
X-82281D01*
X-83068Y9742D01*
Y8955D01*
X-82281Y8168D01*
X-80707D01*
X-79919Y7381D01*
Y6593D01*
X-80707Y5806D01*
X-82281D01*
X-83068Y6593D01*
X-78345Y10529D02*
Y5806D01*
X-75984D01*
X-75197Y6593D01*
Y7381D01*
X-75984Y8168D01*
X-78345D01*
X-75984D01*
X-75197Y8955D01*
Y9742D01*
X-75984Y10529D01*
X-78345D01*
X-73622D02*
Y6593D01*
X-72835Y5806D01*
X-71261D01*
X-70474Y6593D01*
Y10529D01*
X-65751Y9742D02*
X-66538Y10529D01*
X-68112D01*
X-68899Y9742D01*
Y8955D01*
X-68112Y8168D01*
X-66538D01*
X-65751Y7381D01*
Y6593D01*
X-66538Y5806D01*
X-68112D01*
X-68899Y6593D01*
X98820Y-22737D02*
X98033Y-21950D01*
X96458D01*
X95671Y-22737D01*
Y-25885D01*
X96458Y-26673D01*
X98033D01*
X98820Y-25885D01*
X100394Y-26673D02*
X101968D01*
X101181D01*
Y-21950D01*
X100394Y-22737D01*
X107478Y-26673D02*
X104330D01*
X107478Y-23524D01*
Y-22737D01*
X106691Y-21950D01*
X105117D01*
X104330Y-22737D01*
X-69356Y30052D02*
X-70012Y30708D01*
X-71324D01*
X-71980Y30052D01*
Y27428D01*
X-71324Y26772D01*
X-70012D01*
X-69356Y27428D01*
X-68045Y26772D02*
X-66733D01*
X-67388D01*
Y30708D01*
X-68045Y30052D01*
X-64765Y26772D02*
X-63453D01*
X-64109D01*
Y30708D01*
X-64765Y30052D01*
D15*
X-81350Y-2442D02*
X-80498Y-1590D01*
Y116D01*
X-81350Y969D01*
X-82203D01*
X-83056Y116D01*
Y-1590D01*
X-83909Y-2442D01*
X-84761D01*
X-85614Y-1590D01*
Y116D01*
X-84761Y969D01*
X-83056Y-9264D02*
Y-12675D01*
X-81350Y-10970D02*
X-84761D01*
X-83056Y-19497D02*
Y-22908D01*
D16*
X-128445Y-41978D02*
D03*
D03*
M02*
