G04*
G04 #@! TF.GenerationSoftware,Altium Limited,Altium Designer,20.0.9 (164)*
G04*
G04 Layer_Color=2752767*
%FSLAX25Y25*%
%MOIN*%
G70*
G01*
G75*
%ADD15C,0.01000*%
%ADD52C,0.00200*%
%ADD53C,0.00267*%
%ADD54C,0.00133*%
%ADD55C,0.01600*%
%ADD56C,0.00800*%
%ADD57C,0.00467*%
D15*
X249994Y169213D02*
X251993D01*
X250994D01*
Y175211D01*
X249994Y174211D01*
X319575Y169213D02*
X321575D01*
X320575D01*
Y175211D01*
X319575Y174211D01*
X324574Y169213D02*
Y170212D01*
X325573D01*
Y169213D01*
X324574D01*
X333571Y175211D02*
X331571Y174211D01*
X329572Y172212D01*
Y170212D01*
X330572Y169213D01*
X332571D01*
X333571Y170212D01*
Y171212D01*
X332571Y172212D01*
X329572D01*
X335570Y170212D02*
X336570Y169213D01*
X338569D01*
X339569Y170212D01*
Y174211D01*
X338569Y175211D01*
X336570D01*
X335570Y174211D01*
Y173211D01*
X336570Y172212D01*
X339569D01*
X341568Y174211D02*
X342568Y175211D01*
X344567D01*
X345567Y174211D01*
Y173211D01*
X344567Y172212D01*
X343567D01*
X344567D01*
X345567Y171212D01*
Y170212D01*
X344567Y169213D01*
X342568D01*
X341568Y170212D01*
X347566Y169213D02*
Y173211D01*
X348566D01*
X349566Y172212D01*
Y169213D01*
Y172212D01*
X350565Y173211D01*
X351565Y172212D01*
Y169213D01*
X353564D02*
X355564D01*
X354564D01*
Y173211D01*
X353564D01*
X358563Y169213D02*
X360562D01*
X359562D01*
Y175211D01*
X358563D01*
X371558Y169213D02*
X369559Y171212D01*
Y173211D01*
X371558Y175211D01*
X374557Y174211D02*
X375557Y175211D01*
X377556D01*
X378556Y174211D01*
Y170212D01*
X377556Y169213D01*
X375557D01*
X374557Y170212D01*
Y174211D01*
X380556Y169213D02*
Y170212D01*
X381555D01*
Y169213D01*
X380556D01*
X385554Y174211D02*
X386554Y175211D01*
X388553D01*
X389553Y174211D01*
Y170212D01*
X388553Y169213D01*
X386554D01*
X385554Y170212D01*
Y174211D01*
X394551Y169213D02*
Y175211D01*
X391552Y172212D01*
X395551D01*
X397550Y174211D02*
X398550Y175211D01*
X400549D01*
X401549Y174211D01*
Y173211D01*
X400549Y172212D01*
X399549D01*
X400549D01*
X401549Y171212D01*
Y170212D01*
X400549Y169213D01*
X398550D01*
X397550Y170212D01*
X403548Y169213D02*
Y173211D01*
X404548D01*
X405547Y172212D01*
Y169213D01*
Y172212D01*
X406547Y173211D01*
X407547Y172212D01*
Y169213D01*
X409546D02*
Y173211D01*
X410546D01*
X411546Y172212D01*
Y169213D01*
Y172212D01*
X412545Y173211D01*
X413545Y172212D01*
Y169213D01*
X415544D02*
X417544Y171212D01*
Y173211D01*
X415544Y175211D01*
X453936Y169213D02*
Y175211D01*
X456935D01*
X457934Y174211D01*
Y172212D01*
X456935Y171212D01*
X453936D01*
X459934Y175211D02*
X463932D01*
X461933D01*
Y169213D01*
X465932Y175211D02*
Y169213D01*
Y172212D01*
X469931D01*
Y175211D01*
Y169213D01*
X504323D02*
Y175211D01*
X507322D01*
X508322Y174211D01*
Y172212D01*
X507322Y171212D01*
X504323D01*
X506323D02*
X508322Y169213D01*
X511321D02*
X513320D01*
X514320Y170212D01*
Y172212D01*
X513320Y173211D01*
X511321D01*
X510321Y172212D01*
Y170212D01*
X511321Y169213D01*
X516319Y173211D02*
Y170212D01*
X517319Y169213D01*
X520318D01*
Y173211D01*
X522317Y169213D02*
Y173211D01*
X525316D01*
X526316Y172212D01*
Y169213D01*
X532314Y175211D02*
Y169213D01*
X529315D01*
X528315Y170212D01*
Y172212D01*
X529315Y173211D01*
X532314D01*
X253993Y157213D02*
X249994D01*
X253993Y161211D01*
Y162211D01*
X252993Y163211D01*
X250994D01*
X249994Y162211D01*
X258991Y157213D02*
Y163211D01*
X255992Y160212D01*
X259991D01*
X319575Y157213D02*
X321575D01*
X320575D01*
Y163211D01*
X319575Y162211D01*
X328572Y163211D02*
X324574D01*
Y160212D01*
X326573Y161211D01*
X327573D01*
X328572Y160212D01*
Y158212D01*
X327573Y157213D01*
X325573D01*
X324574Y158212D01*
X330572Y157213D02*
Y158212D01*
X331571D01*
Y157213D01*
X330572D01*
X335570Y163211D02*
X339569D01*
Y162211D01*
X335570Y158212D01*
Y157213D01*
X344567D02*
Y163211D01*
X341568Y160212D01*
X345567D01*
X347566Y162211D02*
X348566Y163211D01*
X350565D01*
X351565Y162211D01*
Y161211D01*
X350565Y160212D01*
X351565Y159212D01*
Y158212D01*
X350565Y157213D01*
X348566D01*
X347566Y158212D01*
Y159212D01*
X348566Y160212D01*
X347566Y161211D01*
Y162211D01*
X348566Y160212D02*
X350565D01*
X353564Y157213D02*
Y161211D01*
X354564D01*
X355564Y160212D01*
Y157213D01*
Y160212D01*
X356563Y161211D01*
X357563Y160212D01*
Y157213D01*
X359562D02*
X361562D01*
X360562D01*
Y161211D01*
X359562D01*
X364561Y157213D02*
X366560D01*
X365560D01*
Y163211D01*
X364561D01*
X377556Y157213D02*
X375557Y159212D01*
Y161211D01*
X377556Y163211D01*
X380556Y162211D02*
X381555Y163211D01*
X383555D01*
X384554Y162211D01*
Y158212D01*
X383555Y157213D01*
X381555D01*
X380556Y158212D01*
Y162211D01*
X386554Y157213D02*
Y158212D01*
X387553D01*
Y157213D01*
X386554D01*
X394551D02*
Y163211D01*
X391552Y160212D01*
X395551D01*
X397550Y157213D02*
Y161211D01*
X398550D01*
X399549Y160212D01*
Y157213D01*
Y160212D01*
X400549Y161211D01*
X401549Y160212D01*
Y157213D01*
X403548D02*
Y161211D01*
X404548D01*
X405547Y160212D01*
Y157213D01*
Y160212D01*
X406547Y161211D01*
X407547Y160212D01*
Y157213D01*
X409546D02*
X411546Y159212D01*
Y161211D01*
X409546Y163211D01*
X453936Y157213D02*
Y163211D01*
X456935D01*
X457934Y162211D01*
Y160212D01*
X456935Y159212D01*
X453936D01*
X459934Y163211D02*
X463932D01*
X461933D01*
Y157213D01*
X465932Y163211D02*
Y157213D01*
Y160212D01*
X469931D01*
Y163211D01*
Y157213D01*
X504323D02*
Y163211D01*
X507322D01*
X508322Y162211D01*
Y160212D01*
X507322Y159212D01*
X504323D01*
X506323D02*
X508322Y157213D01*
X511321D02*
X513320D01*
X514320Y158212D01*
Y160212D01*
X513320Y161211D01*
X511321D01*
X510321Y160212D01*
Y158212D01*
X511321Y157213D01*
X516319Y161211D02*
Y158212D01*
X517319Y157213D01*
X520318D01*
Y161211D01*
X522317Y157213D02*
Y161211D01*
X525316D01*
X526316Y160212D01*
Y157213D01*
X532314Y163211D02*
Y157213D01*
X529315D01*
X528315Y158212D01*
Y160212D01*
X529315Y161211D01*
X532314D01*
X249994Y150211D02*
X250994Y151211D01*
X252993D01*
X253993Y150211D01*
Y149211D01*
X252993Y148212D01*
X251993D01*
X252993D01*
X253993Y147212D01*
Y146212D01*
X252993Y145213D01*
X250994D01*
X249994Y146212D01*
X319575Y150211D02*
X320575Y151211D01*
X322574D01*
X323574Y150211D01*
Y149211D01*
X322574Y148212D01*
X321575D01*
X322574D01*
X323574Y147212D01*
Y146212D01*
X322574Y145213D01*
X320575D01*
X319575Y146212D01*
X329572Y151211D02*
X325573D01*
Y148212D01*
X327573Y149211D01*
X328572D01*
X329572Y148212D01*
Y146212D01*
X328572Y145213D01*
X326573D01*
X325573Y146212D01*
X331571Y145213D02*
Y146212D01*
X332571D01*
Y145213D01*
X331571D01*
X339569D02*
Y151211D01*
X336570Y148212D01*
X340568D01*
X342568Y150211D02*
X343567Y151211D01*
X345567D01*
X346567Y150211D01*
Y149211D01*
X345567Y148212D01*
X344567D01*
X345567D01*
X346567Y147212D01*
Y146212D01*
X345567Y145213D01*
X343567D01*
X342568Y146212D01*
X348566Y150211D02*
X349566Y151211D01*
X351565D01*
X352565Y150211D01*
Y149211D01*
X351565Y148212D01*
X350565D01*
X351565D01*
X352565Y147212D01*
Y146212D01*
X351565Y145213D01*
X349566D01*
X348566Y146212D01*
X354564Y145213D02*
Y149211D01*
X355564D01*
X356563Y148212D01*
Y145213D01*
Y148212D01*
X357563Y149211D01*
X358563Y148212D01*
Y145213D01*
X360562D02*
X362561D01*
X361562D01*
Y149211D01*
X360562D01*
X365560Y145213D02*
X367560D01*
X366560D01*
Y151211D01*
X365560D01*
X378556Y145213D02*
X376557Y147212D01*
Y149211D01*
X378556Y151211D01*
X381555Y150211D02*
X382555Y151211D01*
X384554D01*
X385554Y150211D01*
Y146212D01*
X384554Y145213D01*
X382555D01*
X381555Y146212D01*
Y150211D01*
X387553Y145213D02*
Y146212D01*
X388553D01*
Y145213D01*
X387553D01*
X392552Y146212D02*
X393551Y145213D01*
X395551D01*
X396550Y146212D01*
Y150211D01*
X395551Y151211D01*
X393551D01*
X392552Y150211D01*
Y149211D01*
X393551Y148212D01*
X396550D01*
X398550Y145213D02*
Y149211D01*
X399549D01*
X400549Y148212D01*
Y145213D01*
Y148212D01*
X401549Y149211D01*
X402548Y148212D01*
Y145213D01*
X404548D02*
Y149211D01*
X405547D01*
X406547Y148212D01*
Y145213D01*
Y148212D01*
X407547Y149211D01*
X408546Y148212D01*
Y145213D01*
X410546D02*
X412545Y147212D01*
Y149211D01*
X410546Y151211D01*
X453936Y145213D02*
Y151211D01*
X456935D01*
X457934Y150211D01*
Y148212D01*
X456935Y147212D01*
X453936D01*
X459934Y151211D02*
X463932D01*
X461933D01*
Y145213D01*
X465932Y151211D02*
Y145213D01*
Y148212D01*
X469931D01*
Y151211D01*
Y145213D01*
X504323D02*
Y151211D01*
X507322D01*
X508322Y150211D01*
Y148212D01*
X507322Y147212D01*
X504323D01*
X506323D02*
X508322Y145213D01*
X511321D02*
X513320D01*
X514320Y146212D01*
Y148212D01*
X513320Y149211D01*
X511321D01*
X510321Y148212D01*
Y146212D01*
X511321Y145213D01*
X516319Y149211D02*
Y146212D01*
X517319Y145213D01*
X520318D01*
Y149211D01*
X522317Y145213D02*
Y149211D01*
X525316D01*
X526316Y148212D01*
Y145213D01*
X532314Y151211D02*
Y145213D01*
X529315D01*
X528315Y146212D01*
Y148212D01*
X529315Y149211D01*
X532314D01*
X249994Y138211D02*
X250994Y139211D01*
X252993D01*
X253993Y138211D01*
Y137211D01*
X252993Y136212D01*
X251993D01*
X252993D01*
X253993Y135212D01*
Y134212D01*
X252993Y133213D01*
X250994D01*
X249994Y134212D01*
X322574Y133213D02*
Y139211D01*
X319575Y136212D01*
X323574D01*
X325573Y139211D02*
X329572D01*
Y138211D01*
X325573Y134212D01*
Y133213D01*
X331571D02*
Y134212D01*
X332571D01*
Y133213D01*
X331571D01*
X340568D02*
X336570D01*
X340568Y137211D01*
Y138211D01*
X339569Y139211D01*
X337569D01*
X336570Y138211D01*
X345567Y133213D02*
Y139211D01*
X342568Y136212D01*
X346567D01*
X351565Y133213D02*
Y139211D01*
X348566Y136212D01*
X352565D01*
X354564Y133213D02*
Y137211D01*
X355564D01*
X356563Y136212D01*
Y133213D01*
Y136212D01*
X357563Y137211D01*
X358563Y136212D01*
Y133213D01*
X360562D02*
X362561D01*
X361562D01*
Y137211D01*
X360562D01*
X365560Y133213D02*
X367560D01*
X366560D01*
Y139211D01*
X365560D01*
X378556Y133213D02*
X376557Y135212D01*
Y137211D01*
X378556Y139211D01*
X381555Y133213D02*
X383555D01*
X382555D01*
Y139211D01*
X381555Y138211D01*
X386554Y133213D02*
Y134212D01*
X387553D01*
Y133213D01*
X386554D01*
X395551D02*
X391552D01*
X395551Y137211D01*
Y138211D01*
X394551Y139211D01*
X392552D01*
X391552Y138211D01*
X397550Y133213D02*
Y137211D01*
X398550D01*
X399549Y136212D01*
Y133213D01*
Y136212D01*
X400549Y137211D01*
X401549Y136212D01*
Y133213D01*
X403548D02*
Y137211D01*
X404548D01*
X405547Y136212D01*
Y133213D01*
Y136212D01*
X406547Y137211D01*
X407547Y136212D01*
Y133213D01*
X409546D02*
X411546Y135212D01*
Y137211D01*
X409546Y139211D01*
X453936Y133213D02*
Y139211D01*
X456935D01*
X457934Y138211D01*
Y136212D01*
X456935Y135212D01*
X453936D01*
X459934Y139211D02*
X463932D01*
X461933D01*
Y133213D01*
X465932Y139211D02*
Y133213D01*
Y136212D01*
X469931D01*
Y139211D01*
Y133213D01*
X504323D02*
Y139211D01*
X507322D01*
X508322Y138211D01*
Y136212D01*
X507322Y135212D01*
X504323D01*
X506323D02*
X508322Y133213D01*
X511321D02*
X513320D01*
X514320Y134212D01*
Y136212D01*
X513320Y137211D01*
X511321D01*
X510321Y136212D01*
Y134212D01*
X511321Y133213D01*
X516319Y137211D02*
Y134212D01*
X517319Y133213D01*
X520318D01*
Y137211D01*
X522317Y133213D02*
Y137211D01*
X525316D01*
X526316Y136212D01*
Y133213D01*
X532314Y139211D02*
Y133213D01*
X529315D01*
X528315Y134212D01*
Y136212D01*
X529315Y137211D01*
X532314D01*
X253993Y121213D02*
X249994D01*
X253993Y125211D01*
Y126211D01*
X252993Y127211D01*
X250994D01*
X249994Y126211D01*
X323574Y127211D02*
X319575D01*
Y124212D01*
X321575Y125211D01*
X322574D01*
X323574Y124212D01*
Y122212D01*
X322574Y121213D01*
X320575D01*
X319575Y122212D01*
X325573D02*
X326573Y121213D01*
X328572D01*
X329572Y122212D01*
Y126211D01*
X328572Y127211D01*
X326573D01*
X325573Y126211D01*
Y125211D01*
X326573Y124212D01*
X329572D01*
X331571Y121213D02*
Y125211D01*
X332571D01*
X333571Y124212D01*
Y121213D01*
Y124212D01*
X334570Y125211D01*
X335570Y124212D01*
Y121213D01*
X337569D02*
X339569D01*
X338569D01*
Y125211D01*
X337569D01*
X342568Y121213D02*
X344567D01*
X343567D01*
Y127211D01*
X342568D01*
X355564Y121213D02*
X353564Y123212D01*
Y125211D01*
X355564Y127211D01*
X358563Y121213D02*
X360562D01*
X359562D01*
Y127211D01*
X358563Y126211D01*
X363561Y121213D02*
Y122212D01*
X364561D01*
Y121213D01*
X363561D01*
X371558D02*
Y127211D01*
X368559Y124212D01*
X372558D01*
X374557Y122212D02*
X375557Y121213D01*
X377556D01*
X378556Y122212D01*
Y126211D01*
X377556Y127211D01*
X375557D01*
X374557Y126211D01*
Y125211D01*
X375557Y124212D01*
X378556D01*
X380556Y126211D02*
X381555Y127211D01*
X383555D01*
X384554Y126211D01*
Y125211D01*
X383555Y124212D01*
X384554Y123212D01*
Y122212D01*
X383555Y121213D01*
X381555D01*
X380556Y122212D01*
Y123212D01*
X381555Y124212D01*
X380556Y125211D01*
Y126211D01*
X381555Y124212D02*
X383555D01*
X390552Y127211D02*
X388553Y126211D01*
X386554Y124212D01*
Y122212D01*
X387553Y121213D01*
X389553D01*
X390552Y122212D01*
Y123212D01*
X389553Y124212D01*
X386554D01*
X392552Y121213D02*
Y125211D01*
X393551D01*
X394551Y124212D01*
Y121213D01*
Y124212D01*
X395551Y125211D01*
X396550Y124212D01*
Y121213D01*
X398550D02*
Y125211D01*
X399549D01*
X400549Y124212D01*
Y121213D01*
Y124212D01*
X401549Y125211D01*
X402548Y124212D01*
Y121213D01*
X404548D02*
X406547Y123212D01*
Y125211D01*
X404548Y127211D01*
X453936Y121213D02*
Y127211D01*
X456935D01*
X457934Y126211D01*
Y124212D01*
X456935Y123212D01*
X453936D01*
X459934Y127211D02*
X463932D01*
X461933D01*
Y121213D01*
X465932Y127211D02*
Y121213D01*
Y124212D01*
X469931D01*
Y127211D01*
Y121213D01*
X504323D02*
Y127211D01*
X507322D01*
X508322Y126211D01*
Y124212D01*
X507322Y123212D01*
X504323D01*
X506323D02*
X508322Y121213D01*
X511321D02*
X513320D01*
X514320Y122212D01*
Y124212D01*
X513320Y125211D01*
X511321D01*
X510321Y124212D01*
Y122212D01*
X511321Y121213D01*
X516319Y125211D02*
Y122212D01*
X517319Y121213D01*
X520318D01*
Y125211D01*
X522317Y121213D02*
Y125211D01*
X525316D01*
X526316Y124212D01*
Y121213D01*
X532314Y127211D02*
Y121213D01*
X529315D01*
X528315Y122212D01*
Y124212D01*
X529315Y125211D01*
X532314D01*
X253993Y109213D02*
X249994D01*
X253993Y113211D01*
Y114211D01*
X252993Y115211D01*
X250994D01*
X249994Y114211D01*
X323574Y115211D02*
X321575Y114211D01*
X319575Y112212D01*
Y110212D01*
X320575Y109213D01*
X322574D01*
X323574Y110212D01*
Y111212D01*
X322574Y112212D01*
X319575D01*
X325573Y115211D02*
X329572D01*
Y114211D01*
X325573Y110212D01*
Y109213D01*
X331571D02*
Y113211D01*
X332571D01*
X333571Y112212D01*
Y109213D01*
Y112212D01*
X334570Y113211D01*
X335570Y112212D01*
Y109213D01*
X337569D02*
X339569D01*
X338569D01*
Y113211D01*
X337569D01*
X342568Y109213D02*
X344567D01*
X343567D01*
Y115211D01*
X342568D01*
X355564Y109213D02*
X353564Y111212D01*
Y113211D01*
X355564Y115211D01*
X358563Y109213D02*
X360562D01*
X359562D01*
Y115211D01*
X358563Y114211D01*
X363561Y109213D02*
Y110212D01*
X364561D01*
Y109213D01*
X363561D01*
X368559Y115211D02*
X372558D01*
Y114211D01*
X368559Y110212D01*
Y109213D01*
X374557Y114211D02*
X375557Y115211D01*
X377556D01*
X378556Y114211D01*
Y110212D01*
X377556Y109213D01*
X375557D01*
X374557Y110212D01*
Y114211D01*
X380556Y109213D02*
X382555D01*
X381555D01*
Y115211D01*
X380556Y114211D01*
X385554D02*
X386554Y115211D01*
X388553D01*
X389553Y114211D01*
Y113211D01*
X388553Y112212D01*
X389553Y111212D01*
Y110212D01*
X388553Y109213D01*
X386554D01*
X385554Y110212D01*
Y111212D01*
X386554Y112212D01*
X385554Y113211D01*
Y114211D01*
X386554Y112212D02*
X388553D01*
X391552Y109213D02*
Y113211D01*
X392552D01*
X393551Y112212D01*
Y109213D01*
Y112212D01*
X394551Y113211D01*
X395551Y112212D01*
Y109213D01*
X397550D02*
Y113211D01*
X398550D01*
X399549Y112212D01*
Y109213D01*
Y112212D01*
X400549Y113211D01*
X401549Y112212D01*
Y109213D01*
X403548D02*
X405547Y111212D01*
Y113211D01*
X403548Y115211D01*
X453936Y109213D02*
Y115211D01*
X457934Y109213D01*
Y115211D01*
X459934Y109213D02*
Y115211D01*
X462933D01*
X463932Y114211D01*
Y112212D01*
X462933Y111212D01*
X459934D01*
X465932Y115211D02*
X469931D01*
X467931D01*
Y109213D01*
X471930Y115211D02*
Y109213D01*
Y112212D01*
X475928D01*
Y115211D01*
Y109213D01*
X504323D02*
Y115211D01*
X507322D01*
X508322Y114211D01*
Y112212D01*
X507322Y111212D01*
X504323D01*
X506323D02*
X508322Y109213D01*
X511321D02*
X513320D01*
X514320Y110212D01*
Y112212D01*
X513320Y113211D01*
X511321D01*
X510321Y112212D01*
Y110212D01*
X511321Y109213D01*
X516319Y113211D02*
Y110212D01*
X517319Y109213D01*
X520318D01*
Y113211D01*
X522317Y109213D02*
Y113211D01*
X525316D01*
X526316Y112212D01*
Y109213D01*
X532314Y115211D02*
Y109213D01*
X529315D01*
X528315Y110212D01*
Y112212D01*
X529315Y113211D01*
X532314D01*
X253993Y97213D02*
X249994D01*
X253993Y101211D01*
Y102211D01*
X252993Y103211D01*
X250994D01*
X249994Y102211D01*
X319575Y97213D02*
X321575D01*
X320575D01*
Y103211D01*
X319575Y102211D01*
X324574D02*
X325573Y103211D01*
X327573D01*
X328572Y102211D01*
Y98212D01*
X327573Y97213D01*
X325573D01*
X324574Y98212D01*
Y102211D01*
X334570Y103211D02*
X332571Y102211D01*
X330572Y100212D01*
Y98212D01*
X331571Y97213D01*
X333571D01*
X334570Y98212D01*
Y99212D01*
X333571Y100212D01*
X330572D01*
X336570Y97213D02*
Y98212D01*
X337569D01*
Y97213D01*
X336570D01*
X345567D02*
X341568D01*
X345567Y101211D01*
Y102211D01*
X344567Y103211D01*
X342568D01*
X341568Y102211D01*
X347566Y98212D02*
X348566Y97213D01*
X350565D01*
X351565Y98212D01*
Y102211D01*
X350565Y103211D01*
X348566D01*
X347566Y102211D01*
Y101211D01*
X348566Y100212D01*
X351565D01*
X353564Y98212D02*
X354564Y97213D01*
X356563D01*
X357563Y98212D01*
Y102211D01*
X356563Y103211D01*
X354564D01*
X353564Y102211D01*
Y101211D01*
X354564Y100212D01*
X357563D01*
X359562Y97213D02*
Y101211D01*
X360562D01*
X361562Y100212D01*
Y97213D01*
Y100212D01*
X362561Y101211D01*
X363561Y100212D01*
Y97213D01*
X365560D02*
X367560D01*
X366560D01*
Y101211D01*
X365560D01*
X370559Y97213D02*
X372558D01*
X371558D01*
Y103211D01*
X370559D01*
X383555Y97213D02*
X381555Y99212D01*
Y101211D01*
X383555Y103211D01*
X390552Y97213D02*
X386554D01*
X390552Y101211D01*
Y102211D01*
X389553Y103211D01*
X387553D01*
X386554Y102211D01*
X392552Y97213D02*
Y98212D01*
X393551D01*
Y97213D01*
X392552D01*
X397550Y103211D02*
X401549D01*
Y102211D01*
X397550Y98212D01*
Y97213D01*
X403548D02*
Y101211D01*
X404548D01*
X405547Y100212D01*
Y97213D01*
Y100212D01*
X406547Y101211D01*
X407547Y100212D01*
Y97213D01*
X409546D02*
Y101211D01*
X410546D01*
X411546Y100212D01*
Y97213D01*
Y100212D01*
X412545Y101211D01*
X413545Y100212D01*
Y97213D01*
X415544D02*
X417544Y99212D01*
Y101211D01*
X415544Y103211D01*
X453936Y97213D02*
Y103211D01*
X456935D01*
X457934Y102211D01*
Y100212D01*
X456935Y99212D01*
X453936D01*
X459934Y103211D02*
X463932D01*
X461933D01*
Y97213D01*
X465932Y103211D02*
Y97213D01*
Y100212D01*
X469931D01*
Y103211D01*
Y97213D01*
X504323D02*
Y103211D01*
X507322D01*
X508322Y102211D01*
Y100212D01*
X507322Y99212D01*
X504323D01*
X506323D02*
X508322Y97213D01*
X511321D02*
X513320D01*
X514320Y98212D01*
Y100212D01*
X513320Y101211D01*
X511321D01*
X510321Y100212D01*
Y98212D01*
X511321Y97213D01*
X516319Y101211D02*
Y98212D01*
X517319Y97213D01*
X520318D01*
Y101211D01*
X522317Y97213D02*
Y101211D01*
X525316D01*
X526316Y100212D01*
Y97213D01*
X532314Y103211D02*
Y97213D01*
X529315D01*
X528315Y98212D01*
Y100212D01*
X529315Y101211D01*
X532314D01*
X253993Y85213D02*
X249994D01*
X253993Y89211D01*
Y90211D01*
X252993Y91211D01*
X250994D01*
X249994Y90211D01*
X319575Y85213D02*
X321575D01*
X320575D01*
Y91211D01*
X319575Y90211D01*
X328572Y85213D02*
X324574D01*
X328572Y89211D01*
Y90211D01*
X327573Y91211D01*
X325573D01*
X324574Y90211D01*
X334570Y91211D02*
X330572D01*
Y88212D01*
X332571Y89211D01*
X333571D01*
X334570Y88212D01*
Y86212D01*
X333571Y85213D01*
X331571D01*
X330572Y86212D01*
X336570Y85213D02*
Y86212D01*
X337569D01*
Y85213D01*
X336570D01*
X341568Y86212D02*
X342568Y85213D01*
X344567D01*
X345567Y86212D01*
Y90211D01*
X344567Y91211D01*
X342568D01*
X341568Y90211D01*
Y89211D01*
X342568Y88212D01*
X345567D01*
X347566Y90211D02*
X348566Y91211D01*
X350565D01*
X351565Y90211D01*
Y89211D01*
X350565Y88212D01*
X351565Y87212D01*
Y86212D01*
X350565Y85213D01*
X348566D01*
X347566Y86212D01*
Y87212D01*
X348566Y88212D01*
X347566Y89211D01*
Y90211D01*
X348566Y88212D02*
X350565D01*
X356563Y85213D02*
Y91211D01*
X353564Y88212D01*
X357563D01*
X359562Y85213D02*
Y89211D01*
X360562D01*
X361562Y88212D01*
Y85213D01*
Y88212D01*
X362561Y89211D01*
X363561Y88212D01*
Y85213D01*
X365560D02*
X367560D01*
X366560D01*
Y89211D01*
X365560D01*
X370559Y85213D02*
X372558D01*
X371558D01*
Y91211D01*
X370559D01*
X383555Y85213D02*
X381555Y87212D01*
Y89211D01*
X383555Y91211D01*
X386554Y90211D02*
X387553Y91211D01*
X389553D01*
X390552Y90211D01*
Y89211D01*
X389553Y88212D01*
X388553D01*
X389553D01*
X390552Y87212D01*
Y86212D01*
X389553Y85213D01*
X387553D01*
X386554Y86212D01*
X392552Y85213D02*
Y86212D01*
X393551D01*
Y85213D01*
X392552D01*
X401549D02*
X397550D01*
X401549Y89211D01*
Y90211D01*
X400549Y91211D01*
X398550D01*
X397550Y90211D01*
X403548Y85213D02*
Y89211D01*
X404548D01*
X405547Y88212D01*
Y85213D01*
Y88212D01*
X406547Y89211D01*
X407547Y88212D01*
Y85213D01*
X409546D02*
Y89211D01*
X410546D01*
X411546Y88212D01*
Y85213D01*
Y88212D01*
X412545Y89211D01*
X413545Y88212D01*
Y85213D01*
X415544D02*
X417544Y87212D01*
Y89211D01*
X415544Y91211D01*
X453936Y85213D02*
Y91211D01*
X456935D01*
X457934Y90211D01*
Y88212D01*
X456935Y87212D01*
X453936D01*
X459934Y91211D02*
X463932D01*
X461933D01*
Y85213D01*
X465932Y91211D02*
Y85213D01*
Y88212D01*
X469931D01*
Y91211D01*
Y85213D01*
X504323D02*
Y91211D01*
X507322D01*
X508322Y90211D01*
Y88212D01*
X507322Y87212D01*
X504323D01*
X506323D02*
X508322Y85213D01*
X511321D02*
X513320D01*
X514320Y86212D01*
Y88212D01*
X513320Y89211D01*
X511321D01*
X510321Y88212D01*
Y86212D01*
X511321Y85213D01*
X516319Y89211D02*
Y86212D01*
X517319Y85213D01*
X520318D01*
Y89211D01*
X522317Y85213D02*
Y89211D01*
X525316D01*
X526316Y88212D01*
Y85213D01*
X532314Y91211D02*
Y85213D01*
X529315D01*
X528315Y86212D01*
Y88212D01*
X529315Y89211D01*
X532314D01*
X249994Y73213D02*
X251993D01*
X250994D01*
Y79211D01*
X249994Y78211D01*
X319575Y73213D02*
X321575D01*
X320575D01*
Y79211D01*
X319575Y78211D01*
X328572Y79211D02*
X324574D01*
Y76212D01*
X326573Y77211D01*
X327573D01*
X328572Y76212D01*
Y74212D01*
X327573Y73213D01*
X325573D01*
X324574Y74212D01*
X330572Y79211D02*
X334570D01*
Y78211D01*
X330572Y74212D01*
Y73213D01*
X336570D02*
Y77211D01*
X337569D01*
X338569Y76212D01*
Y73213D01*
Y76212D01*
X339569Y77211D01*
X340568Y76212D01*
Y73213D01*
X342568D02*
X344567D01*
X343567D01*
Y77211D01*
X342568D01*
X347566Y73213D02*
X349566D01*
X348566D01*
Y79211D01*
X347566D01*
X360562Y73213D02*
X358563Y75212D01*
Y77211D01*
X360562Y79211D01*
X363561Y78211D02*
X364561Y79211D01*
X366560D01*
X367560Y78211D01*
Y77211D01*
X366560Y76212D01*
X365560D01*
X366560D01*
X367560Y75212D01*
Y74212D01*
X366560Y73213D01*
X364561D01*
X363561Y74212D01*
X369559Y73213D02*
Y74212D01*
X370559D01*
Y73213D01*
X369559D01*
X374557Y74212D02*
X375557Y73213D01*
X377556D01*
X378556Y74212D01*
Y78211D01*
X377556Y79211D01*
X375557D01*
X374557Y78211D01*
Y77211D01*
X375557Y76212D01*
X378556D01*
X380556Y78211D02*
X381555Y79211D01*
X383555D01*
X384554Y78211D01*
Y77211D01*
X383555Y76212D01*
X384554Y75212D01*
Y74212D01*
X383555Y73213D01*
X381555D01*
X380556Y74212D01*
Y75212D01*
X381555Y76212D01*
X380556Y77211D01*
Y78211D01*
X381555Y76212D02*
X383555D01*
X386554Y79211D02*
X390552D01*
Y78211D01*
X386554Y74212D01*
Y73213D01*
X392552Y78211D02*
X393551Y79211D01*
X395551D01*
X396550Y78211D01*
Y77211D01*
X395551Y76212D01*
X396550Y75212D01*
Y74212D01*
X395551Y73213D01*
X393551D01*
X392552Y74212D01*
Y75212D01*
X393551Y76212D01*
X392552Y77211D01*
Y78211D01*
X393551Y76212D02*
X395551D01*
X398550Y73213D02*
Y77211D01*
X399549D01*
X400549Y76212D01*
Y73213D01*
Y76212D01*
X401549Y77211D01*
X402548Y76212D01*
Y73213D01*
X404548D02*
Y77211D01*
X405547D01*
X406547Y76212D01*
Y73213D01*
Y76212D01*
X407547Y77211D01*
X408546Y76212D01*
Y73213D01*
X410546D02*
X412545Y75212D01*
Y77211D01*
X410546Y79211D01*
X453936Y73213D02*
Y79211D01*
X457934Y73213D01*
Y79211D01*
X459934Y73213D02*
Y79211D01*
X462933D01*
X463932Y78211D01*
Y76212D01*
X462933Y75212D01*
X459934D01*
X465932Y79211D02*
X469931D01*
X467931D01*
Y73213D01*
X471930Y79211D02*
Y73213D01*
Y76212D01*
X475928D01*
Y79211D01*
Y73213D01*
X504323D02*
Y79211D01*
X507322D01*
X508322Y78211D01*
Y76212D01*
X507322Y75212D01*
X504323D01*
X506323D02*
X508322Y73213D01*
X511321D02*
X513320D01*
X514320Y74212D01*
Y76212D01*
X513320Y77211D01*
X511321D01*
X510321Y76212D01*
Y74212D01*
X511321Y73213D01*
X516319Y77211D02*
Y74212D01*
X517319Y73213D01*
X520318D01*
Y77211D01*
X522317Y73213D02*
Y77211D01*
X525316D01*
X526316Y76212D01*
Y73213D01*
X532314Y79211D02*
Y73213D01*
X529315D01*
X528315Y74212D01*
Y76212D01*
X529315Y77211D01*
X532314D01*
X252993Y61213D02*
Y67211D01*
X249994Y64212D01*
X253993D01*
X319575Y61213D02*
X321575D01*
X320575D01*
Y67211D01*
X319575Y66211D01*
X324574D02*
X325573Y67211D01*
X327573D01*
X328572Y66211D01*
Y65211D01*
X327573Y64212D01*
X328572Y63212D01*
Y62212D01*
X327573Y61213D01*
X325573D01*
X324574Y62212D01*
Y63212D01*
X325573Y64212D01*
X324574Y65211D01*
Y66211D01*
X325573Y64212D02*
X327573D01*
X330572Y61213D02*
X332571D01*
X331571D01*
Y67211D01*
X330572Y66211D01*
X335570Y61213D02*
Y62212D01*
X336570D01*
Y61213D01*
X335570D01*
X340568D02*
X342568D01*
X341568D01*
Y67211D01*
X340568Y66211D01*
X345567D02*
X346567Y67211D01*
X348566D01*
X349566Y66211D01*
Y62212D01*
X348566Y61213D01*
X346567D01*
X345567Y62212D01*
Y66211D01*
X355564Y61213D02*
X351565D01*
X355564Y65211D01*
Y66211D01*
X354564Y67211D01*
X352565D01*
X351565Y66211D01*
X357563Y61213D02*
Y65211D01*
X358563D01*
X359562Y64212D01*
Y61213D01*
Y64212D01*
X360562Y65211D01*
X361562Y64212D01*
Y61213D01*
X363561D02*
X365560D01*
X364561D01*
Y65211D01*
X363561D01*
X368559Y61213D02*
X370559D01*
X369559D01*
Y67211D01*
X368559D01*
X381555Y61213D02*
X379556Y63212D01*
Y65211D01*
X381555Y67211D01*
X387553Y61213D02*
Y67211D01*
X384554Y64212D01*
X388553D01*
X390552Y61213D02*
Y62212D01*
X391552D01*
Y61213D01*
X390552D01*
X399549Y67211D02*
X397550Y66211D01*
X395551Y64212D01*
Y62212D01*
X396550Y61213D01*
X398550D01*
X399549Y62212D01*
Y63212D01*
X398550Y64212D01*
X395551D01*
X401549Y61213D02*
Y65211D01*
X402548D01*
X403548Y64212D01*
Y61213D01*
Y64212D01*
X404548Y65211D01*
X405547Y64212D01*
Y61213D01*
X407547D02*
Y65211D01*
X408546D01*
X409546Y64212D01*
Y61213D01*
Y64212D01*
X410546Y65211D01*
X411546Y64212D01*
Y61213D01*
X413545D02*
X415544Y63212D01*
Y65211D01*
X413545Y67211D01*
X453936Y61213D02*
Y67211D01*
X456935D01*
X457934Y66211D01*
Y64212D01*
X456935Y63212D01*
X453936D01*
X459934Y67211D02*
X463932D01*
X461933D01*
Y61213D01*
X465932Y67211D02*
Y61213D01*
Y64212D01*
X469931D01*
Y67211D01*
Y61213D01*
X504323D02*
Y67211D01*
X507322D01*
X508322Y66211D01*
Y64212D01*
X507322Y63212D01*
X504323D01*
X506323D02*
X508322Y61213D01*
X511321D02*
X513320D01*
X514320Y62212D01*
Y64212D01*
X513320Y65211D01*
X511321D01*
X510321Y64212D01*
Y62212D01*
X511321Y61213D01*
X516319Y65211D02*
Y62212D01*
X517319Y61213D01*
X520318D01*
Y65211D01*
X522317Y61213D02*
Y65211D01*
X525316D01*
X526316Y64212D01*
Y61213D01*
X532314Y67211D02*
Y61213D01*
X529315D01*
X528315Y62212D01*
Y64212D01*
X529315Y65211D01*
X532314D01*
X252993Y49213D02*
Y55211D01*
X249994Y52212D01*
X253993D01*
X258991Y49213D02*
Y55211D01*
X255992Y52212D01*
X259991D01*
X270791Y55211D02*
X274789D01*
X272790D01*
Y49213D01*
X277788D02*
X279788D01*
X280787Y50212D01*
Y52212D01*
X279788Y53211D01*
X277788D01*
X276789Y52212D01*
Y50212D01*
X277788Y49213D01*
X283786Y54211D02*
Y53211D01*
X282787D01*
X284786D01*
X283786D01*
Y50212D01*
X284786Y49213D01*
X288785Y53211D02*
X290784D01*
X291784Y52212D01*
Y49213D01*
X288785D01*
X287785Y50212D01*
X288785Y51212D01*
X291784D01*
X293783Y49213D02*
X295782D01*
X294783D01*
Y55211D01*
X293783D01*
D52*
X48413Y-13792D02*
Y-12192D01*
X50013D01*
Y-13792D01*
X48413D01*
Y13767D02*
Y15367D01*
X50013D01*
Y13767D01*
X48413D01*
X0Y-13D02*
X-800Y1587D01*
X800D01*
X0Y-13D01*
X-20000D02*
X-19600Y387D01*
X-19200D01*
X-19600Y787D01*
X-19200Y1187D01*
X-19600D01*
X-20000Y1587D01*
X-20400Y1187D01*
X-20800D01*
X-20400Y787D01*
X-20800Y387D01*
X-20400D01*
X-20000Y-13D01*
X20000D02*
X20400Y387D01*
X20800D01*
X20400Y787D01*
X20800Y1187D01*
X20400D01*
X20000Y1587D01*
X19600Y1187D01*
X19200D01*
X19600Y787D01*
X19200Y387D01*
X19600D01*
X20000Y-13D01*
X9200Y19987D02*
X9600Y20787D01*
X9200Y21587D01*
X10000Y21187D01*
X10800Y21587D01*
X10400Y20787D01*
X10800Y19987D01*
X10000Y20387D01*
X9200Y19987D01*
X-15800Y9987D02*
X-15400Y10787D01*
X-15800Y11587D01*
X-15000Y11187D01*
X-14200Y11587D01*
X-14600Y10787D01*
X-14200Y9987D01*
X-15000Y10387D01*
X-15800Y9987D01*
X-400Y387D02*
Y-13D01*
X400D01*
Y387D01*
X800D01*
Y1187D01*
X400D01*
Y1587D01*
X-400D01*
Y1187D01*
X-800D01*
Y387D01*
X-400D01*
X-74422Y-2217D02*
X-74022D01*
X-73622Y-1817D01*
X-73222Y-2217D01*
X-72822D01*
Y-1817D01*
X-73222Y-1417D01*
X-72822Y-1017D01*
Y-617D01*
X-73222D01*
X-73622Y-1017D01*
X-74022Y-617D01*
X-74422D01*
Y-1017D01*
X-74022Y-1417D01*
X-74422Y-1817D01*
Y-2217D01*
Y-12217D02*
X-74022D01*
X-73622Y-11817D01*
X-73222Y-12217D01*
X-72822D01*
Y-11817D01*
X-73222Y-11417D01*
X-72822Y-11017D01*
Y-10617D01*
X-73222D01*
X-73622Y-11017D01*
X-74022Y-10617D01*
X-74422D01*
Y-11017D01*
X-74022Y-11417D01*
X-74422Y-11817D01*
Y-12217D01*
Y-22217D02*
X-74022D01*
X-73622Y-21817D01*
X-73222Y-22217D01*
X-72822D01*
Y-21817D01*
X-73222Y-21417D01*
X-72822Y-21017D01*
Y-20617D01*
X-73222D01*
X-73622Y-21017D01*
X-74022Y-20617D01*
X-74422D01*
Y-21017D01*
X-74022Y-21417D01*
X-74422Y-21817D01*
Y-22217D01*
X-50013Y13767D02*
Y15367D01*
X-48413D01*
Y13767D01*
X-50013D01*
Y-13792D02*
Y-12192D01*
X-48413D01*
Y-13792D01*
X-50013D01*
X78334Y11024D02*
X79134Y11824D01*
X79934Y11024D01*
X79134Y10224D01*
X78334Y11024D01*
Y-8661D02*
X79134Y-7861D01*
X79934Y-8661D01*
X79134Y-9461D01*
X78334Y-8661D01*
X40932Y-6312D02*
Y-4712D01*
X42532D01*
Y-6312D01*
X40932D01*
X41332Y-5912D02*
Y-5112D01*
X42132D01*
Y-5912D01*
X41332D01*
X41326Y-21666D02*
Y-20066D01*
X42926D01*
Y-21666D01*
X41326D01*
X41726Y-21266D02*
Y-20466D01*
X42526D01*
Y-21266D01*
X41726D01*
X55499Y-21666D02*
Y-20066D01*
X57099D01*
Y-21666D01*
X55499D01*
X55899Y-21266D02*
Y-20466D01*
X56699D01*
Y-21266D01*
X55899D01*
X55893Y-6312D02*
Y-4712D01*
X57493D01*
Y-6312D01*
X55893D01*
X56293Y-5912D02*
Y-5112D01*
X57093D01*
Y-5912D01*
X56293D01*
X55893Y21247D02*
Y22847D01*
X57493D01*
Y21247D01*
X55893D01*
X56293Y21647D02*
Y22447D01*
X57093D01*
Y21647D01*
X56293D01*
X55499Y5893D02*
Y7493D01*
X57099D01*
Y5893D01*
X55499D01*
X55899Y6293D02*
Y7093D01*
X56699D01*
Y6293D01*
X55899D01*
X41326Y5893D02*
Y7493D01*
X42926D01*
Y5893D01*
X41326D01*
X41726Y6293D02*
Y7093D01*
X42526D01*
Y6293D01*
X41726D01*
X40932Y21247D02*
Y22847D01*
X42532D01*
Y21247D01*
X40932D01*
X41332Y21647D02*
Y22447D01*
X42132D01*
Y21647D01*
X41332D01*
X-57493Y21247D02*
Y22847D01*
X-55893D01*
Y21247D01*
X-57493D01*
X-57093Y21647D02*
Y22447D01*
X-56293D01*
Y21647D01*
X-57093D01*
X-57099Y5893D02*
Y7493D01*
X-55499D01*
Y5893D01*
X-57099D01*
X-56699Y6293D02*
Y7093D01*
X-55899D01*
Y6293D01*
X-56699D01*
X-42926Y5893D02*
Y7493D01*
X-41326D01*
Y5893D01*
X-42926D01*
X-42526Y6293D02*
Y7093D01*
X-41726D01*
Y6293D01*
X-42526D01*
X-42532Y21247D02*
Y22847D01*
X-40932D01*
Y21247D01*
X-42532D01*
X-42132Y21647D02*
Y22447D01*
X-41332D01*
Y21647D01*
X-42132D01*
X-42532Y-6312D02*
Y-4712D01*
X-40932D01*
Y-6312D01*
X-42532D01*
X-42132Y-5912D02*
Y-5112D01*
X-41332D01*
Y-5912D01*
X-42132D01*
X-42926Y-21666D02*
Y-20066D01*
X-41326D01*
Y-21666D01*
X-42926D01*
X-42526Y-21266D02*
Y-20466D01*
X-41726D01*
Y-21266D01*
X-42526D01*
X-57099Y-21666D02*
Y-20066D01*
X-55499D01*
Y-21666D01*
X-57099D01*
X-56699Y-21266D02*
Y-20466D01*
X-55899D01*
Y-21266D01*
X-56699D01*
X-57493Y-6312D02*
Y-4712D01*
X-55893D01*
Y-6312D01*
X-57493D01*
X-57093Y-5912D02*
Y-5112D01*
X-56293D01*
Y-5912D01*
X-57093D01*
X78334Y-16351D02*
Y-14751D01*
X79934D01*
Y-16351D01*
X78334D01*
X78734Y-15951D02*
Y-15151D01*
X79534D01*
Y-15951D01*
X78734D01*
X78334Y-2473D02*
Y-873D01*
X79934D01*
Y-2473D01*
X78334D01*
X78734Y-2073D02*
Y-1273D01*
X79534D01*
Y-2073D01*
X78734D01*
X71444Y-9560D02*
Y-7960D01*
X73044D01*
Y-9560D01*
X71444D01*
X71844Y-9160D02*
Y-8360D01*
X72644D01*
Y-9160D01*
X71844D01*
X85224Y-9461D02*
Y-7861D01*
X86824D01*
Y-9461D01*
X85224D01*
X85624Y-9061D02*
Y-8261D01*
X86424D01*
Y-9061D01*
X85624D01*
X85224Y10224D02*
Y11824D01*
X86824D01*
Y10224D01*
X85224D01*
X85624Y10624D02*
Y11424D01*
X86424D01*
Y10624D01*
X85624D01*
X71444Y10125D02*
Y11725D01*
X73044D01*
Y10125D01*
X71444D01*
X71844Y10525D02*
Y11325D01*
X72644D01*
Y10525D01*
X71844D01*
X78334Y17212D02*
Y18812D01*
X79934D01*
Y17212D01*
X78334D01*
X78734Y17612D02*
Y18412D01*
X79534D01*
Y17612D01*
X78734D01*
X78334Y3334D02*
Y4934D01*
X79934D01*
Y3334D01*
X78334D01*
X78734Y3734D02*
Y4534D01*
X79534D01*
Y3734D01*
X78734D01*
X200806Y171013D02*
Y169813D01*
X203206D01*
Y171013D01*
X204406D01*
Y173413D01*
X203206D01*
Y174613D01*
X200806D01*
Y173413D01*
X199606D01*
Y171013D01*
X200806D01*
X199606Y157813D02*
Y162613D01*
X204406D01*
Y157813D01*
X199606D01*
X200606Y158813D02*
Y161613D01*
X203406D01*
Y158813D01*
X200606D01*
X199606Y145813D02*
X200806D01*
X202006Y147013D01*
X203206Y145813D01*
X204406D01*
Y147013D01*
X203206Y148213D01*
X204406Y149413D01*
Y150613D01*
X203206D01*
X202006Y149413D01*
X200806Y150613D01*
X199606D01*
Y149413D01*
X200806Y148213D01*
X199606Y147013D01*
Y145813D01*
Y121813D02*
X200806Y124213D01*
X199606Y126613D01*
X202006Y125413D01*
X204406Y126613D01*
X203206Y124213D01*
X204406Y121813D01*
X202006Y123013D01*
X199606Y121813D01*
X202006Y109813D02*
X203206Y111013D01*
X204406D01*
X203206Y112213D01*
X204406Y113413D01*
X203206D01*
X202006Y114613D01*
X200806Y113413D01*
X199606D01*
X200806Y112213D01*
X199606Y111013D01*
X200806D01*
X202006Y109813D01*
X199606Y100213D02*
X202006Y102613D01*
X204406Y100213D01*
X202006Y97813D01*
X199606Y100213D01*
X202006Y73813D02*
X199606Y78613D01*
X204406D01*
X202006Y73813D01*
X199606Y61813D02*
Y66613D01*
X204406D01*
Y61813D01*
X199606D01*
D53*
X-94476Y-1575D02*
X-95028Y-814D01*
X-95923Y-1105D01*
Y-2045D01*
X-95028Y-2336D01*
X-94476Y-1575D01*
Y-11417D02*
X-95028Y-10656D01*
X-95923Y-10947D01*
Y-11888D01*
X-95028Y-12178D01*
X-94476Y-11417D01*
Y-21260D02*
X-95028Y-20499D01*
X-95923Y-20790D01*
Y-21730D01*
X-95028Y-22021D01*
X-94476Y-21260D01*
X-156680Y-59055D02*
X-157233Y-58294D01*
X-158127Y-58585D01*
Y-59525D01*
X-157233Y-59816D01*
X-156680Y-59055D01*
X158280D02*
X157728Y-58294D01*
X156833Y-58585D01*
Y-59525D01*
X157728Y-59816D01*
X158280Y-59055D01*
D54*
X-157080D02*
X-157680Y-58709D01*
Y-59402D01*
X-157080Y-59055D01*
X157880D02*
X157280Y-58709D01*
Y-59402D01*
X157880Y-59055D01*
D55*
X204405Y189611D02*
X203205Y190810D01*
X200806D01*
X199606Y189611D01*
Y188411D01*
X200806Y187211D01*
X203205D01*
X204405Y186012D01*
Y184812D01*
X203205Y183613D01*
X200806D01*
X199606Y184812D01*
X206804Y188411D02*
Y184812D01*
X208004Y183613D01*
X211602D01*
Y182413D01*
X210403Y181213D01*
X209203D01*
X211602Y183613D02*
Y188411D01*
X214002Y183613D02*
Y188411D01*
X215201D01*
X216401Y187211D01*
Y183613D01*
Y187211D01*
X217600Y188411D01*
X218800Y187211D01*
Y183613D01*
X221199Y190810D02*
Y183613D01*
X224798D01*
X225998Y184812D01*
Y186012D01*
Y187211D01*
X224798Y188411D01*
X221199D01*
X229597Y183613D02*
X231996D01*
X233195Y184812D01*
Y187211D01*
X231996Y188411D01*
X229597D01*
X228397Y187211D01*
Y184812D01*
X229597Y183613D01*
X235595D02*
X237994D01*
X236794D01*
Y190810D01*
X235595D01*
X249994D02*
Y183613D01*
Y187211D01*
X254792D01*
Y190810D01*
Y183613D01*
X257191D02*
X259591D01*
X258391D01*
Y188411D01*
X257191D01*
X264389Y189611D02*
Y188411D01*
X263190D01*
X265589D01*
X264389D01*
Y184812D01*
X265589Y183613D01*
X281184Y189611D02*
X279984Y190810D01*
X277585D01*
X276385Y189611D01*
Y184812D01*
X277585Y183613D01*
X279984D01*
X281184Y184812D01*
X284783Y183613D02*
X287182D01*
X288381Y184812D01*
Y187211D01*
X287182Y188411D01*
X284783D01*
X283583Y187211D01*
Y184812D01*
X284783Y183613D01*
X290781Y188411D02*
Y184812D01*
X291980Y183613D01*
X295579D01*
Y188411D01*
X297978Y183613D02*
Y188411D01*
X301577D01*
X302777Y187211D01*
Y183613D01*
X306376Y189611D02*
Y188411D01*
X305176D01*
X307575D01*
X306376D01*
Y184812D01*
X307575Y183613D01*
X324374Y190810D02*
X319575D01*
Y187211D01*
X321974D01*
X319575D01*
Y183613D01*
X326773D02*
X329172D01*
X327973D01*
Y188411D01*
X326773D01*
X332771Y183613D02*
Y188411D01*
X336370D01*
X337569Y187211D01*
Y183613D01*
X339969D02*
X342368D01*
X341168D01*
Y188411D01*
X339969D01*
X345967Y183613D02*
X349566D01*
X350765Y184812D01*
X349566Y186012D01*
X347166D01*
X345967Y187211D01*
X347166Y188411D01*
X350765D01*
X353164Y190810D02*
Y183613D01*
Y187211D01*
X354364Y188411D01*
X356763D01*
X357963Y187211D01*
Y183613D01*
X363961D02*
X361562D01*
X360362Y184812D01*
Y187211D01*
X361562Y188411D01*
X363961D01*
X365160Y187211D01*
Y186012D01*
X360362D01*
X372358Y190810D02*
Y183613D01*
X368759D01*
X367560Y184812D01*
Y187211D01*
X368759Y188411D01*
X372358D01*
X381955Y190810D02*
Y183613D01*
Y187211D01*
X386754D01*
Y190810D01*
Y183613D01*
X390352D02*
X392752D01*
X393951Y184812D01*
Y187211D01*
X392752Y188411D01*
X390352D01*
X389153Y187211D01*
Y184812D01*
X390352Y183613D01*
X396350D02*
X398750D01*
X397550D01*
Y190810D01*
X396350D01*
X405947Y183613D02*
X403548D01*
X402348Y184812D01*
Y187211D01*
X403548Y188411D01*
X405947D01*
X407147Y187211D01*
Y186012D01*
X402348D01*
X421542Y189611D02*
X420343Y190810D01*
X417943D01*
X416744Y189611D01*
Y188411D01*
X417943Y187211D01*
X420343D01*
X421542Y186012D01*
Y184812D01*
X420343Y183613D01*
X417943D01*
X416744Y184812D01*
X423941Y183613D02*
X426341D01*
X425141D01*
Y188411D01*
X423941D01*
X429940D02*
X434738D01*
X429940Y183613D01*
X434738D01*
X440736D02*
X438337D01*
X437137Y184812D01*
Y187211D01*
X438337Y188411D01*
X440736D01*
X441936Y187211D01*
Y186012D01*
X437137D01*
X453936Y183613D02*
Y190810D01*
X457535D01*
X458734Y189611D01*
Y187211D01*
X457535Y186012D01*
X453936D01*
X461133Y183613D02*
X463532D01*
X462333D01*
Y190810D01*
X461133D01*
X468331Y188411D02*
X470730D01*
X471930Y187211D01*
Y183613D01*
X468331D01*
X467131Y184812D01*
X468331Y186012D01*
X471930D01*
X475529Y189611D02*
Y188411D01*
X474329D01*
X476728D01*
X475529D01*
Y184812D01*
X476728Y183613D01*
X483926D02*
X481527D01*
X480327Y184812D01*
Y187211D01*
X481527Y188411D01*
X483926D01*
X485125Y187211D01*
Y186012D01*
X480327D01*
X492323Y190810D02*
Y183613D01*
X488724D01*
X487525Y184812D01*
Y187211D01*
X488724Y188411D01*
X492323D01*
X504323Y190810D02*
Y183613D01*
Y187211D01*
X509122D01*
Y190810D01*
Y183613D01*
X512720D02*
X515120D01*
X516319Y184812D01*
Y187211D01*
X515120Y188411D01*
X512720D01*
X511521Y187211D01*
Y184812D01*
X512720Y183613D01*
X518718D02*
X521118D01*
X519918D01*
Y190810D01*
X518718D01*
X528315Y183613D02*
X525916D01*
X524717Y184812D01*
Y187211D01*
X525916Y188411D01*
X528315D01*
X529515Y187211D01*
Y186012D01*
X524717D01*
X539112Y190810D02*
X543910D01*
X541511D01*
Y183613D01*
X546310Y188411D02*
Y184812D01*
X547509Y183613D01*
X551108D01*
Y182413D01*
X549908Y181213D01*
X548709D01*
X551108Y183613D02*
Y188411D01*
X553507Y181213D02*
Y188411D01*
X557106D01*
X558306Y187211D01*
Y184812D01*
X557106Y183613D01*
X553507D01*
X564304D02*
X561905D01*
X560705Y184812D01*
Y187211D01*
X561905Y188411D01*
X564304D01*
X565503Y187211D01*
Y186012D01*
X560705D01*
X190806Y194413D02*
X577503D01*
X190806Y178213D02*
X577503D01*
X190806Y194413D02*
Y46213D01*
X577503Y194413D02*
Y46213D01*
X245594Y194413D02*
Y46213D01*
X315175Y194413D02*
Y46213D01*
X449536Y194413D02*
Y46213D01*
X499923Y194413D02*
Y46213D01*
X190806Y58213D02*
X577503D01*
X190806Y46213D02*
X577503D01*
D56*
X204406Y136213D02*
X204199Y137189D01*
X203612Y137996D01*
X202748Y138495D01*
X201755Y138600D01*
X200806Y138291D01*
X200065Y137623D01*
X199659Y136712D01*
Y135714D01*
X200065Y134802D01*
X200806Y134134D01*
X201755Y133826D01*
X202748Y133930D01*
X203612Y134429D01*
X204199Y135236D01*
X204406Y136213D01*
Y88213D02*
X204199Y89189D01*
X203612Y89996D01*
X202748Y90495D01*
X201755Y90600D01*
X200806Y90291D01*
X200065Y89623D01*
X199659Y88712D01*
Y87714D01*
X200065Y86802D01*
X200806Y86134D01*
X201755Y85826D01*
X202748Y85930D01*
X203612Y86429D01*
X204199Y87236D01*
X204406Y88213D01*
D57*
X203406D02*
X203079Y89113D01*
X202249Y89591D01*
X201306Y89425D01*
X200691Y88691D01*
Y87734D01*
X201306Y87000D01*
X202249Y86834D01*
X203079Y87313D01*
X203406Y88213D01*
M02*
