G04*
G04 #@! TF.GenerationSoftware,Altium Limited,Altium Designer,20.0.9 (164)*
G04*
G04 Layer_Color=16711935*
%FSLAX25Y25*%
%MOIN*%
G70*
G01*
G75*
%ADD21C,0.24803*%
%ADD22R,0.07874X0.07480*%
%ADD23C,0.07874*%
%ADD24C,0.15700*%
%ADD25C,0.06700*%
%ADD26C,0.09055*%
%ADD27R,0.09055X0.09055*%
%ADD28C,0.00315*%
%ADD29R,0.06299X0.06299*%
%ADD30C,0.06299*%
%ADD31C,0.16929*%
%ADD32C,0.01968*%
%ADD33C,0.22835*%
%ADD48R,0.06299X0.05906*%
%ADD49R,0.08268X0.02362*%
%ADD50R,0.12205X0.06299*%
D21*
X49213Y-12992D02*
D03*
Y14567D02*
D03*
X-49213D02*
D03*
Y-12992D02*
D03*
D22*
X-95276Y-1575D02*
D03*
D23*
Y-11417D02*
D03*
Y-21260D02*
D03*
D24*
X0Y787D02*
D03*
D25*
X-20000D02*
D03*
X20000D02*
D03*
D26*
X10000Y20787D02*
D03*
D27*
X-15000Y10787D02*
D03*
D28*
X0Y787D02*
D03*
D29*
X-73622Y-1417D02*
D03*
D30*
Y-11417D02*
D03*
Y-21417D02*
D03*
D31*
X79134Y11024D02*
D03*
Y-8661D02*
D03*
D32*
X41732Y-5512D02*
D03*
X42126Y-20866D02*
D03*
X56299D02*
D03*
X56693Y-5512D02*
D03*
Y22047D02*
D03*
X56299Y6693D02*
D03*
X42126D02*
D03*
X41732Y22047D02*
D03*
X-56693D02*
D03*
X-56299Y6693D02*
D03*
X-42126D02*
D03*
X-41732Y22047D02*
D03*
Y-5512D02*
D03*
X-42126Y-20866D02*
D03*
X-56299D02*
D03*
X-56693Y-5512D02*
D03*
X79134Y-15551D02*
D03*
Y-1673D02*
D03*
X72244Y-8760D02*
D03*
X86024Y-8661D02*
D03*
Y11024D02*
D03*
X72244Y10925D02*
D03*
X79134Y18012D02*
D03*
Y4134D02*
D03*
D33*
X-157480Y-59055D02*
D03*
X157480D02*
D03*
D48*
X-112992Y-12992D02*
D03*
Y-20866D02*
D03*
D49*
X146063Y-13385D02*
D03*
Y-9448D02*
D03*
D50*
X158661Y-18898D02*
D03*
Y-3937D02*
D03*
M02*
